<svg width="513" height="343" viewBox="0 0 513 343" fill="none" xmlns="http://www.w3.org/2000/svg">
<g clip-path="url(#clip0_4349_30623)">
<path d="M0 0.959473H513V342.959H0V0.959473Z" fill="#D80027"/>
<path d="M215.9 171.66L0 315.56V27.7595L215.9 171.66ZM513 27.7595V315.56L297.1 171.66L513 27.7595Z" fill="#47A644"/>
<path d="M512 27.7595L296.1 171.659L512 315.559V342.259H471.9L256 198.359L40.1 342.259H0V315.559L215.9 171.659L0 27.7595V0.959473H40.1L256 144.859L471.9 0.959473H512V27.7595Z" fill="#0052B4"/>
<path d="M513 27.7595L297.1 171.659L513 315.559V342.959H473L256 198.359L39 342.959H0V315.559L215.9 171.659L0 27.7595V0.959473H40.1L256 144.859L471.9 0.959473H513V27.7595Z" fill="white"/>
<path d="M251.6 271.859C306.939 271.859 351.8 226.998 351.8 171.659C351.8 116.321 306.939 71.4595 251.6 71.4595C196.261 71.4595 151.4 116.321 151.4 171.659C151.4 226.998 196.261 271.859 251.6 271.859Z" fill="white"/>
<path d="M251.4 104.559L258.8 117.459H273.6L266.2 130.259L273.6 143.059H258.8L251.4 155.959L244 143.059H229.2L236.6 130.259L229.2 117.459H244L251.4 104.559ZM290.2 171.259L297.6 184.159H312.4L305 196.959L312.4 209.759H297.6L290.2 222.659L282.8 209.759H267.9L275.3 196.959L267.9 184.159H282.8L290.2 171.259ZM213 171.259L220.4 184.159H235.3L227.9 196.959L235.3 209.759H220.4L213 222.659L205.6 209.759H190.8L198.2 196.959L190.8 184.159H205.6L213 171.259Z" fill="#D80027"/>
<path fill-rule="evenodd" clip-rule="evenodd" d="M251.4 101.545L259.669 115.959H276.2L267.933 130.259L276.2 144.559H259.669L251.4 158.974L243.131 144.559H226.6L234.867 130.259L226.6 115.959H243.131L251.4 101.545ZM251.4 107.574L244.869 118.959H231.8L238.333 130.259L231.8 141.559H244.869L251.4 152.945L257.931 141.559H271L264.467 130.259L271 118.959H257.931L251.4 107.574ZM213 168.245L221.269 182.659H237.9L229.633 196.959L237.9 211.259H221.269L213 225.674L204.731 211.259H188.2L196.467 196.959L188.2 182.659H204.731L213 168.245ZM290.2 168.245L298.469 182.659H315L306.733 196.959L315 211.259H298.469L290.2 225.674L281.931 211.259H265.3L273.567 196.959L265.3 182.659H281.931L290.2 168.245ZM290.2 174.274L283.669 185.659H270.5L277.033 196.959L270.5 208.259H283.669L290.2 219.645L296.731 208.259H309.8L303.267 196.959L309.8 185.659H296.731L290.2 174.274ZM213 174.274L206.469 185.659H193.4L199.933 196.959L193.4 208.259H206.469L213 219.645L219.531 208.259H232.7L226.167 196.959L232.7 185.659H219.531L213 174.274Z" fill="#47A644"/>
</g>
<defs>
<clipPath id="clip0_4349_30623">
<rect width="513" height="342" fill="white" transform="translate(0 0.959473)"/>
</clipPath>
</defs>
</svg>
