<svg width="513" height="343" viewBox="0 0 513 343" fill="none" xmlns="http://www.w3.org/2000/svg">
<g clip-path="url(#clip0_4349_30607)">
<path d="M0 0.966797H513V342.963H0V0.966797Z" fill="white"/>
<path d="M157.617 201.117C157.617 201.117 148.56 245.133 138.27 241.586C127.629 238.039 120.705 222.789 120.705 222.789L106.157 244.071C106.157 244.071 144.412 252.567 147.247 249.551C148.47 248.409 155.473 234.422 157.607 223.45V201.117H157.617ZM101.378 261.805C101.378 261.805 98.8929 282.025 100.316 284.509C101.558 286.814 139.873 295.862 139.873 295.862C139.873 295.862 114.864 312.354 110.075 316.442L91.9795 286.463L91.2681 261.805H101.378ZM112.73 95.7915C112.73 95.7915 152.457 137.473 153.169 141.38C153.88 145.108 148.91 144.577 148.91 144.577C148.91 144.577 104.033 106.973 98.8929 103.426C93.5726 99.8695 112.73 95.7915 112.73 95.7915Z" fill="#E6BC00"/>
<path d="M99.6042 105.901C99.6042 105.901 116.627 105.19 116.277 94.3688C115.926 83.7281 105.105 79.4698 97.1193 81.9546C89.1338 84.2591 74.0644 95.4309 83.4627 117.073C92.861 138.535 106.878 146.52 109.714 164.966C109.714 164.966 104.243 174.846 90.5565 165.317C73.6235 153.524 84.3444 127.002 80.0961 120.269C75.8378 113.175 39.0662 81.2733 39.0662 81.2733C39.0662 81.2733 8.7671 120.72 21.031 156.34C38.0141 205.646 72.8721 188.382 85.7672 193.171C85.7672 193.171 43.5549 255.252 36.1004 260.392C36.1004 260.392 60.2274 268.729 83.9937 241.596C83.9937 241.596 89.8451 251.355 91.0876 261.815H101.378C106.167 235.564 152.988 197.43 151.395 179.334C149.622 158.043 102.089 129.848 99.6042 105.901Z" fill="#ADADAD"/>
<path d="M359.871 202.63C359.871 202.63 368.849 245.143 379.139 241.596C389.78 238.049 396.703 222.799 396.703 222.799L411.252 244.081C411.252 244.081 374.179 252.577 371.344 249.561C370.131 248.419 362.006 235.744 359.801 224.853L359.871 202.63ZM416.031 261.805C416.031 261.805 418.516 282.025 417.093 284.509C415.851 286.814 377.536 295.862 377.536 295.862C377.536 295.862 402.545 312.354 407.334 316.442L425.429 286.463L426.141 261.805H416.031ZM404.679 95.7915C404.679 95.7915 364.951 137.473 364.24 141.38C363.529 145.108 368.498 144.577 368.498 144.577C368.498 144.577 413.376 106.973 418.516 103.426C423.666 99.8695 404.679 95.7915 404.679 95.7915Z" fill="#E6BC00"/>
<path d="M157.617 88.1968H359.801V233.941C359.801 250.032 350.092 255.373 337.848 265.853L291.839 305.34C273.553 320.991 243.835 320.94 225.64 305.34L179.54 265.833C167.436 255.463 157.617 250.092 157.617 233.951V88.1968Z" fill="#125ECC"/>
<path d="M200.942 148.965C192.966 148.965 186.503 142.503 186.503 134.527C186.503 126.551 192.966 120.089 200.942 120.089C208.917 120.089 215.38 126.551 215.38 134.527C215.38 142.503 208.917 148.965 200.942 148.965ZM258.704 145.959C250.729 145.959 244.266 139.497 244.266 131.521C244.266 123.546 250.729 117.083 258.704 117.083C266.68 117.083 273.142 123.546 273.142 131.521C273.142 139.497 266.68 145.959 258.704 145.959ZM316.467 148.965C308.491 148.965 302.029 142.503 302.029 134.527C302.029 126.551 308.491 120.089 316.467 120.089C324.442 120.089 330.905 126.551 330.905 134.527C330.905 142.503 324.442 148.965 316.467 148.965ZM215.38 275.933C207.404 275.933 200.942 269.47 200.942 261.494C200.942 253.519 207.404 247.056 215.38 247.056C223.355 247.056 229.818 253.519 229.818 261.494C229.828 269.47 223.355 275.933 215.38 275.933ZM258.704 290.381C250.729 290.381 244.266 283.918 244.266 275.943C244.266 267.967 250.729 261.505 258.704 261.505C266.68 261.505 273.142 267.967 273.142 275.943C273.142 283.908 266.68 290.381 258.704 290.381ZM302.029 275.933C294.053 275.933 287.59 269.47 287.59 261.494C287.59 253.519 294.053 247.056 302.029 247.056C310.004 247.056 316.467 253.519 316.467 261.494C316.467 269.47 310.004 275.933 302.029 275.933Z" fill="#FFE600"/>
<path d="M157.617 176.669H359.801V234.432H157.617V176.669Z" fill="#D60537"/>
<path d="M143.179 44.8722C143.179 44.8722 200.942 30.4341 258.714 30.4341C316.487 30.4341 374.25 44.8722 374.25 44.8722L359.811 102.635C359.811 102.635 309.263 88.1967 258.724 88.1967C208.186 88.1967 157.637 102.635 157.637 102.635L143.179 44.8722Z" fill="#EACE00"/>
<path d="M258.704 73.7586C250.729 73.7586 244.266 67.296 244.266 59.3205C244.266 51.3449 250.729 44.8823 258.704 44.8823C266.68 44.8823 273.142 51.3449 273.142 59.3205C273.142 67.296 266.68 73.7586 258.704 73.7586ZM316.467 78.7684C308.491 78.7684 302.029 72.3058 302.029 64.3302C302.029 56.3547 308.491 49.8921 316.467 49.8921C324.442 49.8921 330.905 56.3547 330.905 64.3302C330.905 72.3058 324.442 78.7684 316.467 78.7684ZM200.942 78.7684C192.966 78.7684 186.503 72.3058 186.503 64.3302C186.503 56.3547 192.966 49.8921 200.942 49.8921C208.917 49.8921 215.38 56.3547 215.38 64.3302C215.38 72.3058 208.917 78.7684 200.942 78.7684Z" fill="#7A6920"/>
<path d="M365.793 179.334C364.2 197.43 411.021 235.564 415.811 261.815H426.101C427.343 251.355 433.195 241.596 433.195 241.596C456.961 268.739 481.088 260.392 481.088 260.392C473.633 255.252 431.421 193.171 431.421 193.171C444.326 188.382 479.184 205.646 496.157 156.34C508.421 120.72 478.122 81.2733 478.122 81.2733C478.122 81.2733 441.35 113.175 437.092 120.269C432.834 127.012 443.565 153.534 426.632 165.317C412.945 174.846 407.474 164.966 407.474 164.966C410.31 146.52 424.327 138.535 433.726 117.073C443.124 95.4309 428.055 84.2591 420.069 81.9546C412.083 79.4698 401.272 83.7281 400.912 94.3688C400.561 105.19 417.584 105.901 417.584 105.901C415.099 129.848 367.567 158.043 365.793 179.334Z" fill="#ADADAD"/>
<path d="M258.704 222.519C268.073 222.519 275.667 214.924 275.667 205.556C275.667 196.187 268.073 188.593 258.704 188.593C249.336 188.593 241.741 196.187 241.741 205.556C241.741 214.924 249.336 222.519 258.704 222.519Z" fill="white"/>
</g>
<defs>
<clipPath id="clip0_4349_30607">
<rect width="513" height="341.997" fill="white" transform="translate(0 0.966797)"/>
</clipPath>
</defs>
</svg>
