<svg width="513" height="343" viewBox="0 0 513 343" fill="none" xmlns="http://www.w3.org/2000/svg">
<g clip-path="url(#clip0_4349_30594)">
<path d="M0 0.958984H513V342.959H0V0.958984Z" fill="#C8102E"/>
<path d="M0 1.05898H256.5V172.059H0V1.05898Z" fill="#012169"/>
<path d="M256 0.958984H233.4L160 49.859V0.958984H96V49.859L22.6 0.958984H0V23.659L46.1 54.359H0V118.359H46.1L0 149.059V171.659H22.6L96 122.759V171.659H160V122.759L233.4 171.659H256V149.059L209.9 118.359H256V54.359H209.9L256 23.659V0.958984Z" fill="white"/>
<path d="M144 0.958984H112V70.359H0V102.359H112V171.659H144V102.359H256V70.359H144V0.958984Z" fill="#C8102E"/>
<path d="M0 171.659V160.659L62.5 118.359H85.1L7.3 171.659H0ZM7.3 1.05898L85.1 54.259H62.5L0 12.059V1.05898H7.3ZM256 1.05898V12.059L193.5 54.359H170.9L248.7 1.05898H256ZM248.7 171.659L170.9 118.359H193.5L256 160.659V171.659H248.7Z" fill="#C8102E"/>
<path d="M316.9 100.899V200.589C316.9 260.399 396.65 300.279 396.65 300.279C396.65 300.279 476.4 260.399 476.4 200.589V100.899H316.9Z" fill="white"/>
<path d="M449.37 260.399H343.93C367.06 285.479 396.65 300.279 396.65 300.279C396.65 300.279 426.24 285.479 449.37 260.399Z" fill="#2F8F22"/>
<path d="M396.65 260.399C418.675 260.399 436.53 242.544 436.53 220.519C436.53 198.494 418.675 180.639 396.65 180.639C374.625 180.639 356.77 198.494 356.77 220.519C356.77 242.544 374.625 260.399 396.65 260.399Z" fill="#65B5D2"/>
<path d="M356.77 220.529C367.783 220.529 376.71 211.602 376.71 200.589C376.71 189.576 367.783 180.649 356.77 180.649C345.758 180.649 336.83 189.576 336.83 200.589C336.83 211.602 345.758 220.529 356.77 220.529Z" fill="#C8102E"/>
<path d="M436.52 220.529C447.533 220.529 456.46 211.602 456.46 200.589C456.46 189.576 447.533 180.649 436.52 180.649C425.508 180.649 416.58 189.576 416.58 200.589C416.58 211.602 425.508 220.529 436.52 220.529Z" fill="#C8102E"/>
<path d="M396.65 180.649C407.663 180.649 416.59 171.722 416.59 160.709C416.59 149.696 407.663 140.769 396.65 140.769C385.637 140.769 376.71 149.696 376.71 160.709C376.71 171.722 385.637 180.649 396.65 180.649Z" fill="#C8102E"/>
</g>
<defs>
<clipPath id="clip0_4349_30594">
<rect width="513" height="342" fill="white" transform="translate(0 0.958984)"/>
</clipPath>
</defs>
</svg>
