<svg width="513" height="343" viewBox="0 0 513 343" fill="none" xmlns="http://www.w3.org/2000/svg">
<g clip-path="url(#clip0_4349_30585)">
<path d="M0 0.963379H513V342.96H0V0.963379Z" fill="#FFDA44"/>
<path d="M0 195.082L513 322.52V215.642L0 98.2329V195.082Z" fill="black"/>
<path d="M513 235.681V148.842L0 21.4133V108.253" fill="white"/>
<path d="M306.999 135.235C311.002 142.625 313.092 150.898 313.08 159.302C313.08 180.894 299.544 199.32 280.497 206.584V146.958C286.208 145.766 290.517 140.576 290.517 134.344C297.43 134.344 303.041 128.582 303.041 121.468H302.62C309.534 121.468 315.555 115.707 315.555 108.593H280.497V77.6931L265.478 49.929L250.448 77.6931V108.593H215.39C215.39 115.707 221.412 121.468 228.325 121.468H227.904C227.904 128.582 233.515 134.344 240.429 134.344C240.429 140.576 244.727 145.766 250.438 146.958V208.448C228.305 203.047 211.883 183.099 211.883 159.302C211.883 150.585 214.087 142.389 217.965 135.235C206.984 146.467 200.21 161.817 200.21 178.76C200.21 213.147 228.085 241.031 262.482 241.031C296.879 241.031 324.753 213.147 324.753 178.76C324.753 161.817 317.97 146.457 306.999 135.235Z" fill="#D80027"/>
<path fill-rule="evenodd" clip-rule="evenodd" d="M265.478 46.7771L281.997 77.3133V107.093H317.055V108.593C317.055 115.913 311.384 121.917 304.477 122.844C303.847 129.629 298.604 135.08 291.948 135.77C291.384 141.633 287.377 146.48 281.997 148.121V204.354C299.404 196.802 311.58 179.474 311.58 159.302V159.3C311.592 151.146 309.563 143.119 305.68 135.95L306.999 135.235L308.071 134.187C319.305 145.677 326.253 161.408 326.253 178.76C326.253 213.975 297.707 242.531 262.482 242.531C227.256 242.531 198.71 213.975 198.71 178.76C198.71 161.409 205.649 145.687 216.892 134.187L224.404 126.504L219.284 135.95C215.522 142.89 213.383 150.841 213.383 159.302C213.383 181.721 228.405 200.623 248.938 206.499V148.12C243.558 146.48 239.56 141.632 238.997 135.77C232.341 135.079 227.098 129.629 226.468 122.844C219.561 121.917 213.89 115.913 213.89 108.593V107.093H248.948V77.313L265.478 46.7771ZM228.325 119.968V121.468H229.404C229.404 127.793 234.382 132.843 240.429 132.843H241.929V134.343C241.929 139.88 245.743 144.445 250.745 145.49L251.938 145.739V210.358L250.083 209.905C227.294 204.345 210.383 183.806 210.383 159.302C210.383 153.95 211.191 148.787 212.69 143.929C205.771 153.793 201.71 165.798 201.71 178.76C201.71 212.319 228.913 239.531 262.482 239.531C296.05 239.531 323.253 212.319 323.253 178.76C323.253 165.8 319.187 153.79 312.272 143.928C313.804 148.89 314.588 154.073 314.58 159.304C314.58 181.539 300.639 200.508 281.031 207.986L278.997 208.762V145.739L280.19 145.49C285.194 144.445 289.017 139.878 289.017 134.343V132.843H290.517C296.563 132.843 301.541 127.793 301.541 121.468H302.62V119.968C308.233 119.968 313.185 115.651 313.952 110.093H278.997V78.0727L265.477 53.0806L251.948 78.0729V110.093H216.993C217.76 115.651 222.712 119.968 228.325 119.968Z" fill="#231F20"/>
<path d="M198.848 228.216C198.848 228.216 219.578 255.981 265.478 255.981C311.377 255.981 332.108 228.216 332.108 228.216L345.604 256.642C345.604 256.642 324.533 284.406 265.478 284.406C206.423 284.406 185.352 256.642 185.352 256.642L198.848 228.216ZM129.493 134.404H150.413L175.392 161.717V235.31H149.061V166.807L129.493 134.404ZM400.781 134.404H379.861L354.882 161.717V235.31H381.203V166.807L400.781 134.404Z" fill="#D80027"/>
<path fill-rule="evenodd" clip-rule="evenodd" d="M126.834 132.904H151.074L176.892 161.134V236.81H147.561V167.225L126.834 132.904ZM132.151 135.904L150.561 166.389V233.81H173.892V162.299L149.752 135.904H132.151ZM379.2 132.904H403.44L382.703 167.225V236.81H353.382V161.134L379.2 132.904ZM380.522 135.904L356.382 162.299V233.81H379.703V166.389L398.123 135.904H380.522ZM332.395 225.324L347.35 256.822L346.799 257.549L345.604 256.642C346.799 257.549 346.798 257.55 346.797 257.551L346.795 257.553L346.79 257.56L346.773 257.581C346.76 257.599 346.741 257.623 346.717 257.654C346.668 257.715 346.599 257.801 346.507 257.912C346.324 258.132 346.054 258.448 345.692 258.845C344.969 259.639 343.879 260.759 342.391 262.096C339.414 264.77 334.841 268.309 328.408 271.839C315.532 278.904 295.251 285.906 265.478 285.906C235.704 285.906 215.423 278.904 202.547 271.839C196.114 268.309 191.541 264.77 188.564 262.096C187.076 260.759 185.987 259.639 185.263 258.845C184.902 258.448 184.631 258.132 184.448 257.912C184.357 257.801 184.287 257.715 184.239 257.654C184.224 257.635 184.212 257.62 184.201 257.606C184.194 257.597 184.187 257.589 184.182 257.581L184.165 257.56L184.16 257.553L184.158 257.551C184.157 257.55 184.157 257.549 185.351 256.642L184.157 257.549L183.605 256.822L197.493 227.573L198.848 228.216C200.05 227.319 200.049 227.318 200.049 227.318L200.05 227.319L200.057 227.329C200.061 227.334 200.067 227.342 200.074 227.351C200.08 227.359 200.087 227.368 200.095 227.378C200.117 227.407 200.146 227.444 200.183 227.491C200.207 227.52 200.233 227.553 200.262 227.59C200.414 227.779 200.647 228.063 200.963 228.428C201.594 229.158 202.555 230.212 203.853 231.482C206.45 234.023 210.395 237.426 215.755 240.833C226.466 247.641 242.848 254.481 265.478 254.481C288.107 254.481 304.489 247.641 315.2 240.833C320.56 237.426 324.505 234.023 327.102 231.482C328.401 230.212 329.361 229.158 329.993 228.428C330.308 228.063 330.541 227.779 330.693 227.59C330.769 227.495 330.825 227.424 330.86 227.378C330.878 227.356 330.89 227.339 330.898 227.329L330.906 227.319L330.906 227.318L332.395 225.324ZM331.753 230.968C331.107 231.689 330.258 232.592 329.2 233.627C326.476 236.292 322.369 239.83 316.81 243.364C305.681 250.438 288.748 257.481 265.478 257.481C242.208 257.481 225.275 250.438 214.146 243.364C208.586 239.83 204.479 236.292 201.755 233.627C200.698 232.592 199.848 231.689 199.202 230.968L187.118 256.419C187.224 256.539 187.345 256.675 187.481 256.825C188.141 257.549 189.159 258.598 190.569 259.864C193.388 262.396 197.774 265.798 203.99 269.209C216.414 276.026 236.196 282.906 265.478 282.906C294.759 282.906 314.542 276.026 326.965 269.209C333.181 265.798 337.567 262.396 340.386 259.864C341.796 258.598 342.815 257.549 343.474 256.825C343.61 256.675 343.731 256.539 343.837 256.419L331.753 230.968Z" fill="#231F20"/>
</g>
<defs>
<clipPath id="clip0_4349_30585">
<rect width="513" height="341.997" fill="white" transform="translate(0 0.963379)"/>
</clipPath>
</defs>
</svg>
