<svg width="513" height="343" viewBox="0 0 513 343" fill="none" xmlns="http://www.w3.org/2000/svg">
<g clip-path="url(#clip0_4349_30570)">
<path d="M0 0.866211H513V342.866H0V0.866211Z" fill="#009B3A"/>
<path d="M256.5 20.166L461.4 171.566L256.5 322.866L50.6001 171.566L256.5 20.166Z" fill="#FEDF00"/>
<path d="M256.5 252.266C300.904 252.266 336.9 216.27 336.9 171.866C336.9 127.463 300.904 91.4663 256.5 91.4663C212.096 91.4663 176.1 127.463 176.1 171.866C176.1 216.27 212.096 252.266 256.5 252.266Z" fill="white"/>
<path d="M215.9 166.566C202 166.566 188.5 168.666 175.8 172.566C176.4 216.466 212.1 251.866 256.1 251.866C283.3 251.866 307.4 238.266 321.9 217.566C297 186.566 258.7 166.566 215.9 166.566ZM334.9 186.866C335.8 181.866 336.4 176.766 336.4 171.466C336.4 127.066 300.4 91.0664 256 91.0664C222.9 91.0664 194.5 111.166 182.1 139.666C193 137.466 204.2 136.266 215.7 136.266C262.5 136.366 304.7 155.766 334.9 186.866Z" fill="#002776"/>
</g>
<defs>
<clipPath id="clip0_4349_30570">
<rect width="513" height="342" fill="white" transform="translate(0 0.866211)"/>
</clipPath>
</defs>
</svg>
