<svg width="513" height="343" viewBox="0 0 513 343" fill="none" xmlns="http://www.w3.org/2000/svg">
<g clip-path="url(#clip0_4349_30561)">
<path d="M0 0.966309H513V342.933H0V0.966309Z" fill="#FF7415"/>
<path d="M513 0.966309H0V342.933" fill="#FFDA44"/>
<path fill-rule="evenodd" clip-rule="evenodd" d="M341.532 66.8242C338.921 66.1542 336.748 66.2659 333.768 68.2425C329.728 70.9379 328.917 72.8156 328.705 73.3946C328.438 74.1252 328.069 75.8059 328.895 79.4259C330.849 87.9875 337.026 98.4513 346.038 113.404C346.195 113.664 346.353 113.927 346.513 114.191C354.236 127 364.448 143.936 367.659 160.919C369.428 170.27 369.359 180.758 365.081 191.224C360.791 201.72 353.083 210.204 343.001 216.922C342.999 216.923 342.997 216.925 342.995 216.926C342.992 216.928 342.99 216.929 342.988 216.931C332.76 223.752 321.901 227.721 310.53 227.861C299.142 228.002 289.274 224.278 281.095 219.161C266.342 209.929 254.389 194.196 245.372 182.326C245.139 182.019 244.908 181.715 244.679 181.414C234.116 167.517 226.712 158.033 219.415 153.166C216.364 151.131 214.49 150.761 213.333 150.743C212.244 150.725 209.674 150.978 205.116 154.01C205.115 154.011 205.113 154.012 205.112 154.013C199.222 157.942 196.886 161.207 195.883 163.295C194.928 165.282 194.474 167.656 194.898 171.155C195.921 179.6 201.213 190.051 209.705 204.785C210.362 205.924 211.046 207.101 211.75 208.312C218.823 220.485 227.89 236.088 231.198 251.238C233.175 260.293 233.527 270.691 229.557 281.19C225.549 291.793 217.978 300.272 208.045 306.893C194.404 316.01 179.856 317.162 166.932 313.816C154.821 310.682 144.594 303.786 136.981 297.356C129.19 290.776 122.85 283.581 118.549 278.212C116.365 275.487 114.627 273.132 113.408 271.419C112.798 270.56 112.313 269.857 111.965 269.342C111.79 269.084 111.649 268.873 111.543 268.713C111.49 268.632 111.446 268.565 111.41 268.51L111.363 268.439L111.345 268.41L111.337 268.398C111.333 268.392 111.329 268.387 128.952 256.965C146.574 245.543 146.571 245.538 146.567 245.534L146.563 245.527C146.592 245.57 146.652 245.66 146.742 245.793C146.923 246.06 147.224 246.498 147.635 247.077C148.461 248.238 149.715 249.941 151.325 251.95C154.61 256.049 159.06 261.028 164.081 265.269C169.281 269.66 173.889 272.233 177.456 273.156C180.205 273.868 182.172 273.669 184.709 271.972L184.725 271.961L184.741 271.951C189.051 269.08 190.005 267.043 190.271 266.338C190.579 265.523 190.954 263.812 190.165 260.197C188.331 251.798 182.571 241.809 174.174 227.246C173.891 226.755 173.606 226.259 173.317 225.758C165.69 212.525 155.433 194.627 153.203 176.204C152 166.269 152.994 155.579 158.026 145.106C163.009 134.735 171.196 126.146 181.829 119.057L181.843 119.048C191.886 112.364 202.666 108.568 213.999 108.748C225.263 108.926 234.884 112.998 242.721 118.226C256.397 127.348 267.819 142.416 276.597 153.995C277.112 154.676 277.619 155.344 278.116 155.998C288.547 169.721 296.055 178.977 303.373 183.556C306.42 185.463 308.469 185.884 310.01 185.865C311.564 185.845 314.643 185.353 319.691 181.984L319.698 181.98L319.704 181.976C324.395 178.851 325.74 176.466 326.203 175.334C326.679 174.168 327.06 172.263 326.391 168.724C324.794 160.279 318.938 149.803 310.066 135.084C309.607 134.322 309.136 133.543 308.656 132.75C301.171 120.373 291.517 104.409 287.948 88.7712C285.898 79.7901 285.432 69.4372 289.261 58.9674C293.146 48.3465 300.625 39.8595 310.479 33.2902L310.504 33.2741C324.248 24.1385 338.843 22.7739 351.97 26.1419C364.247 29.2916 374.485 36.3282 382.05 42.8875C389.786 49.5945 396.011 56.9326 400.212 62.3997C402.346 65.1769 404.039 67.5775 405.224 69.3249C405.818 70.2009 406.288 70.9191 406.628 71.4458C406.797 71.7094 406.935 71.9256 407.038 72.0903C407.09 72.1726 407.133 72.2421 407.168 72.2983L407.214 72.3725L407.24 72.4148C407.244 72.4207 407.247 72.4263 389.359 83.4269C371.471 94.4275 371.474 94.4328 371.477 94.4378L371.483 94.4469L371.485 94.4499C371.458 94.4082 371.402 94.3188 371.316 94.1856C371.144 93.9189 370.857 93.4792 370.462 92.8973C369.67 91.7289 368.463 90.0136 366.909 87.9908C363.733 83.858 359.425 78.8595 354.536 74.6202C349.476 70.2331 344.999 67.7136 341.532 66.8242Z" fill="white"/>
</g>
<defs>
<clipPath id="clip0_4349_30561">
<rect width="513" height="341.967" fill="white" transform="translate(0 0.966309)"/>
</clipPath>
</defs>
</svg>
