<svg width="513" height="343" viewBox="0 0 513 343" fill="none" xmlns="http://www.w3.org/2000/svg">
<g clip-path="url(#clip0_4349_30544)">
<path d="M0 0.866211H513V342.866H0V0.866211Z" fill="#007C30"/>
<path d="M0 230.866H513V0.866211H0" fill="#CE1720"/>
<path d="M100 230.866V0.866211H0V342.866H513H100V230.866Z" fill="white"/>
<path d="M28.0001 160.466L8.6001 129.066L28.0001 98.2661L47.3001 129.066L28.0001 160.466ZM72.6001 160.466L53.3001 129.066L72.6001 98.2661L92.0001 129.066L72.6001 160.466ZM28.0001 242.066L8.6001 210.666L28.0001 179.866L47.3001 210.666L28.0001 242.066ZM72.6001 242.066L53.3001 210.666L72.6001 179.866L92.0001 210.666L72.6001 242.066Z" fill="#CE1720"/>
<path fill-rule="evenodd" clip-rule="evenodd" d="M28.0092 16.4773L48.1184 48.652L28.0093 81.3294L7.77441 48.6519L28.0092 16.4773ZM72.5908 16.4773L92.8256 48.6519L72.5907 81.3294L52.4816 48.652L72.5908 16.4773ZM16.0256 48.6807L27.9907 68.0032L39.8816 48.6806L27.9908 29.6553L16.0256 48.6807ZM72.6092 29.6553L60.7184 48.6806L72.6093 68.0032L84.5744 48.6807L72.6092 29.6553ZM28.0092 260.577L48.1162 292.748L28.0093 325.548L7.77663 292.748L28.0092 260.577ZM72.5908 260.577L92.8234 292.748L72.5907 325.548L52.4838 292.748L72.5908 260.577ZM16.0234 292.784L27.9907 312.185L39.8838 292.784L27.9908 273.755L16.0234 292.784ZM72.6092 273.755L60.7162 292.784L72.6093 312.185L84.5766 292.784L72.6092 273.755Z" fill="#CE1720"/>
</g>
<defs>
<clipPath id="clip0_4349_30544">
<rect width="513" height="342" fill="white" transform="translate(0 0.866211)"/>
</clipPath>
</defs>
</svg>
