<svg width="513" height="343" viewBox="0 0 513 343" fill="none" xmlns="http://www.w3.org/2000/svg">
<g clip-path="url(#clip0_4349_30533)">
<path d="M0 0.933105H513V342.9H0V0.933105Z" fill="#003E87"/>
<path d="M261.41 291.299C327.204 291.299 380.542 237.962 380.542 172.167C380.542 106.372 327.204 53.0347 261.41 53.0347C195.615 53.0347 142.277 106.372 142.277 172.167C142.277 237.962 195.615 291.299 261.41 291.299Z" fill="white"/>
<path fill-rule="evenodd" clip-rule="evenodd" d="M262.412 88.6865C215.089 88.6865 176.727 127.049 176.727 174.371C176.727 221.693 215.089 260.056 262.412 260.056C309.734 260.056 348.096 221.693 348.096 174.371C348.096 127.049 309.734 88.6865 262.412 88.6865ZM158.727 174.371C158.727 117.108 205.148 70.6865 262.412 70.6865C319.675 70.6865 366.096 117.108 366.096 174.371C366.096 231.635 319.675 278.056 262.412 278.056C205.148 278.056 158.727 231.635 158.727 174.371Z" fill="#6DA544"/>
<path d="M262.412 152.729L211.713 176.175V196.214C211.713 208.037 217.825 219.058 227.945 225.17L262.512 240.4L297.079 225.17C307.099 218.958 313.311 208.037 313.311 196.214V176.175L262.412 152.729Z" fill="#003E87"/>
<path fill-rule="evenodd" clip-rule="evenodd" d="M262.411 152.178L313.811 175.854V196.214C313.811 208.213 307.506 219.294 297.343 225.595L297.313 225.614L262.512 240.946L227.714 225.615L227.686 225.598C217.414 219.394 211.213 208.209 211.213 196.214V175.855L262.411 152.178ZM262.412 153.28L212.213 176.494V196.214C212.213 207.854 218.225 218.702 228.176 224.726L262.512 239.853L296.846 224.727C306.704 218.601 312.811 207.848 312.811 196.214V176.495L262.412 153.28Z" fill="black"/>
<path d="M211.713 129.283H313.211V176.074H211.713V129.283Z" fill="#FFDA44"/>
<path fill-rule="evenodd" clip-rule="evenodd" d="M211.213 128.783H313.711V176.574H211.213V128.783ZM212.213 129.783V175.574H312.711V129.783H212.213Z" fill="black"/>
<path d="M0 0.933105H513V36.0015H0V0.933105ZM0 307.531H513V342.599H0V307.531Z" fill="#CE1127"/>
</g>
<defs>
<clipPath id="clip0_4349_30533">
<rect width="513" height="341.967" fill="white" transform="translate(0 0.933105)"/>
</clipPath>
</defs>
</svg>
