<svg width="513" height="343" viewBox="0 0 513 343" fill="none" xmlns="http://www.w3.org/2000/svg">
<g clip-path="url(#clip0_4349_30523)">
<path d="M0 0.899414H513V342.866H0V0.899414Z" fill="#008000"/>
<path d="M423.525 253.793L429.737 266.618L443.564 263.411L437.352 276.236L448.574 285.053L434.647 288.26V302.487L423.525 293.57L412.404 302.487V288.26L398.577 285.053L409.698 276.236L403.486 263.411L417.413 266.618L423.525 253.793ZM376.834 117.226L383.046 130.152L396.873 126.945L390.661 139.77L401.883 148.587L387.956 151.694V166.021L376.834 157.104L365.713 166.021L365.813 151.694L351.886 148.587L363.007 139.77L356.795 126.945L370.722 130.152L376.834 117.226ZM413.907 39.2744L420.119 52.0994L433.946 48.8932L427.734 61.7182L438.955 70.6355L425.028 73.7416V87.9693L413.907 79.0519L402.785 87.9693L402.885 73.7416L388.958 70.6355L400.08 61.7182L393.868 48.8932L407.795 52.0994L413.907 39.2744ZM465.808 97.7885L472.02 110.613L485.947 107.407L479.635 120.232L490.857 129.15L476.929 132.256L477.03 146.483L465.808 137.566L454.686 146.483L454.786 132.256L440.859 129.15L452.081 120.232L445.769 107.407L459.696 110.613L465.808 97.7885ZM437.753 166.021L442.663 180.85H458.293L445.669 190.068L450.478 204.997L437.753 195.779L425.128 204.997L429.938 190.068L417.313 180.85H432.944L437.753 166.021Z" fill="#FFDA44"/>
<path d="M307.399 256.097C258.103 256.097 218.125 216.119 218.125 166.823C218.125 117.527 258.103 77.5487 307.399 77.5487C322.729 77.5487 337.257 81.4563 349.882 88.2696C330.043 68.9319 302.89 57.0087 273.032 57.0087C212.414 57.0087 163.218 106.205 163.218 166.823C163.218 227.441 212.414 276.737 273.032 276.737C302.89 276.737 330.043 264.814 349.782 245.376C337.157 252.189 322.729 256.097 307.399 256.097ZM140.674 60.5155C129.953 41.9794 109.914 29.5552 86.9695 29.5552C64.0248 29.5552 44.0859 41.9794 33.365 60.5155H140.674ZM140.875 60.9163L86.9695 114.821L33.1646 60.9163C28.0547 69.9339 25.0488 80.3542 25.0488 91.5761C25.0488 125.843 52.8029 153.597 87.0697 153.597C121.337 153.597 149.091 125.843 149.091 91.5761C148.99 80.3542 145.985 69.9339 140.875 60.9163Z" fill="#FFDA44"/>
<path d="M71.5396 99.291V151.593C76.4491 152.896 81.6593 153.497 87.0698 153.497C92.4804 153.497 97.5903 152.795 102.6 151.593V99.291H71.5396Z" fill="#A2001D"/>
</g>
<defs>
<clipPath id="clip0_4349_30523">
<rect width="513" height="341.967" fill="white" transform="translate(0 0.899414)"/>
</clipPath>
</defs>
</svg>
