<svg width="513" height="343" viewBox="0 0 513 343" fill="none" xmlns="http://www.w3.org/2000/svg">
<g clip-path="url(#clip0_4349_30509)">
<path d="M0 0.833008H513V342.8H0V0.833008Z" fill="#D21034"/>
<path d="M0 171.866H211.913V257.333H0V171.866ZM301.087 171.866H513V257.333H301.087V171.866Z" fill="#3A9927"/>
<path d="M0 0.833008V86.2996H211.913V0.833008H301.087V86.2996H513V0.833008H0Z" fill="#003082"/>
<path d="M301.087 86.2996H513V171.766H301.087V86.2996ZM0 86.2996H211.913V171.766H0V86.2996Z" fill="white"/>
<path d="M301.087 342.8H211.913V257.333H0V342.8H513V257.333H301.087V342.8ZM105.906 9.44983L114.523 35.701H142.077L119.733 51.9326L128.35 78.1838L105.906 61.9522L83.5629 78.1838L92.0795 51.9326L69.7359 35.701H97.3898L105.906 9.44983Z" fill="#FFCE00"/>
</g>
<defs>
<clipPath id="clip0_4349_30509">
<rect width="513" height="341.967" fill="white" transform="translate(0 0.833008)"/>
</clipPath>
</defs>
</svg>
