<svg width="513" height="343" viewBox="0 0 513 343" fill="none" xmlns="http://www.w3.org/2000/svg">
<g clip-path="url(#clip0_4349_30454)">
<path d="M0 0.898438H513V342.898H0V0.898438Z" fill="#003893"/>
<path d="M0 183.098H513V224.498H0V183.098Z" fill="#CF2027"/>
<path d="M0 141.698H513V183.098H0V141.698ZM0 224.498H513V265.898H0V224.498Z" fill="white"/>
<path d="M150.4 70.8984L157.3 91.9984H179.5L161.5 105.098L168.4 126.198L150.4 113.098L132.5 126.198L139.3 105.098L121.4 91.9984H143.6L150.4 70.8984ZM150.4 280.598L157.3 301.698H179.5L161.5 314.698L168.4 335.898L150.4 322.798L132.5 335.898L139.3 314.698L121.4 301.698H143.6L150.4 280.598ZM52.8003 209.698L59.7003 230.798H81.9003L63.9003 243.798L70.8003 264.998L52.8003 251.898L34.9003 264.998L41.7003 243.798L23.8003 230.798H46.0003L52.8003 209.698ZM90.1003 91.8984L97.0003 112.998H119.2L101.2 125.998L108.1 147.198L90.1003 134.098L72.2003 147.198L79.0003 125.998L61.0003 112.998H83.3003L90.1003 91.8984ZM23.8003 162.898H46.0003L52.8003 141.798L59.7003 162.898H81.9003L63.9003 175.998L70.8003 197.098L52.8003 184.098L34.9003 197.098L41.7003 175.998L23.8003 162.898ZM72.2003 311.798L79.0003 290.698L61.0003 277.698H83.3003L90.1003 256.498L97.0003 277.698H119.2L101.2 290.698L108.1 311.798L90.1003 298.798L72.2003 311.798ZM248 209.698L241.1 230.798H218.9L236.9 243.798L230 264.998L248 251.898L266 264.998L259.1 243.798L277.1 230.798H254.9L248 209.698ZM210.7 91.8984L203.9 112.998H181.7L199.6 125.998L192.8 147.198L210.7 134.098L228.7 147.198L221.8 125.998L239.8 112.998H217.6L210.7 91.8984ZM277.1 162.898H254.9L248 141.798L241.1 162.898H218.9L236.9 175.998L230 197.098L248 184.098L266 197.098L259.1 175.998L277.1 162.898ZM228.7 311.798L221.8 290.698L239.8 277.698H217.6L210.7 256.498L203.9 277.698H181.7L199.6 290.698L192.8 311.798L210.7 298.798L228.7 311.798Z" fill="#F7D116"/>
<path fill-rule="evenodd" clip-rule="evenodd" d="M150.397 69.2792L157.663 91.4985H181.037L162.088 105.289L169.356 127.512L150.401 113.717L131.551 127.512L138.713 105.289L119.87 91.4985H143.236L150.397 69.2792ZM150.404 72.5177L143.964 92.4985H122.93L139.887 104.908L133.449 124.885L150.399 112.479L167.444 124.884L160.912 104.908L177.963 92.4985H156.938L150.404 72.5177ZM90.0966 90.2792L97.3626 112.498H120.746L101.788 126.19L109.053 148.51L90.1009 134.717L71.2542 148.51L78.4131 126.191L59.4538 112.498H82.9359L90.0966 90.2792ZM210.697 90.2792L217.963 112.498H241.346L222.388 126.19L229.653 148.51L210.701 134.717L191.854 148.51L199.013 126.19L180.161 112.498H203.536L210.697 90.2792ZM90.1035 93.5177L83.6643 113.498H62.5464L79.587 125.806L73.1459 145.887L90.0993 133.479L107.147 145.887L100.612 125.807L117.654 113.498H96.6375L90.1035 93.5177ZM210.704 93.5177L204.264 113.498H183.239L200.187 125.807L193.746 145.887L210.699 133.479L227.747 145.887L221.212 125.807L238.254 113.498H217.238L210.704 93.5177ZM52.7966 140.179L60.0626 162.398H83.4368L64.4883 176.189L71.7528 198.403L52.8009 184.716L33.9542 198.403L41.1134 176.189L22.2702 162.398H45.6359L52.7966 140.179ZM248 140.19L255.263 162.398H278.637L259.688 176.189L266.953 198.403L248 184.715L229.047 198.403L236.312 176.189L217.363 162.398H240.738L248 140.19ZM52.8035 143.418L46.3643 163.398H25.3299L42.2867 175.808L35.8459 195.794L52.7993 183.481L69.8473 195.794L63.3118 175.808L80.3633 163.398H59.3375L52.8035 143.418ZM248 143.407L241.463 163.398H220.437L237.488 175.808L230.953 195.794L248 183.482L265.047 195.794L258.512 175.808L275.563 163.398H254.538L248 143.407ZM52.7966 208.079L60.0626 230.298H83.4464L64.4883 243.99L71.7528 266.31L52.8009 252.517L33.9542 266.31L41.1134 243.99L22.2607 230.298H45.6359L52.7966 208.079ZM248 208.09L255.263 230.298H278.646L259.688 243.99L266.953 266.31L248 252.517L229.047 266.31L236.312 243.99L217.354 230.298H240.738L248 208.09ZM52.8035 211.318L46.3643 231.298H25.3394L42.2867 243.607L35.8459 263.687L52.7993 251.279L69.8473 263.687L63.3118 243.607L80.3538 231.298H59.3375L52.8035 211.318ZM248 211.307L241.463 231.298H220.446L237.488 243.607L230.953 263.687L248 251.28L265.047 263.687L258.512 243.607L275.554 231.298H254.538L248 211.307ZM90.0966 254.872L97.3631 277.198H120.746L101.789 290.89L109.053 313.103L90.1009 299.416L71.2542 313.103L78.4127 290.891L59.4538 277.198H82.9354L90.0966 254.872ZM210.697 254.872L217.963 277.198H241.346L222.389 290.89L229.653 313.103L210.701 299.416L191.854 313.103L199.013 290.89L180.161 277.198H203.535L210.697 254.872ZM90.1035 258.125L83.6648 278.198H62.5464L79.5875 290.506L73.1459 310.494L90.0993 298.181L107.147 310.494L100.611 290.507L117.654 278.198H96.637L90.1035 258.125ZM210.704 258.125L204.265 278.198H183.239L200.187 290.507L193.746 310.494L210.699 298.181L227.747 310.494L221.211 290.507L238.254 278.198H217.237L210.704 258.125ZM150.397 278.979L157.663 301.198H181.046L162.088 314.89L169.353 337.21L150.401 323.417L131.554 337.21L138.713 314.89L119.861 301.198H143.236L150.397 278.979ZM150.404 282.218L143.964 302.198H122.939L139.887 314.507L133.446 334.587L150.399 322.179L167.447 334.587L160.912 314.507L177.954 302.198H156.938L150.404 282.218Z" fill="black"/>
</g>
<defs>
<clipPath id="clip0_4349_30454">
<rect width="513" height="342" fill="white" transform="translate(0 0.898438)"/>
</clipPath>
</defs>
</svg>
