<svg width="513" height="343" viewBox="0 0 513 343" fill="none" xmlns="http://www.w3.org/2000/svg">
<g clip-path="url(#clip0_4349_30441)">
<path d="M0 0.966797H513V342.933H0V0.966797Z" fill="#0021AD"/>
<path d="M0 0.966797H513V342.933" fill="#1C8A42"/>
<path d="M77.7517 273.498L83.4628 285.421L96.2878 282.415L90.5767 294.338L100.897 302.454L88.0718 305.36V318.586L77.7517 310.27L67.5317 318.586V305.36L54.7067 302.454L65.0269 294.338L59.2155 282.415L72.1407 285.421L77.7517 273.498ZM40.5792 174.405L46.2903 186.328L59.1153 183.322L53.4042 195.145L63.7243 203.361L50.7991 206.267L50.8993 219.493L40.5792 211.176L30.2591 219.493L30.3593 206.267L17.4341 203.361L27.8544 195.145L22.0431 183.322L34.8681 186.328L40.5792 174.405ZM77.7517 93.3467L83.4628 105.17L96.2878 102.264L90.5767 114.087L100.897 122.303L88.0718 125.209V138.334L77.7517 130.118L67.5317 138.334V125.209L54.7067 122.303L65.0269 114.087L59.2155 102.264L72.1407 105.17L77.7517 93.3467ZM123.942 156.37L129.653 168.293L142.478 165.287L136.767 177.21L147.087 185.326L134.262 188.232V201.457L123.942 193.241L113.722 201.457V188.232L100.897 185.326L111.217 177.21L105.506 165.287L118.331 168.293L123.942 156.37ZM90.9774 210.475L95.386 224.202H109.914L98.1915 232.718L102.7 246.445L90.9774 238.029L79.2546 246.445L83.7634 232.718L72.0405 224.202H86.4686L90.9774 210.475Z" fill="white"/>
<path d="M267.622 246.646C308.847 246.646 342.267 213.226 342.267 172C342.267 130.774 308.847 97.3545 267.622 97.3545C226.396 97.3545 192.976 130.774 192.976 172C192.976 213.226 226.396 246.646 267.622 246.646Z" fill="#FFC639"/>
<path d="M267.622 221.697H292.47C292.47 221.697 303.291 202.66 292.47 184.424L317.319 159.576L304.894 134.728H292.47C292.47 134.728 286.258 153.364 261.41 153.364C236.561 153.364 230.349 134.728 230.349 134.728H217.925L230.349 159.576L217.925 184.424L230.349 196.849C230.349 196.849 242.773 172 267.622 184.424C267.622 184.424 278.142 199.955 267.622 221.697Z" fill="#1C8A42"/>
<path d="M465.307 93.3471C465.908 90.4414 465.107 75.7127 465.107 72.6066C465.107 51.265 451.179 33.1297 431.842 26.8174C437.753 38.8408 441.06 52.267 441.06 66.5949C441.06 71.4043 440.659 76.1135 439.958 80.7225C437.052 76.0133 433.345 71.8051 428.736 68.0979C411.602 54.4713 388.056 54.0705 370.723 65.593C384.149 68.4986 397.074 74.5104 408.496 83.6281C417.514 90.742 424.728 100.461 430.239 109.779C430.239 109.779 412.404 120.7 399.178 124.909C385.952 129.117 356.795 132.824 356.795 132.824C428.936 144.847 489.053 96.7537 489.053 96.7537C482.541 83.3275 473.222 92.7459 465.307 93.3471Z" fill="#FFC639"/>
</g>
<defs>
<clipPath id="clip0_4349_30441">
<rect width="513" height="341.967" fill="white" transform="translate(0 0.966797)"/>
</clipPath>
</defs>
</svg>
