<svg width="513" height="343" viewBox="0 0 513 343" fill="none" xmlns="http://www.w3.org/2000/svg">
<g clip-path="url(#clip0_4349_30434)">
<path d="M0 0.898438H513V342.898H0V0.898438Z" fill="white"/>
<path d="M141.7 155.598C141.7 155.598 141.9 222.698 216.4 220.898L220.9 234.798H229.8C229.8 234.798 222.4 193.698 289.9 193.298C289.9 193.298 289.9 165.698 317.5 165.698H359C359 165.698 293 113.898 417.9 47.6984L419.7 34.5984C419.7 34.5984 289.8 105.598 220.8 91.7984C220.8 91.7984 231.5 134.298 210 134.298C199.2 134.298 200.3 126.198 177.7 126.198C159 126.198 160.4 145.898 151.4 145.698C142.5 145.498 132.6 133.398 131.8 135.498C131.1 137.598 141.7 155.598 141.7 155.598Z" fill="#DB7D00"/>
<path d="M237.2 308.998C244.1 303.998 250.2 302.398 259.6 300.698C269 298.998 279 296.298 284.2 294.898C289.4 293.498 266.5 301.498 260.7 303.198C254.9 304.798 237.2 308.998 237.2 308.998ZM275.1 294.298C273.2 282.398 277.9 269.998 288.6 264.998C291.1 273.598 283.4 288.198 275.1 294.298ZM293.3 288.098C287.5 278.298 297.3 265.498 304.4 259.298C307.7 265.298 301.9 282.998 293.3 288.098ZM310.2 280.498C304 272.098 311.3 257.298 319 251.498C322.1 259.698 319.1 274.698 310.2 280.498ZM327.1 269.898C321.5 261.898 325.4 249.498 333.4 241.498C339.2 248.098 334.3 262.498 327.1 269.898ZM340.6 259.198C335.9 251.698 341.7 233.798 349.2 228.798C352.5 235.398 350 254.198 340.6 259.198ZM351.4 256.398C350 245.598 368.8 233.698 376.6 233.998C375.7 242.898 367.7 252.598 351.4 256.398ZM340.9 268.598C349.7 259.498 366.9 259.498 373 261.398C371.3 266.698 351.1 278.298 340.9 268.598Z" fill="#006651"/>
<path d="M328.7 277.698C341.1 274.398 349.2 271.598 356.6 279.398C351.4 285.998 331.2 284.098 328.7 277.698ZM311 285.698C322.9 279.298 337.3 288.698 339.5 294.298C326.2 299.798 310.8 287.098 311 285.698ZM294.7 294.898C305.5 290.798 317.9 296.298 322.9 302.398C317.1 305.098 301.9 308.098 294.7 294.898ZM279.8 299.598C292.2 298.198 304.2 307.598 306.8 312.998C290.9 314.498 284.8 309.798 279.8 299.598ZM275.8 308.998C268.9 303.998 262.8 302.398 253.4 300.698C244 298.998 234 296.298 228.8 294.898C223.5 293.498 246.5 301.498 252.3 303.198C258.1 304.798 275.8 308.998 275.8 308.998ZM237.9 294.298C239.8 282.398 235.1 269.998 224.4 264.998C221.9 273.598 229.6 288.198 237.9 294.298ZM219.7 288.098C225.5 278.298 215.7 265.498 208.6 259.298C205.3 265.298 211.1 282.998 219.7 288.098ZM202.8 280.498C209 272.098 201.7 257.298 194 251.498C190.9 259.698 193.9 274.698 202.8 280.498ZM185.9 269.898C191.5 261.898 187.6 249.498 179.6 241.498C173.8 248.098 178.7 262.498 185.9 269.898ZM172.4 259.198C177.1 251.698 171.3 233.798 163.8 228.798C160.5 235.398 163 254.198 172.4 259.198ZM161.6 256.398C163 245.598 144.2 233.698 136.4 233.998C137.3 242.898 145.3 252.598 161.6 256.398ZM172.1 268.598C163.3 259.498 146.1 259.498 140 261.398C141.7 266.698 161.9 278.298 172.1 268.598Z" fill="#006651"/>
<path d="M184.3 277.698C171.9 274.398 163.8 271.598 156.4 279.398C161.6 285.998 181.8 284.098 184.3 277.698ZM202 285.698C190.1 279.298 175.7 288.698 173.5 294.298C186.8 299.798 202.2 287.098 202 285.698ZM218.3 294.898C207.5 290.798 195.1 296.298 190.1 302.398C195.9 305.098 211.1 308.098 218.3 294.898ZM233.2 299.598C220.8 298.198 208.8 307.598 206.2 312.998C222.1 314.498 228.2 309.798 233.2 299.598Z" fill="#006651"/>
</g>
<defs>
<clipPath id="clip0_4349_30434">
<rect width="513" height="342" fill="white" transform="translate(0 0.898438)"/>
</clipPath>
</defs>
</svg>
