<svg width="513" height="343" viewBox="0 0 513 343" fill="none" xmlns="http://www.w3.org/2000/svg">
<g clip-path="url(#clip0_4349_30391)">
<path d="M0 0.966797H513V342.933H0V0.966797Z" fill="white"/>
<path d="M0 216.587H211.913V342.933H0V216.587Z" fill="#D80027"/>
<path d="M0 0.966797H211.913V127.413H0V0.966797Z" fill="#0052B4"/>
<path d="M301.087 0.966797H513V127.413H301.087V0.966797Z" fill="#D80027"/>
<path d="M301.087 216.587H513V342.933H301.087V216.587Z" fill="#0052B4"/>
<path d="M256.5 131.221H206.502V180.717C206.502 180.717 226.041 186.729 256.5 186.729V131.221Z" fill="#0052B4"/>
<path fill-rule="evenodd" clip-rule="evenodd" d="M204.002 128.721H259V189.229H256.5C241.107 189.229 228.464 187.71 219.653 186.186C215.247 185.425 211.797 184.661 209.438 184.085C208.259 183.797 207.352 183.556 206.734 183.385C206.426 183.299 206.189 183.232 206.027 183.184C205.947 183.16 205.884 183.142 205.841 183.129L205.79 183.113L205.775 183.109L205.768 183.107C205.768 183.107 205.767 183.107 206.502 180.717L205.767 183.107L204.002 182.564V128.721ZM209.002 178.818C209.458 178.937 210 179.075 210.624 179.228C212.881 179.779 216.219 180.519 220.505 181.26C228.599 182.659 240.064 184.063 254 184.215V133.721H209.002V178.818Z" fill="white"/>
<path d="M206.502 180.717V186.729C206.502 214.283 228.846 236.726 256.5 236.726V186.729C226.041 186.729 206.502 180.717 206.502 180.717Z" fill="#D80027"/>
<path fill-rule="evenodd" clip-rule="evenodd" d="M209.002 183.978V186.729C209.002 212.07 228.896 232.86 254 234.162V189.216C239.736 189.063 227.982 187.627 219.653 186.187C215.247 185.425 211.797 184.661 209.438 184.085C209.288 184.049 209.143 184.013 209.002 183.978ZM207.238 178.328L207.244 178.33L207.278 178.34C207.31 178.35 207.362 178.365 207.431 178.385C207.57 178.426 207.783 178.487 208.069 178.566C208.639 178.724 209.496 178.953 210.624 179.228C212.881 179.779 216.219 180.519 220.505 181.26C229.078 182.742 241.433 184.229 256.5 184.229H259V239.227H256.5C227.462 239.227 204.002 215.66 204.002 186.729V177.333L207.238 178.328Z" fill="white"/>
<path d="M256.5 236.726C284.054 236.726 306.497 214.383 306.497 186.729V180.717C306.497 180.717 286.959 186.729 256.5 186.729V236.726Z" fill="#0052B4"/>
<path fill-rule="evenodd" clip-rule="evenodd" d="M308.997 177.333V186.729C308.997 215.767 285.431 239.227 256.5 239.227V236.727H254V184.229H256.5C271.567 184.229 283.922 182.742 292.495 181.26C296.781 180.519 300.119 179.779 302.376 179.228C303.504 178.953 304.361 178.724 304.931 178.566C305.216 178.487 305.43 178.426 305.569 178.385C305.638 178.365 305.689 178.35 305.722 178.34L305.756 178.33L305.762 178.328L305.763 178.328L308.997 177.333ZM259 234.162C284.02 232.861 303.997 212.158 303.997 186.729V183.978C303.857 184.013 303.711 184.049 303.562 184.085C301.203 184.661 297.753 185.425 293.347 186.187C285.018 187.627 273.264 189.063 259 189.216V234.162Z" fill="white"/>
<path d="M256.5 131.221V186.729C286.959 186.729 306.497 180.717 306.497 180.717V131.221H256.5Z" fill="#D80027"/>
<path fill-rule="evenodd" clip-rule="evenodd" d="M254 128.721H308.997V182.564L307.233 183.107L306.497 180.717C307.233 183.107 307.232 183.107 307.231 183.107L307.225 183.109L307.21 183.113L307.159 183.129C307.116 183.142 307.053 183.16 306.972 183.184C306.811 183.232 306.574 183.299 306.266 183.385C305.648 183.556 304.741 183.797 303.562 184.085C301.203 184.661 297.753 185.425 293.347 186.186C284.536 187.71 271.893 189.229 256.5 189.229H254V128.721ZM303.997 178.818V133.721H259V184.215C272.936 184.063 284.401 182.659 292.495 181.26C296.781 180.519 300.119 179.779 302.376 179.228C303 179.075 303.542 178.937 303.997 178.818Z" fill="white"/>
</g>
<defs>
<clipPath id="clip0_4349_30391">
<rect width="513" height="341.967" fill="white" transform="translate(0 0.966797)"/>
</clipPath>
</defs>
</svg>
