<svg width="513" height="343" viewBox="0 0 513 343" fill="none" xmlns="http://www.w3.org/2000/svg">
<g clip-path="url(#clip0_4349_30385)">
<path d="M0 0.933105H513V342.9H0V0.933105Z" fill="#41662E"/>
<path d="M256.5 0.933105H513V342.9H256.5V0.933105Z" fill="white"/>
<path d="M342.167 106.438L312.71 146.917L265.117 131.487L294.574 171.966L265.117 212.445L312.71 197.015L342.167 237.494V187.396L389.76 171.866L342.167 156.436V106.438Z" fill="#D80027"/>
<path d="M310.505 278.173C251.891 278.173 204.298 230.581 204.298 171.966C204.298 113.352 251.891 65.7593 310.505 65.7593C328.841 65.7593 345.974 70.3683 361.004 78.4841C337.458 55.4392 305.195 41.2114 269.626 41.2114C197.485 41.2114 138.971 99.7255 138.971 171.866C138.971 244.007 197.485 302.521 269.626 302.521C305.195 302.521 337.458 288.293 361.004 265.248C346.075 273.464 328.841 278.173 310.505 278.173Z" fill="#D80027"/>
</g>
<defs>
<clipPath id="clip0_4349_30385">
<rect width="513" height="341.967" fill="white" transform="translate(0 0.933105)"/>
</clipPath>
</defs>
</svg>
