<svg width="513" height="343" viewBox="0 0 513 343" fill="none" xmlns="http://www.w3.org/2000/svg">
<g clip-path="url(#clip0_4349_30377)">
<path d="M0 0.899414H513V342.866H0V0.899414Z" fill="#FFDA44"/>
<path d="M0 171.933H513V257.399H0V171.933Z" fill="#0052B4"/>
<path d="M0 257.399H513V342.866H0V257.399Z" fill="#D80027"/>
<path d="M256.5 231.449C289.37 231.449 316.016 204.803 316.016 171.933C316.016 139.063 289.37 112.417 256.5 112.417C223.63 112.417 196.984 139.063 196.984 171.933C196.984 204.803 223.63 231.449 256.5 231.449Z" fill="#FFDA44"/>
<path d="M369.921 80.9554C369.921 80.9554 342.668 67.1285 335.955 64.9242C329.242 62.7199 286.759 51.6984 286.759 57.9105C286.759 68.2306 273.233 69.934 271.229 69.934C269.225 69.934 269.225 64.6236 256.4 64.6236C243.575 64.6236 242.673 69.433 240.569 69.433C238.365 69.433 226.041 68.431 226.041 57.9105C226.041 52.7004 183.057 61.9183 176.845 64.9242C170.733 68.0302 142.878 80.9554 142.878 80.9554C142.878 80.9554 188.768 83.6607 196.884 87.1675C205 90.6744 240.769 103.7 240.769 103.7L237.964 117.026H275.838L272.03 103.7C272.03 103.7 307.199 90.975 315.916 87.1675C324.633 83.3601 369.921 80.9554 369.921 80.9554Z" fill="#4C1F00"/>
<path d="M218.125 172.935C218.125 194.076 235.359 211.309 256.5 211.309C277.641 211.309 294.875 194.076 294.875 172.935V161.412H218.225V172.935H218.125Z" fill="#57BA17"/>
<path d="M256.5 111.615C235.359 111.615 218.125 128.849 218.125 149.99V161.513H294.775V149.99C294.875 128.849 277.641 111.615 256.5 111.615Z" fill="#338AF3"/>
</g>
<defs>
<clipPath id="clip0_4349_30377">
<rect width="513" height="341.967" fill="white" transform="translate(0 0.899414)"/>
</clipPath>
</defs>
</svg>
