<svg width="513" height="343" viewBox="0 0 513 343" fill="none" xmlns="http://www.w3.org/2000/svg">
<g clip-path="url(#clip0_4349_30368)">
<path d="M0 0.866211H513V342.833H0V0.866211Z" fill="white"/>
<path d="M0 0.866211H513V114.888H0V0.866211Z" fill="#D80027"/>
<path d="M0 228.911H513V342.933H0V228.911Z" fill="black"/>
<path d="M220.73 205.665C220.73 205.665 220.73 147.151 225.239 140.839C228.345 136.53 242.072 146.049 247.983 145.348C247.983 145.348 252.192 137.833 252.492 133.324C252.793 128.715 251.39 125.709 247.583 127.112C247.583 127.112 246.38 125.008 248.084 123.806C249.687 122.603 253.694 123.906 253.694 123.906C253.694 123.906 253.194 122.904 255.298 123.004C258.203 123.205 262.512 124.407 262.712 128.615C262.912 131.721 263.013 136.33 263.113 137.332C263.814 144.145 265.818 146.049 265.818 146.049C265.818 146.049 284.254 136.831 287.861 140.839C291.168 144.646 292.37 205.665 292.37 205.665L274.235 188.832L286.358 218.39C286.358 218.39 271.93 220.795 257.402 220.795C242.873 220.795 226.241 216.587 226.241 216.587L240.068 188.331L220.73 205.665Z" fill="#C09300"/>
</g>
<defs>
<clipPath id="clip0_4349_30368">
<rect width="513" height="341.967" fill="white" transform="translate(0 0.866211)"/>
</clipPath>
</defs>
</svg>
