<svg width="513" height="343" viewBox="0 0 513 343" fill="none" xmlns="http://www.w3.org/2000/svg">
<g clip-path="url(#clip0_4349_30361)">
<path d="M0 0.833008H513V342.8H0V0.833008Z" fill="white"/>
<path d="M0 0.833008H513V114.855H0V0.833008Z" fill="black"/>
<path d="M0 228.877H513V342.9H0V228.877Z" fill="#428823"/>
<path d="M256.5 171.866L0 342.8V0.833008L256.5 171.866ZM309.704 171.866C309.704 148.922 322.829 129.684 344.371 124.975C341.065 124.274 337.658 123.873 334.051 123.873C307.6 123.873 286.058 145.315 286.058 171.866C286.058 198.418 307.499 219.86 334.051 219.86C337.558 219.86 341.065 219.459 344.371 218.758C322.829 213.948 309.704 194.811 309.704 171.866Z" fill="#D80027"/>
<path d="M365.713 130.285L376.033 162.047H409.398L382.345 181.685L392.665 213.447L365.713 193.809L338.66 213.447L348.98 181.685L321.927 162.047H355.393L365.713 130.285Z" fill="#D80027"/>
</g>
<defs>
<clipPath id="clip0_4349_30361">
<rect width="513" height="341.967" fill="white" transform="translate(0 0.833008)"/>
</clipPath>
</defs>
</svg>
