<svg width="513" height="343" viewBox="0 0 513 343" fill="none" xmlns="http://www.w3.org/2000/svg">
<g clip-path="url(#clip0_4349_30348)">
<path d="M0 0.799316H513V342.766H0V0.799316Z" fill="#338AF3"/>
<path d="M0 0.799316H513V171.833H0V0.799316Z" fill="#56AF35"/>
<path d="M0 342.766L513 171.733L0 0.799316V342.766Z" fill="#D80027"/>
<path d="M134.963 232.752C168.629 232.752 195.882 205.498 195.882 171.833C195.882 138.167 168.629 110.914 134.963 110.914C101.297 110.914 74.0443 138.167 74.0443 171.833C74.0443 205.498 101.297 232.752 134.963 232.752ZM134.963 257.099C87.8713 257.099 49.5967 218.925 49.5967 171.733C49.5967 124.541 87.7711 86.3662 134.963 86.3662C182.155 86.3662 220.329 124.541 220.329 171.733C220.329 218.925 182.055 257.099 134.963 257.099Z" fill="#FFC945"/>
<path d="M119.733 166.923C129.417 166.923 137.268 159.073 137.268 149.389C137.268 139.705 129.417 131.855 119.733 131.855C110.05 131.855 102.199 139.705 102.199 149.389C102.199 159.073 110.05 166.923 119.733 166.923Z" fill="#FFC945"/>
<path d="M149.191 177.143C158.875 177.143 166.725 169.293 166.725 159.609C166.725 149.925 158.875 142.075 149.191 142.075C139.507 142.075 131.657 149.925 131.657 159.609C131.657 169.293 139.507 177.143 149.191 177.143Z" fill="#FFC945"/>
<path d="M134.963 153.798C144.647 153.798 152.497 145.948 152.497 136.264C152.497 126.58 144.647 118.729 134.963 118.729C125.279 118.729 117.429 126.58 117.429 136.264C117.429 145.948 125.279 153.798 134.963 153.798Z" fill="#FFC945"/>
<path d="M119.733 191.371C129.417 191.371 137.268 183.521 137.268 173.837C137.268 164.153 129.417 156.303 119.733 156.303C110.05 156.303 102.199 164.153 102.199 173.837C102.199 183.521 110.05 191.371 119.733 191.371Z" fill="#FFC945"/>
<path d="M150.193 201.491C159.877 201.491 167.727 193.64 167.727 183.957C167.727 174.273 159.877 166.422 150.193 166.422C140.509 166.422 132.659 174.273 132.659 183.957C132.659 193.64 140.509 201.491 150.193 201.491Z" fill="#FFC945"/>
<path d="M122.739 216.72C132.423 216.72 140.273 208.87 140.273 199.186C140.273 189.502 132.423 181.652 122.739 181.652C113.055 181.652 105.205 189.502 105.205 199.186C105.205 208.87 113.055 216.72 122.739 216.72Z" fill="#FFC945"/>
<path d="M146.185 223.935C155.869 223.935 163.719 216.084 163.719 206.4C163.719 196.717 155.869 188.866 146.185 188.866C136.501 188.866 128.651 196.717 128.651 206.4C128.651 216.084 136.501 223.935 146.185 223.935Z" fill="#FFC945"/>
</g>
<defs>
<clipPath id="clip0_4349_30348">
<rect width="513" height="341.967" fill="white" transform="translate(0 0.799316)"/>
</clipPath>
</defs>
</svg>
