<svg width="513" height="343" viewBox="0 0 513 343" fill="none" xmlns="http://www.w3.org/2000/svg">
<g clip-path="url(#clip0_4349_30341)">
<path d="M0 1.00586H512V343.006H0V1.00586Z" fill="white"/>
<path d="M0 1.00586H512V92.2059H0V1.00586ZM0 251.806H512V343.006H0V251.806Z" fill="#D03433"/>
<path d="M0 92.0059H512V252.006H0V92.0059Z" fill="#FBCA46"/>
<path d="M177.493 160.606H200.249V172.006H177.493V160.606Z" fill="white"/>
<path d="M163.84 194.806C163.84 201.646 170.667 206.206 177.493 206.206C184.32 206.206 191.147 201.646 191.147 194.806L193.422 160.606H161.565L163.84 194.806ZM150.187 160.606C150.187 153.766 154.738 149.206 159.289 149.206H193.422C200.249 149.206 204.8 153.766 204.8 158.326V160.606L202.525 194.806C200.249 208.486 191.147 217.606 177.493 217.606C163.84 217.606 154.738 208.486 152.462 194.806L150.187 160.606Z" fill="#A41517"/>
<path d="M154.738 172.006H200.249V183.406H188.871L177.493 206.206L166.116 183.406H154.738V172.006ZM120.604 137.806H143.36V217.606H120.604V137.806ZM211.627 137.806H234.382V217.606H211.627V137.806ZM154.738 126.406C154.738 119.566 159.289 115.006 166.116 115.006H188.871C195.698 115.006 200.249 119.566 200.249 126.406V130.966C200.249 135.526 197.973 137.806 193.422 137.806H159.289C157.013 137.806 154.738 135.526 154.738 133.246V126.406Z" fill="#A41517"/>
</g>
<defs>
<clipPath id="clip0_4349_30341">
<rect width="513" height="342" fill="white" transform="translate(0 0.765625)"/>
</clipPath>
</defs>
</svg>
