<svg width="513" height="343" viewBox="0 0 513 343" fill="none" xmlns="http://www.w3.org/2000/svg">
<g clip-path="url(#clip0_4349_30331)">
<path d="M0 0.765137H513V114.765H0V0.765137Z" fill="#20AA46"/>
<path d="M0 228.765H513V342.765H0V228.765Z" fill="#E92F3B"/>
<path d="M0 114.765H513V228.765H0V114.765Z" fill="#FADF50"/>
<path d="M257.642 290.325C323.121 290.325 376.202 237.244 376.202 171.765C376.202 106.286 323.121 53.2048 257.642 53.2048C192.163 53.2048 139.082 106.286 139.082 171.765C139.082 237.244 192.163 290.325 257.642 290.325Z" fill="#205CCA"/>
<path fill-rule="evenodd" clip-rule="evenodd" d="M257.64 93.4836L276.058 146.435H335.94L288.674 180.196L289.793 183.074L289.327 183.255L288.254 180.496L287.576 180.981L306 236.255L257.64 201.712L209.28 236.255L227.706 180.977L181.65 146.435H239.22L241.443 139.766L241.532 139.795L257.64 93.4836ZM239.752 146.435L257.64 95.0056L275.393 146.045L273.833 142.034L273.367 142.215L275.008 146.435H239.752ZM275.202 146.935H239.58L228.433 180.376L255.513 201.206L255.208 201.603L228.266 180.878L210.24 234.954L250.809 205.977L250.659 205.759L287.135 180.681L287.139 180.679L288.067 180.015L275.202 146.935ZM288.487 179.715L334.38 146.935H275.739L288.487 179.715ZM287.148 181.279L257.974 201.336L305.04 234.954L287.148 181.279ZM225.595 178.768L225.873 178.406L228.014 180.053L239.053 146.935H183.15L225.595 178.768Z" fill="#FFDB3D"/>
<path fill-rule="evenodd" clip-rule="evenodd" d="M291.736 123.819L314.536 87.3386L314.748 87.4711L291.948 123.951L291.736 123.819ZM223.339 126.236L198.259 89.7557L198.465 89.6141L223.545 126.094L223.339 126.236ZM161.837 205.848L202.877 189.888L202.968 190.121L161.928 206.081L161.837 205.848ZM312.408 189.888L353.448 205.848L353.357 206.081L312.317 190.121L312.408 189.888ZM257.767 231.045V274.365H257.517V231.045H257.767Z" fill="#FFDB3D"/>
</g>
<defs>
<clipPath id="clip0_4349_30331">
<rect width="513" height="342" fill="white" transform="translate(0 0.765137)"/>
</clipPath>
</defs>
</svg>
