<svg width="513" height="343" viewBox="0 0 513 343" fill="none" xmlns="http://www.w3.org/2000/svg">
<g clip-path="url(#clip0_4349_30328)">
<path d="M0 0.765137H513V342.765H0V0.765137Z" fill="#003399"/>
<path d="M256.469 38.6797L260.735 51.8011H274.601L263.433 59.9153L267.637 73.0507L256.469 64.9364L245.301 73.0507L249.567 59.9223L238.399 51.8081H252.204L256.469 38.6797ZM199.469 53.8797L203.735 67.0011H217.601L206.433 75.1153L210.637 88.2507L199.469 80.1364L188.301 88.2507L192.567 75.1223L181.399 67.008H195.204L199.469 53.8797ZM157.669 95.6797L161.935 108.801H175.801L164.633 116.915L168.837 130.051L157.669 121.936L146.501 130.051L150.767 116.922L139.599 108.808H153.404L157.669 95.6797ZM142.469 152.679L146.735 165.801H160.601L149.433 173.916L153.637 187.051L142.469 178.936L131.301 187.051L135.567 173.922L124.399 165.808H138.204L142.469 152.679ZM157.669 209.68L161.935 222.802H175.801L164.633 230.915L168.837 244.051L157.669 235.937L146.501 244.051L150.767 230.922L139.599 222.808H153.404L157.669 209.68ZM199.469 251.48L203.735 264.602H217.601L206.433 272.715L210.637 285.851L199.469 277.737L188.301 285.851L192.567 272.722L181.399 264.608H195.204L199.469 251.48ZM313.469 53.8797L317.735 67.0011H331.601L320.433 75.1153L324.637 88.2507L313.469 80.1364L302.3 88.2507L306.567 75.1223L295.399 67.008H309.203L313.469 53.8797ZM355.269 95.6797L359.535 108.801H373.401L362.233 116.915L366.437 130.051L355.269 121.936L344.1 130.051L348.367 116.922L337.199 108.808H351.003L355.269 95.6797ZM370.469 152.68L374.735 165.801H388.601L377.433 173.916L381.637 187.051L370.469 178.936L359.301 187.051L363.567 173.922L352.399 165.808H366.204L370.469 152.68ZM355.269 209.68L359.535 222.802H373.401L362.233 230.915L366.437 244.051L355.269 235.937L344.101 244.051L348.367 230.922L337.199 222.808H351.004L355.269 209.68ZM256.469 266.68L260.735 279.802H274.601L263.433 287.915L267.637 301.051L256.469 292.937L245.301 301.051L249.567 287.922L238.399 279.808H252.204L256.469 266.68ZM313.469 251.479L317.735 264.601H331.601L320.433 272.715L324.638 285.851L313.469 277.736L302.301 285.851L306.567 272.722L295.399 264.608H309.204L313.469 251.479Z" fill="#FFCC00"/>
</g>
<defs>
<clipPath id="clip0_4349_30328">
<rect width="513" height="342" fill="white" transform="translate(0 0.765137)"/>
</clipPath>
</defs>
</svg>
