<svg width="513" height="343" viewBox="0 0 513 343" fill="none" xmlns="http://www.w3.org/2000/svg">
<g clip-path="url(#clip0_4349_30316)">
<path d="M0 0.731934H513V342.699H0V0.731934Z" fill="#2E52B2"/>
<path d="M256.5 0.731934V23.3761L210.31 54.136H256.5V118.261H210.31L256.5 149.021V171.765H233.856L160.312 122.67V171.765H96.1875V122.67L22.6441 171.765H0V149.021L46.19 118.261H0V54.136H46.19L0 23.3761V0.731934H22.6441L96.1875 49.7274V0.731934H160.312V49.7274L233.856 0.731934H256.5Z" fill="white"/>
<path d="M144.281 0.731934H112.219V70.1673H0V102.23H112.219V171.765H144.281V102.23H256.5V70.1673H144.281V0.731934Z" fill="#D80027"/>
<path d="M0 0.731934V15.8614L57.5121 54.136H80.1562L0 0.731934ZM256.5 0.731934V15.8614L198.988 54.136H176.344L256.5 0.731934Z" fill="#D80027"/>
<path d="M0 0.731934V15.8614L57.5121 54.136H80.1562L0 0.731934ZM256.5 0.731934V15.8614L198.988 54.136H176.344L256.5 0.731934ZM0 171.765V156.636L57.5121 118.261H80.1562L0 171.765ZM256.5 171.765V156.636L198.988 118.261H176.344L256.5 171.765Z" fill="#D80027"/>
<path d="M307.7 128.08V220.26C307.7 281.98 388.357 300.917 388.357 300.917C388.357 300.917 468.914 281.88 468.914 220.16V127.98L388.257 104.935L307.7 128.08Z" fill="#F3F3F3"/>
<path d="M468.914 133.791V99.2239H307.7V133.791H376.834V202.926H307.7V225.971H376.834V297.31C383.748 299.815 388.357 300.817 388.357 300.817C388.357 300.817 392.966 299.715 399.879 297.31V225.971H469.014V202.926H399.879V133.791H468.914Z" fill="#D80027"/>
</g>
<defs>
<clipPath id="clip0_4349_30316">
<rect width="513" height="341.967" fill="white" transform="translate(0 0.731934)"/>
</clipPath>
</defs>
</svg>
