<svg width="513" height="343" viewBox="0 0 513 343" fill="none" xmlns="http://www.w3.org/2000/svg">
<g clip-path="url(#clip0_4349_30300)">
<path d="M0 0.698242H513V342.665H0V0.698242Z" fill="#0052B4"/>
<path d="M256.5 0.698242V31.358L211.212 56.507H256.5V115.923H197.285L256.5 148.787V171.732H229.748L156.104 130.752V171.732H100.396V123.037L12.7248 171.732H0V141.072L45.2883 115.923H0V56.507H59.2154L0 23.5428V0.698242H26.7521L100.396 41.5779V0.698242H156.104V49.3932L243.775 0.698242H256.5Z" fill="white"/>
<path d="M144.281 0.698242H112.219V70.1336H0V102.196H112.219V171.732H144.281V102.196H256.5V70.1336H144.281V0.698242Z" fill="#D80027"/>
<path d="M156.104 115.923L256.5 171.732V155.901L184.56 115.923H156.104Z" fill="#0052B4"/>
<path d="M156.104 115.923L256.5 171.732V155.901L184.56 115.923H156.104Z" fill="white"/>
<path d="M156.104 115.923L256.5 171.732V155.901L184.56 115.923H156.104ZM71.9402 115.923L0 155.901V171.732L100.396 115.923H71.9402Z" fill="#D80027"/>
<path d="M100.396 56.4068L0 0.698242V16.4289L71.9402 56.4068H100.396Z" fill="#0052B4"/>
<path d="M100.396 56.4068L0 0.698242V16.4289L71.9402 56.4068H100.396Z" fill="white"/>
<path d="M100.396 56.4068L0 0.698242V16.4289L71.9402 56.4068H100.396ZM184.56 56.4068L256.5 16.4289V0.698242L156.104 56.4068H184.56Z" fill="#D80027"/>
<path d="M312.81 195.278V105.102C312.81 96.5852 319.323 89.7719 327.839 89.7719H448.574C456.891 89.7719 463.604 96.5852 463.604 105.102V195.278C463.604 270.624 388.257 300.783 388.257 300.783C388.257 300.783 312.81 270.624 312.81 195.278Z" fill="#1F8BDE"/>
<path d="M312.81 195.278V105.102C312.81 96.5852 319.323 89.7719 327.839 89.7719H448.574C456.891 89.7719 463.604 96.5852 463.604 105.102V195.278C463.604 270.624 388.257 300.783 388.257 300.783C388.257 300.783 312.81 270.624 312.81 195.278ZM392.565 281.746C400.481 277.237 408.496 271.727 415.811 265.013C436.351 246.477 448.474 223.533 448.474 195.177V105.002C448.474 104.701 327.839 104.701 327.839 104.701V195.177C327.839 223.533 339.963 246.477 360.503 265.013C368.819 272.528 378.137 278.941 388.157 284.051C389.559 283.449 390.962 282.648 392.565 281.746Z" fill="white"/>
<path d="M347.778 194.476C345.173 186.561 349.481 180.148 357.898 180.148H418.516C426.732 180.148 431.341 186.46 428.635 194.476L423.125 211.008C420.52 218.924 414.207 220.226 407.294 215.016C407.294 215.016 409.899 210.207 388.157 210.207C366.414 210.207 369.019 215.016 369.019 215.016C362.907 220.727 355.894 219.024 353.188 211.008C353.289 211.108 347.778 194.476 347.778 194.476Z" fill="#187536"/>
<path d="M358.098 180.148C366.214 181.751 375.933 165.119 388.257 165.119C401.382 165.119 410.099 182.252 418.416 180.148C425.83 178.345 433.445 157.905 433.445 149.989C433.445 133.357 413.205 119.83 388.257 119.83C363.308 119.83 343.069 133.357 343.069 149.989C342.969 158.506 349.682 178.545 358.098 180.148ZM356.695 271.927C362.907 272.328 369.22 270.123 373.929 265.414L382.946 256.397C385.852 253.491 390.461 253.491 393.367 256.397L402.384 265.414C407.094 270.123 413.406 272.328 419.518 271.927C424.828 271.626 452.081 238.362 445.268 239.263C440.659 239.864 436.15 242.069 432.543 245.576L432.443 245.676L423.425 254.693C420.52 257.599 415.911 257.599 413.005 254.693L403.987 245.676C395.27 236.859 381.043 236.859 372.226 245.576L372.125 245.676L363.108 254.693C360.202 257.599 355.593 257.599 352.687 254.693L343.67 245.676C340.163 242.169 335.855 240.065 331.346 239.363C324.633 238.261 351.485 271.626 356.695 271.927ZM322.729 211.108C325.635 208.203 330.244 208.203 333.149 211.108L342.167 220.126C350.984 228.843 365.112 228.843 373.929 220.126L382.946 211.108C385.852 208.203 390.461 208.203 393.367 211.108L402.384 220.126C411.202 228.843 425.329 228.843 434.146 220.126L443.164 211.108C446.069 208.203 450.678 208.203 453.584 211.108C453.584 211.108 459.095 196.279 456.089 195.177C448.174 192.272 438.855 193.975 432.543 200.387L432.443 200.488L423.425 209.505C420.52 212.411 415.911 212.411 413.005 209.505L403.987 200.488C395.27 191.671 381.043 191.671 372.226 200.387L372.125 200.488L363.108 209.505C360.202 212.411 355.593 212.411 352.687 209.505L343.67 200.488C337.458 194.276 328.54 192.472 320.825 194.977C317.719 196.079 322.729 211.108 322.729 211.108Z" fill="white"/>
</g>
<defs>
<clipPath id="clip0_4349_30300">
<rect width="513" height="341.967" fill="white" transform="translate(0 0.698242)"/>
</clipPath>
</defs>
</svg>
