<svg width="513" height="343" viewBox="0 0 513 343" fill="none" xmlns="http://www.w3.org/2000/svg">
<g clip-path="url(#clip0_4349_30256)">
<path d="M0 0.966797H513V342.933H0V0.966797Z" fill="#C60A0A"/>
<path d="M256.5 172L44.5869 298.346V45.5537L256.5 172Z" fill="#3E8446"/>
<path d="M256.5 172L468.413 298.346H44.5869L256.5 172ZM468.413 45.5537L256.5 172L44.5869 45.5537H468.413Z" fill="#FFDA44"/>
<path d="M468.413 45.5537V298.346L256.5 172L468.413 45.5537Z" fill="#3E8446"/>
<path d="M256.5 11.3872L259.806 21.6071H270.527L261.91 27.9194L265.217 38.1394L256.5 31.8271L247.783 38.1394L251.089 27.9194L242.473 21.6071H253.193L256.5 11.3872ZM170.432 11.3872L173.739 21.6071H184.459L175.843 27.9194L179.149 38.1394L170.432 31.8271L161.715 38.1394L165.022 27.9194L156.405 21.6071H167.126L170.432 11.3872ZM342.568 11.3872L345.874 21.6071H356.695L347.978 27.9194L351.285 38.1394L342.568 31.8271L333.851 38.1394L337.157 27.9194L328.54 21.6071H339.261L342.568 11.3872ZM256.5 305.761L259.806 315.981H270.527L261.91 322.293L265.217 332.513L256.5 326.201L247.783 332.513L251.089 322.293L242.473 315.981H253.193L256.5 305.761ZM170.432 305.761L173.739 315.981H184.459L175.843 322.293L179.149 332.513L170.432 326.201L161.715 332.513L165.022 322.293L156.405 315.981H167.126L170.432 305.761ZM342.568 305.761L345.874 315.981H356.695L347.978 322.293L351.285 332.513L342.568 326.201L333.851 332.513L337.157 322.293L328.54 315.981H339.261L342.568 305.761Z" fill="#FFDA44"/>
<path d="M244.977 248.349C287.144 248.349 321.326 214.167 321.326 172C321.326 129.834 287.144 95.6514 244.977 95.6514C202.811 95.6514 168.629 129.834 168.629 172C168.629 214.167 202.811 248.349 244.977 248.349Z" fill="#C60A0A"/>
<path d="M244.978 111.282L258.604 153.163H302.69L267.021 179.014L280.647 220.895L244.978 195.045L209.408 220.895L223.035 179.014L187.365 153.163H231.451L244.978 111.282ZM107.91 169.094C112.319 176.008 110.215 185.226 103.301 189.634C96.388 194.043 87.17 191.939 82.7614 185.025C74.846 172.501 79.455 151.961 79.455 151.961C79.455 151.961 99.8948 156.57 107.91 169.094Z" fill="#FFDA44"/>
<path d="M99.2936 190.837C103.388 190.837 106.708 187.517 106.708 183.422C106.708 179.327 103.388 176.008 99.2936 176.008C95.1987 176.008 91.8792 179.327 91.8792 183.422C91.8792 187.517 95.1987 190.837 99.2936 190.837Z" fill="#A2001D"/>
</g>
<defs>
<clipPath id="clip0_4349_30256">
<rect width="513" height="341.967" fill="white" transform="translate(0 0.966797)"/>
</clipPath>
</defs>
</svg>
