<svg width="513" height="343" viewBox="0 0 513 343" fill="none" xmlns="http://www.w3.org/2000/svg">
<g clip-path="url(#clip0_4349_30239)">
<path d="M0 0.932129H513V342.899H0V0.932129Z" fill="white"/>
<path d="M0 0.932129H513V49.8274H0V0.932129ZM0 98.6226H513V147.518H0V98.6226ZM0 196.313H513V245.208H0V196.313ZM0 294.104H513V342.999H0V294.104Z" fill="#6DA544"/>
<path d="M0 0.932129H256.5V147.518H0V0.932129Z" fill="#D80027"/>
<path d="M117.128 115.556L109.614 100.727V70.9687L128.25 60.0474L146.886 70.9687V93.3122L154.301 85.8978L158.509 88.9036L154.301 100.727L139.372 115.556H117.128Z" fill="white"/>
<path d="M82.1601 89.3045C85.1482 89.3045 87.5706 86.8821 87.5706 83.8939C87.5706 80.9058 85.1482 78.4834 82.1601 78.4834C79.1719 78.4834 76.7495 80.9058 76.7495 83.8939C76.7495 86.8821 79.1719 89.3045 82.1601 89.3045Z" fill="white"/>
<path d="M90.9774 68.1634C93.9656 68.1634 96.388 65.741 96.388 62.7528C96.388 59.7647 93.9656 57.3423 90.9774 57.3423C87.9893 57.3423 85.5669 59.7647 85.5669 62.7528C85.5669 65.741 87.9893 68.1634 90.9774 68.1634Z" fill="white"/>
<path d="M106.808 52.6331C109.796 52.6331 112.219 50.2107 112.219 47.2226C112.219 44.2344 109.796 41.812 106.808 41.812C103.82 41.812 101.398 44.2344 101.398 47.2226C101.398 50.2107 103.82 52.6331 106.808 52.6331Z" fill="white"/>
<path d="M128.25 47.2225C131.238 47.2225 133.66 44.8001 133.66 41.8119C133.66 38.8237 131.238 36.4014 128.25 36.4014C125.262 36.4014 122.839 38.8237 122.839 41.8119C122.839 44.8001 125.262 47.2225 128.25 47.2225Z" fill="white"/>
<path d="M149.692 52.6331C152.68 52.6331 155.102 50.2107 155.102 47.2226C155.102 44.2344 152.68 41.812 149.692 41.812C146.704 41.812 144.281 44.2344 144.281 47.2226C144.281 50.2107 146.704 52.6331 149.692 52.6331Z" fill="white"/>
<path d="M165.523 68.1634C168.511 68.1634 170.933 65.741 170.933 62.7528C170.933 59.7647 168.511 57.3423 165.523 57.3423C162.534 57.3423 160.112 59.7647 160.112 62.7528C160.112 65.741 162.534 68.1634 165.523 68.1634Z" fill="white"/>
<path d="M174.34 89.3045C177.328 89.3045 179.75 86.8821 179.75 83.8939C179.75 80.9058 177.328 78.4834 174.34 78.4834C171.352 78.4834 168.929 80.9058 168.929 83.8939C168.929 86.8821 171.352 89.3045 174.34 89.3045Z" fill="white"/>
</g>
<defs>
<clipPath id="clip0_4349_30239">
<rect width="513" height="341.967" fill="white" transform="translate(0 0.932129)"/>
</clipPath>
</defs>
</svg>
