<svg width="513" height="343" viewBox="0 0 513 343" fill="none" xmlns="http://www.w3.org/2000/svg">
<g clip-path="url(#clip0_4349_30252)">
<path d="M0 1.00586H513V343.006H0V1.00586Z" fill="white"/>
<path d="M223.44 137.698H0V206.098H223.44V342.898H291.84V206.098H515.28V137.698H291.84V0.898438H223.44V137.698Z" fill="#EB000E"/>
<path d="M394.44 62.4584L389.881 35.0984H412.681L408.12 62.4584L435.48 57.8984V80.6984L408.12 76.1384L412.681 103.498H389.881L394.44 76.1384L367.081 80.6984V57.8984L394.44 62.4584ZM104.881 62.4584L100.321 35.0984H123.121L118.561 62.4584L145.921 57.8984V80.6984L118.561 76.1384L123.121 103.498H100.321L104.881 76.1384L77.5205 80.6984V57.8984L104.881 62.4584ZM104.881 267.658L100.321 240.298H123.121L118.561 267.658L145.921 263.098V285.898L118.561 281.338L123.121 308.698H100.321L104.881 281.338L77.5205 285.898V263.098L104.881 267.658ZM394.44 267.658L389.881 240.298H412.681L408.12 267.658L435.48 263.098V285.898L408.12 281.338L412.681 308.698H389.881L394.44 281.338L367.081 285.898V263.098L394.44 267.658Z" fill="#EB000E"/>
</g>
<defs>
<clipPath id="clip0_4349_30252">
<rect width="513" height="342" fill="white" transform="translate(0 0.898438)"/>
</clipPath>
</defs>
</svg>
