<svg width="513" height="343" viewBox="0 0 513 343" fill="none" xmlns="http://www.w3.org/2000/svg">
<g clip-path="url(#clip0_4349_30213)">
<path d="M0 0.897949H513V342.898H0V0.897949Z" fill="white"/>
<path d="M0 230.898H513V342.898H0V230.898Z" fill="#D80027"/>
<path d="M363.1 132.698V99.9979H374V78.1979H352.1V89.0979H330.3V78.1979H308.5V99.9979H319.4V132.698H297.6V56.3979H308.5V34.5979H286.7V45.4979H275.8V34.5979H254V45.4979H243.1V34.5979H221.3V56.3979H232.2V132.698H210.4V99.9979H221.3V78.1979H199.5V89.0979H177.7V78.1979H155.9V99.9979H166.8V132.698H145V219.898H384.9V132.698H363.1Z" fill="#D80027"/>
<path fill-rule="evenodd" clip-rule="evenodd" d="M220.8 34.0979H243.6V44.9979H253.5V34.0979H276.3V44.9979H286.2V34.0979H309V56.8979H298.1V132.198H318.9V100.498H308V77.6979H330.8V88.5979H351.6V77.6979H374.5V100.498H363.6V132.198H385.4V220.398H144.5V132.198H166.3V100.498H155.4V77.6979H178.2V88.5979H199V77.6979H221.8V100.498H210.9V132.198H231.7V56.8979H220.8V34.0979ZM221.8 35.0979V55.8979H232.7V133.198H209.9V99.4979H220.8V78.6979H200V89.5979H177.2V78.6979H156.4V99.4979H167.3V133.198H145.5V219.398H384.4V133.198H362.6V99.4979H373.5V78.6979H352.6V89.5979H329.8V78.6979H309V99.4979H319.9V133.198H297.1V55.8979H308V35.0979H287.2V45.9979H275.3V35.0979H254.5V45.9979H242.6V35.0979H221.8Z" fill="black"/>
<path d="M264.9 236.398L240.7 254.598L259.8 268.898V300.198H236.6V309.198H259.6V317.098H236.6V326.398H270V268.898L289.1 254.598L264.9 236.398ZM264.9 261.698L254.8 254.598L264.9 247.498L275 254.598L264.9 261.698Z" fill="#FFDA44"/>
<path fill-rule="evenodd" clip-rule="evenodd" d="M265.201 235.998L289.933 254.599L270.5 269.148V326.898H236.1V316.598H259.1V309.698H236.1V299.698H259.3V269.148L239.867 254.599L264.6 235.998L264.9 236.398L265.201 235.998ZM264.9 237.024L241.533 254.597L260.3 268.648V300.698H237.1V308.698H260.1V317.598H237.1V325.898H269.5V268.648L288.267 254.597L264.9 237.024ZM264.9 246.887L275.87 254.598L264.9 262.309L253.931 254.598L264.9 246.887ZM255.67 254.598L264.9 261.087L274.131 254.598L264.9 248.109L255.67 254.598Z" fill="black"/>
<path d="M239.6 210.598V182.698C239.6 182.698 239.7 160.398 264.6 160.398C289.4 160.398 290.3 182.398 290.3 182.398V210.598H239.6ZM170.5 210.598V186.298C170.5 186.298 170.6 167.598 190.1 167.598C209.6 167.598 210.3 185.998 210.3 185.998V210.498H170.5V210.598Z" fill="black"/>
<path d="M169.1 210.598V186.298C169.1 186.298 169.2 167.598 188.7 167.598C208.2 167.598 208.9 185.998 208.9 185.998V210.498H169.1V210.598ZM320.9 210.598V186.298C320.9 186.298 321 167.598 340.5 167.598C360 167.598 360.7 185.998 360.7 185.998V210.498H320.9V210.598ZM329.3 132.898V117.198C329.3 117.198 329.4 105.098 340.6 105.098C351.9 105.098 352.3 116.998 352.3 116.998V132.898H329.3ZM250.5 132.898V109.198C250.5 109.198 250.6 90.8979 264.8 90.8979C279 90.8979 279.5 108.898 279.5 108.898V132.898H250.5ZM177.5 132.898V117.198C177.5 117.198 177.6 105.098 188.8 105.098C200 105.098 200.5 116.998 200.5 116.998V132.898H177.5Z" fill="black"/>
</g>
<defs>
<clipPath id="clip0_4349_30213">
<rect width="513" height="342" fill="white" transform="translate(0 0.897949)"/>
</clipPath>
</defs>
</svg>
