<svg width="513" height="343" viewBox="0 0 513 343" fill="none" xmlns="http://www.w3.org/2000/svg">
<g clip-path="url(#clip0_4349_30184)">
<path d="M0 0.96582H513V342.966H0V0.96582Z" fill="white"/>
<path d="M0 0.96582H513V114.766H0V0.96582Z" fill="#6DA544"/>
<path d="M0 228.566H513V342.966H0V228.566Z" fill="#D80027"/>
<path d="M126 171.666L0 342.266V0.96582L126 171.666Z" fill="#0070C8"/>
<path fill-rule="evenodd" clip-rule="evenodd" d="M233.8 139.866H305.5V180.766C305.5 189.753 303.252 196.527 299.854 201.624C296.457 206.718 291.933 210.108 287.424 212.363C282.916 214.617 278.415 215.741 275.045 216.303C273.358 216.584 271.952 216.724 270.965 216.795C270.472 216.83 270.083 216.848 269.817 216.857C269.683 216.861 269.58 216.863 269.51 216.865C269.475 216.865 269.448 216.865 269.43 216.866L269.408 216.866L269.403 216.866H269.401C269.4 216.866 269.4 216.866 269.4 216.366C269.4 216.866 269.4 216.866 269.399 216.866H269.397L269.392 216.866L269.37 216.866C269.352 216.865 269.325 216.865 269.29 216.865C269.22 216.863 269.117 216.861 268.984 216.857C268.717 216.848 268.328 216.83 267.835 216.795C266.848 216.724 265.442 216.584 263.755 216.303C260.385 215.741 255.884 214.617 251.376 212.363C246.867 210.108 242.343 206.718 238.947 201.624C235.548 196.527 233.3 189.753 233.3 180.766V140.366H233.8V139.866ZM234.3 140.866V180.766C234.3 189.578 236.502 196.154 239.779 201.07C243.057 205.988 247.433 209.273 251.824 211.469C256.216 213.665 260.615 214.765 263.92 215.316C265.571 215.591 266.946 215.729 267.906 215.797C268.386 215.832 268.762 215.849 269.017 215.857C269.144 215.862 269.241 215.864 269.306 215.865C269.338 215.865 269.362 215.865 269.378 215.866L269.396 215.866L269.399 215.866H269.401L269.405 215.866L269.422 215.866C269.438 215.865 269.462 215.865 269.494 215.865C269.559 215.864 269.656 215.862 269.783 215.857C270.038 215.849 270.414 215.832 270.894 215.797C271.854 215.729 273.229 215.591 274.88 215.316C278.185 214.765 282.584 213.665 286.976 211.469C291.367 209.273 295.743 205.988 299.022 201.07C302.298 196.154 304.5 189.578 304.5 180.766V140.866H234.3Z" fill="black"/>
<path d="M264.5 180.766H274.3L278.3 206.566H260.5L264.5 180.766Z" fill="#786145"/>
<path d="M287.2 162.966C287.2 153.166 279.2 148.166 269.4 148.166C259.6 148.166 251.6 153.166 251.6 162.966C246.7 162.966 242.7 166.966 242.7 171.866C242.7 176.766 246.7 180.766 251.6 180.766H287.2C292.1 180.766 296.1 176.766 296.1 171.866C296.1 166.966 292.1 162.966 287.2 162.966Z" fill="#6DA544"/>
<path d="M230.7 120.966L232.6 124.266H236.4L234.5 127.566L236.4 130.766H232.6L230.7 134.066L228.8 130.766H225L226.9 127.566L225 124.266H228.8L230.7 120.966ZM246 120.966L247.9 124.266H251.6L249.7 127.566L251.6 130.766H247.9L246 134.066L244.1 130.766H240.3L242.2 127.566L240.3 124.266H244.1L246 120.966ZM261.3 120.966L263.2 124.266H266.9L265 127.566L266.9 130.766H263.2L261.3 134.066L259.4 130.766H255.6L257.5 127.566L255.6 124.266H259.4L261.3 120.966ZM277.1 120.966L279 124.266H282.8L280.9 127.566L282.8 130.766H279L277.1 134.066L275.2 130.766H271.5L273.3 127.566L271.5 124.266H275.2L277.1 120.966ZM293.1 120.966L295 124.266H298.8L296.9 127.566L298.8 130.766H295L293.1 134.066L291.2 130.766H287.5L289.3 127.566L287.5 124.266H291.2L293.1 120.966ZM308.1 120.966L310 124.266H313.7L311.8 127.566L313.7 130.766H310L308.1 134.066L306.2 130.766H302.4L304.3 127.566L302.4 124.266H306.2L308.1 120.966Z" fill="#FFDA00"/>
<path fill-rule="evenodd" clip-rule="evenodd" d="M246 119.964L248.189 123.766H252.465L250.279 127.562L252.478 131.266H248.189L246 135.068L243.811 131.266H239.422L241.621 127.562L239.435 123.766H243.811L246 119.964ZM277.1 119.964L279.289 123.766H283.665L281.479 127.562L283.678 131.266H279.289L277.1 135.068L274.911 131.266H270.645L272.728 127.562L270.658 123.766H274.911L277.1 119.964ZM293.1 119.964L295.289 123.766H299.665L297.479 127.562L299.678 131.266H295.289L293.1 135.068L290.911 131.266H286.645L288.728 127.562L286.658 123.766H290.911L293.1 119.964ZM308.1 119.964L310.289 123.766H314.565L312.379 127.562L314.578 131.266H310.289L308.1 135.068L305.911 131.266H301.522L303.721 127.562L301.535 123.766H305.911L308.1 119.964ZM230.7 119.964L232.889 123.766H237.265L235.079 127.562L237.278 131.266H232.889L230.7 135.068L228.511 131.266H224.122L226.321 127.562L224.135 123.766H228.511L230.7 119.964ZM261.3 119.964L263.489 123.766H267.765L265.579 127.562L267.778 131.266H263.489L261.3 135.068L259.111 131.266H254.722L256.921 127.562L254.735 123.766H259.111L261.3 119.964ZM261.3 121.968L259.689 124.766H256.465L258.079 127.57L256.478 130.266H259.689L261.3 133.064L262.911 130.266H266.022L264.421 127.57L266.035 124.766H262.911L261.3 121.968ZM230.7 121.968L229.089 124.766H225.865L227.479 127.57L225.878 130.266H229.089L230.7 133.064L232.311 130.266H235.522L233.921 127.57L235.535 124.766H232.311L230.7 121.968ZM246 121.968L244.389 124.766H241.165L242.779 127.57L241.178 130.266H244.389L246 133.064L247.611 130.266H250.722L249.121 127.57L250.735 124.766H247.611L246 121.968ZM277.1 121.968L275.489 124.766H272.342L273.872 127.57L272.355 130.266H275.489L277.1 133.064L278.711 130.266H281.922L280.321 127.57L281.935 124.766H278.711L277.1 121.968ZM293.1 121.968L291.489 124.766H288.342L289.872 127.57L288.355 130.266H291.489L293.1 133.064L294.711 130.266H297.922L296.321 127.57L297.935 124.766H294.711L293.1 121.968ZM308.1 121.968L306.489 124.766H303.265L304.879 127.57L303.278 130.266H306.489L308.1 133.064L309.711 130.266H312.822L311.221 127.57L312.835 124.766H309.711L308.1 121.968Z" fill="black"/>
</g>
<defs>
<clipPath id="clip0_4349_30184">
<rect width="513" height="342" fill="white" transform="translate(0 0.96582)"/>
</clipPath>
</defs>
</svg>
