<svg width="513" height="343" viewBox="0 0 513 343" fill="none" xmlns="http://www.w3.org/2000/svg">
<g clip-path="url(#clip0_4349_30147)">
<path d="M0 0.96582H513V342.966H0V0.96582Z" fill="white"/>
<path d="M0 0.96582H171V342.966H0V0.96582ZM342 0.96582H513V342.966H342V0.96582Z" fill="#338AF3"/>
<path d="M256 182.266C270.083 182.266 281.5 170.849 281.5 156.766C281.5 142.682 270.083 131.266 256 131.266C241.917 131.266 230.5 142.682 230.5 156.766C230.5 170.849 241.917 182.266 256 182.266Z" fill="#DCC26D"/>
<path d="M194.2 156.866C194.2 178.966 206 199.366 225 210.366C230.9 213.766 238.5 211.766 241.9 205.866C245.3 199.966 243.3 192.366 237.4 188.966C225.9 182.366 218.9 170.066 218.9 156.866C218.9 150.066 213.4 144.466 206.5 144.466C199.6 144.466 194.2 149.966 194.2 156.866ZM289.3 208.966C307.1 197.566 317.9 177.966 317.8 156.866C317.8 150.066 312.3 144.466 305.4 144.466C298.6 144.466 293 149.966 293 156.866C293 169.566 286.5 181.366 275.9 188.166C270.1 191.766 268.2 199.366 271.8 205.166C275.4 210.966 283 212.866 288.8 209.266C289 209.166 289.1 209.066 289.3 208.966Z" fill="#628A40"/>
</g>
<defs>
<clipPath id="clip0_4349_30147">
<rect width="513" height="342" fill="white" transform="translate(0 0.96582)"/>
</clipPath>
</defs>
</svg>
