<svg width="513" height="343" viewBox="0 0 513 343" fill="none" xmlns="http://www.w3.org/2000/svg">
<g clip-path="url(#clip0_4349_30137)">
<path d="M0 0.96582H512V342.266H0V0.96582Z" fill="#D80027"/>
<path d="M11.1 12.0659H500.8V331.166H11.1V12.0659Z" fill="#0052B4"/>
<path d="M256 286.266C256 286.266 332.4 234.966 332.4 171.666C332.4 108.366 256 56.9658 256 56.9658C256 56.9658 179.6 108.266 179.6 171.566C179.6 234.866 256 286.266 256 286.266Z" fill="#7DBEF1"/>
<path d="M179.8 181.666H332.4L303.1 246.566H207.9L179.8 181.666Z" fill="#1C8AE6"/>
<path d="M192.3 206.866C192.3 206.866 232.8 245.066 243.3 245.066C255.7 245.066 255.9 226.666 268.8 219.566C289 208.466 319.8 206.866 319.8 206.866L297 249.666L256 286.266L209.2 246.566L192.3 206.866Z" fill="#FFF042"/>
<path d="M256 158.466L233.5 174.066L241.4 147.866L219.6 131.366L247 130.866L256 104.966L265 130.866L292.4 131.366L270.6 147.966L278.5 174.166L256 158.466Z" fill="#259C7B"/>
<path d="M249.7 145.566C248.8 154.766 248.2 163.966 248 173.166C247.7 185.066 248.3 193.866 250 199.166C252.2 205.766 257.2 212.066 264.2 218.066C269.5 222.666 274.8 226.166 278.4 228.166C281.5 229.866 285.4 228.766 287.1 225.766C288.8 222.666 287.7 218.766 284.7 217.066C280.4 214.566 276.3 211.666 272.5 208.366C267.1 203.766 263.4 199.166 262.1 195.066C261 191.666 260.5 183.766 260.7 173.366C260.9 164.466 261.5 155.566 262.4 146.766C262.8 143.266 260.2 140.166 256.7 139.766C253.1 139.466 250 142.066 249.7 145.566Z" fill="#8E5715"/>
<path d="M217.8 171.666L243.3 209.866H217.8V171.666Z" fill="white"/>
<path fill-rule="evenodd" clip-rule="evenodd" d="M259.349 51.9874L256 56.9656L252.655 51.9844L256.003 49.7363L259.349 51.9874ZM256 286.266C252.651 291.244 252.649 291.243 252.647 291.241L252.626 291.227L252.573 291.191C252.529 291.161 252.466 291.119 252.386 291.064C252.276 290.988 252.134 290.89 251.959 290.769C251.879 290.713 251.793 290.653 251.7 290.587C251.108 290.173 250.253 289.566 249.173 288.775C247.014 287.194 243.95 284.879 240.284 281.906C232.959 275.967 223.181 267.365 213.384 256.715C193.988 235.631 173.6 205.526 173.6 171.566C173.6 137.604 193.99 107.523 213.387 86.4633C223.184 75.8261 232.963 67.2367 240.287 61.3069C243.954 58.3383 247.018 56.0268 249.177 54.4489C250.258 53.6598 251.112 53.0535 251.704 52.6397C252 52.4328 252.231 52.2739 252.391 52.1643C252.471 52.1095 252.533 52.067 252.577 52.037L252.63 52.0013L252.652 51.9868C252.654 51.9855 252.655 51.9844 256 56.9656C259.349 51.9874 259.351 51.9885 259.353 51.9899L259.358 51.9935L259.374 52.0043L259.427 52.0401C259.471 52.0702 259.534 52.1127 259.614 52.1676C259.774 52.2774 260.004 52.4366 260.3 52.6438C260.892 53.0584 261.747 53.6657 262.827 54.4563C264.986 56.0368 268.05 58.3523 271.716 61.3255C279.041 67.2646 288.819 75.8665 298.616 86.516C318.012 107.6 338.4 137.706 338.4 171.666C338.4 205.627 318.01 235.708 298.613 256.768C288.816 267.405 279.037 275.995 271.713 281.924C268.046 284.893 264.982 287.204 262.822 288.782C261.742 289.571 260.888 290.178 260.296 290.592C260 290.798 259.769 290.957 259.609 291.067C259.529 291.122 259.467 291.164 259.423 291.194L259.37 291.23L259.354 291.241L259.348 291.244C259.346 291.246 259.345 291.247 256 286.266ZM256 286.266L252.651 291.244L255.997 293.495L259.345 291.247L256 286.266ZM256.003 278.903C258.008 277.432 260.814 275.308 264.162 272.598C271.162 266.93 280.484 258.739 289.787 248.638C308.59 228.223 326.4 201.004 326.4 171.666C326.4 142.326 308.588 115.081 289.784 94.6403C280.481 84.5273 271.159 76.3229 264.159 70.6464C260.809 67.9303 258.002 65.8018 255.997 64.3286C253.992 65.799 251.186 67.9232 247.838 70.6337C240.837 76.3009 231.516 84.4926 222.213 94.593C203.41 115.008 185.6 142.227 185.6 171.566C185.6 200.906 203.412 228.15 222.216 248.591C231.519 258.704 240.841 266.908 247.841 272.585C251.191 275.301 253.998 277.43 256.003 278.903Z" fill="#D80027"/>
</g>
<defs>
<clipPath id="clip0_4349_30137">
<rect width="513" height="342" fill="white" transform="translate(0 0.96582)"/>
</clipPath>
</defs>
</svg>
