<svg width="513" height="343" viewBox="0 0 513 343" fill="none" xmlns="http://www.w3.org/2000/svg">
<g clip-path="url(#clip0_4349_30122)">
<path d="M0 0.96582H513V342.966H0V0.96582Z" fill="#D80027"/>
<path d="M274.2 120.766C269.1 141.866 260.1 137.866 255.7 156.266C229.6 149.966 213.6 123.766 219.8 97.6658C226.1 71.5658 252.3 55.5658 278.3 61.7658C269.6 98.6658 278.8 101.866 274.2 120.766ZM206.6 136.366C225.1 147.666 218.5 155.066 234.6 164.966C220.6 187.866 190.7 194.966 167.8 180.966C144.9 166.966 137.8 137.066 151.8 114.166C184.1 133.966 190 126.266 206.6 136.366ZM200.6 205.566C217.1 191.466 222 200.066 236.4 187.766C253.8 208.166 251.4 238.766 231 256.166C210.6 273.566 180 271.166 162.6 250.766C191.3 226.166 185.8 218.166 200.6 205.566ZM264.5 232.666C256.2 212.566 265.9 210.566 258.6 193.066C283.4 182.766 311.8 194.566 322 219.366C332.3 244.166 320.5 272.566 295.7 282.766C281.2 247.766 271.9 250.566 264.5 232.666ZM310 180.266C288.4 181.966 289.4 172.166 270.5 173.666C268.4 146.966 288.4 123.566 315.1 121.466C341.8 119.366 365.2 139.366 367.3 166.066C329.6 168.966 329.4 178.766 310 180.266Z" fill="white"/>
</g>
<defs>
<clipPath id="clip0_4349_30122">
<rect width="513" height="342" fill="white" transform="translate(0 0.96582)"/>
</clipPath>
</defs>
</svg>
