<svg width="513" height="343" viewBox="0 0 513 343" fill="none" xmlns="http://www.w3.org/2000/svg">
<g clip-path="url(#clip0_4349_30108)">
<path d="M0 0.966309H513V342.97H0V0.966309Z" fill="#0052B4"/>
<path d="M223.833 171.963C224.107 171.658 224.377 171.352 224.648 171.045C224.377 171.353 224.101 171.656 223.826 171.963H223.833ZM189.587 213.972L200.566 236.929L225.361 231.2L214.257 254.098L234.196 269.91L209.371 275.505L209.44 300.953L189.587 285.032L169.734 300.953L169.803 275.505L144.979 269.91L164.917 254.098L153.813 231.2L178.607 236.929L189.587 213.972ZM387.832 242.491L393.069 253.441L404.895 250.708L399.599 261.629L409.11 269.172L397.268 271.84L397.3 283.978L387.832 276.385L378.364 283.978L378.396 271.84L366.556 269.172L376.065 261.629L370.77 250.708L382.596 253.441L387.832 242.491ZM339.114 126.326L344.351 137.277L356.177 134.543L350.881 145.465L360.391 153.008L348.55 155.676L348.583 167.815L339.114 160.22L329.645 167.815L329.678 155.676L317.837 153.008L327.346 145.465L322.052 134.543L333.877 137.277L339.114 126.326ZM387.832 59.9463L393.069 70.8976L404.895 68.1623L399.599 79.0856L409.108 86.6273L397.268 89.2965L397.3 101.434L387.832 93.8393L378.364 101.434L378.396 89.2965L366.556 86.6273L376.065 79.0856L370.77 68.1623L382.596 70.8976L387.832 59.9463ZM430.386 109.731L435.623 120.682L447.448 117.948L442.154 128.87L451.663 136.411L439.822 139.081L439.855 151.218L430.386 143.625L420.918 151.218L420.95 139.081L409.11 136.411L418.619 128.87L413.323 117.948L425.149 120.682L430.386 109.731ZM399.959 167.815L404.077 180.491H417.407L406.623 188.327L410.743 201.003L399.959 193.169L389.173 201.003L393.293 188.327L382.509 180.491H395.839L399.959 167.815Z" fill="white"/>
<path d="M256.5 0.966309V31.579L211.245 56.727H256.5V116.202H197.282L256.5 149.101V171.963H229.768L156.13 131.057V171.963H100.37V123.295L12.7689 171.963H0V141.35L45.2552 116.202H0V56.727H59.2184L0 23.8169V0.966309H26.7321L100.37 41.8731V0.966309H156.13V49.6342L243.731 0.966309H256.5Z" fill="white"/>
<path d="M144.281 0.963379H112.219V70.4308H0V102.493H112.219V171.963H144.281V102.493H256.5V70.4308H144.281V0.963379Z" fill="#D80027"/>
<path d="M156.13 116.202L256.5 171.963V156.195L184.513 116.202H156.13Z" fill="#0052B4"/>
<path d="M156.13 116.202L256.5 171.963V156.195L184.513 116.202H156.13Z" fill="white"/>
<path d="M156.13 116.202L256.5 171.963V156.195L184.513 116.202H156.13ZM71.9863 116.202L0 156.195V171.963L100.37 116.202H71.9863Z" fill="#D80027"/>
<path d="M100.37 56.7241L0 0.963379V16.7311L71.9873 56.7241H100.37Z" fill="#0052B4"/>
<path d="M100.37 56.7241L0 0.963379V16.7311L71.9873 56.7241H100.37Z" fill="white"/>
<path d="M100.37 56.7241L0 0.963379V16.7311L71.9873 56.7241H100.37ZM184.514 56.7241L256.5 16.7311V0.963379L156.13 56.7241H184.514Z" fill="#D80027"/>
</g>
<defs>
<clipPath id="clip0_4349_30108">
<rect width="513" height="342" fill="white" transform="translate(0 0.966309)"/>
</clipPath>
</defs>
</svg>
