<svg width="513" height="343" viewBox="0 0 513 343" fill="none" xmlns="http://www.w3.org/2000/svg">
<g clip-path="url(#clip0_4349_30104)">
<path d="M0 0.964844H513V342.965H0V0.964844Z" fill="white"/>
<path d="M0 0.964844H513V114.965H0V0.964844ZM0 228.965H513V342.965H0V228.965ZM203.5 118.865L210.2 135.465L227.8 136.465L213.8 147.365L218.5 165.065L203.5 155.165L188.5 165.065L193.2 147.365L179.2 136.465L196.8 135.465L203.5 118.865ZM308.5 118.865L315.2 135.465L332.8 136.465L318.8 147.365L323.5 165.065L308.5 155.165L293.5 165.065L298.2 147.365L284.2 136.465L301.8 135.465L308.5 118.865ZM256 148.565L262.7 165.165L280.3 166.165L266.3 177.065L271 194.765L256 184.865L241 194.765L245.7 177.065L231.7 166.165L249.3 165.165L256 148.565ZM203.5 178.265L210.2 194.865L227.8 195.865L213.8 206.765L218.5 224.365L203.5 214.465L188.5 224.365L193.2 206.765L179.2 195.865L196.8 194.865L203.5 178.265ZM308.5 178.265L315.2 194.865L332.8 195.865L318.8 206.765L323.5 224.365L308.5 214.465L293.5 224.365L298.2 206.765L284.2 195.865L301.8 194.865L308.5 178.265Z" fill="#338AF3"/>
</g>
<defs>
<clipPath id="clip0_4349_30104">
<rect width="513" height="342" fill="white" transform="translate(0 0.964844)"/>
</clipPath>
</defs>
</svg>
