<svg width="513" height="343" viewBox="0 0 513 343" fill="none" xmlns="http://www.w3.org/2000/svg">
<g clip-path="url(#clip0_4349_30092)">
<path d="M0 0.964844H513V342.965H0V0.964844Z" fill="white"/>
<path d="M0 0.964844H513V114.965H0V0.964844Z" fill="#D80027"/>
<path d="M0 228.965H513V342.965H0V228.965Z" fill="#0052B4"/>
<path d="M309.3 114.165V70.1648L326.8 55.7648L344.5 70.1648V114.165H309.3ZM203.7 114.165V70.1648L186.4 55.7648L168.5 70.1648V114.165H203.7ZM238.9 114.165V70.1648L256.5 55.7648L274.1 70.1648V114.165H238.9Z" fill="#338AF3"/>
<path d="M309.3 114.165H274.1V70.1648L291.6 55.7648L309.3 70.1648V114.165ZM238.9 114.165H203.7V70.1648L221.2 55.7648L238.9 70.1648V114.165Z" fill="#0052B4"/>
<path d="M168.5 114.165V216.065C168.5 240.365 182.9 262.265 203.9 275.465C225.2 288.865 246 290.165 256.5 290.165C267 290.165 287.9 288.465 309.1 275.365C330.1 262.365 344.5 240.265 344.5 216.065V114.165H168.5Z" fill="white"/>
<path fill-rule="evenodd" clip-rule="evenodd" d="M168 113.665H345V216.065C345 240.468 330.483 262.716 309.363 275.79C288.055 288.957 267.05 290.665 256.5 290.665C245.957 290.665 225.048 289.36 203.634 275.888C182.518 262.616 168 240.57 168 216.065V113.665ZM169 114.665V216.065C169 240.16 183.282 261.914 204.166 275.042C225.352 288.37 246.043 289.665 256.5 289.665C266.95 289.665 287.746 287.972 308.837 274.94C329.717 262.014 344 240.062 344 216.065V114.665H169Z" fill="#D80027"/>
<path d="M168.5 114.165H203.7V149.365H168.5V114.165ZM238.9 114.165H274.1V149.365H238.9V114.165ZM309.3 114.165H344.5V149.365H309.3V114.165ZM203.7 149.365H238.9V184.565H203.7V149.365ZM274.1 149.365H309.3V184.565H274.1V149.365ZM168.5 184.565H203.7V219.765H168.5V184.565ZM203.7 219.765H238.9V254.965H203.7V219.765ZM238.9 184.565H274.1V219.765H238.9V184.565ZM309.3 184.565H344.5V219.765H309.3V184.565ZM274.1 219.765H309.3V254.965H274.1V219.765ZM309.3 275.265C317.9 269.865 325.5 262.965 331.3 254.965H309.3V275.265ZM181.7 254.965C187.5 262.965 195 269.865 203.7 275.365V254.965H181.7ZM238.9 254.965V288.665C246.1 289.865 252.2 290.165 256.5 290.165C260.8 290.165 266.9 289.865 274.1 288.565V254.965H238.9Z" fill="#D80027"/>
</g>
<defs>
<clipPath id="clip0_4349_30092">
<rect width="513" height="342" fill="white" transform="translate(0 0.964844)"/>
</clipPath>
</defs>
</svg>
