<svg width="513" height="343" viewBox="0 0 513 343" fill="none" xmlns="http://www.w3.org/2000/svg">
<g clip-path="url(#clip0_4349_30034)">
<path d="M0 0.997559H513V342.998H0V0.997559Z" fill="white"/>
<path d="M0 0.997559H513V114.998H0V0.997559Z" fill="#CE1126"/>
<path d="M0 228.998H513V342.998H0V228.998Z" fill="black"/>
<path d="M219.2 161.698H189.9C191.4 155.998 196.5 151.798 202.7 151.798V131.898C184.4 131.898 169.6 146.798 169.6 164.998V181.498H219.2C221 181.498 222.5 182.998 222.5 184.798V191.398H156.3V211.298H242.4V184.798C242.4 172.098 232 161.698 219.2 161.698ZM268.8 191.498V131.898H249V211.398H282.1V191.498H268.8ZM335 191.498V131.898H315.2V191.498H308.6V171.698H288.7V211.398H348.3V191.498H335Z" fill="#547C31"/>
</g>
<defs>
<clipPath id="clip0_4349_30034">
<rect width="513" height="342" fill="white" transform="translate(0 0.997559)"/>
</clipPath>
</defs>
</svg>
