<svg width="513" height="343" viewBox="0 0 513 343" fill="none" xmlns="http://www.w3.org/2000/svg">
<g clip-path="url(#clip0_4349_30027)">
<path d="M0 0.997559H512V342.998H0V0.997559Z" fill="white"/>
<path d="M0 0.997559H513V114.998H0V0.997559Z" fill="#6DA544"/>
<path d="M0 228.898H513V342.898H0V228.898ZM278.8 135.798C278.9 137.798 287.5 161.998 283.2 175.198C276.6 195.498 267.4 196.998 263.4 199.698V134.998L256.5 130.798L249.6 134.998V199.698C245.6 196.998 237.2 197.298 229.8 175.198C225.5 162.498 235.5 137.898 235.6 135.998C235.6 135.998 226.1 144.098 219.8 159.998C213.9 174.798 221.7 209.598 249.3 214.798C251.6 215.198 254 220.398 256.5 220.398C258.6 220.398 260.6 215.198 262.5 214.898C290.9 210.298 297.5 173.198 292.4 159.298C287 144.698 278.8 135.798 278.8 135.798Z" fill="#D80027"/>
<g opacity="0.5">
<path opacity="0.5" d="M44.6 99.8976H66.9V124.298H44.6V99.8976ZM0 99.8976H22.3V124.298H0V99.8976ZM89.2 99.8976H111.5V124.298H89.2V99.8976ZM133.8 99.8976H156.1V124.298H133.8V99.8976ZM178.4 99.8976H200.7V124.298H178.4V99.8976ZM223 99.8976H245.3V124.298H223V99.8976ZM267.7 99.8976H290V124.298H267.7V99.8976ZM312.3 99.8976H334.6V124.298H312.3V99.8976ZM356.9 99.8976H379.2V124.298H356.9V99.8976ZM401.5 99.8976H423.8V124.298H401.5V99.8976ZM446.1 99.8976H468.4V124.298H446.1V99.8976ZM490.7 99.8976H513V124.298H490.7V99.8976ZM44.6 217.898H66.9V243.398H44.6V217.898ZM0 217.898H22.3V243.398H0V217.898ZM89.2 217.898H111.5V243.398H89.2V217.898ZM133.8 217.898H156.1V243.398H133.8V217.898ZM178.4 217.898H200.7V243.398H178.4V217.898ZM223 217.898H245.3V243.398H223V217.898ZM267.7 217.898H290V243.398H267.7V217.898ZM312.3 217.898H334.6V243.398H312.3V217.898ZM356.9 217.898H379.2V243.398H356.9V217.898ZM401.5 217.898H423.8V243.398H401.5V217.898ZM446.1 217.898H468.4V243.398H446.1V217.898ZM490.7 217.898H513V243.398H490.7V217.898Z" fill="white"/>
</g>
</g>
<defs>
<clipPath id="clip0_4349_30027">
<rect width="513" height="342" fill="white" transform="translate(0 0.997559)"/>
</clipPath>
</defs>
</svg>
