<svg width="513" height="343" viewBox="0 0 513 343" fill="none" xmlns="http://www.w3.org/2000/svg">
<g clip-path="url(#clip0_4349_30014)">
<path d="M0 0.998047H513V342.998H0V0.998047Z" fill="white"/>
<path d="M301.8 171.998L513 31.198V0.998047H467.7L256.5 141.798L45.3 0.998047H0V31.198L211.2 171.998L0 312.798V342.998H45.3L256.5 202.198L467.7 342.998H513V312.798L301.8 171.998Z" fill="#D80027"/>
<path d="M233.7 45.598L256 51.1981L278.3 45.598L282.3 24.6981L267.4 31.1981L256 15.798L244.6 31.1981L229.7 24.6981L233.7 45.598Z" fill="#FFDA44"/>
<path d="M233.7 45.5981C233.7 45.5981 229.7 58.4981 229.7 75.4981C229.7 103.398 256 116.798 256 116.798C256 116.798 282.3 101.298 282.3 75.4981C282.3 60.0981 278.3 45.5981 278.3 45.5981C278.3 45.5981 270.2 40.5981 256 40.5981C241.8 40.5981 233.7 45.5981 233.7 45.5981Z" fill="#D80027"/>
</g>
<defs>
<clipPath id="clip0_4349_30014">
<rect width="513" height="342" fill="white" transform="translate(0 0.998047)"/>
</clipPath>
</defs>
</svg>
