<svg width="513" height="342" viewBox="0 0 513 342" fill="none" xmlns="http://www.w3.org/2000/svg">
<g clip-path="url(#clip0_4349_30009)">
<path d="M0 0.00341797H513V341.996H0V0.00341797Z" fill="#6DA544"/>
<path d="M216.286 171.006L0 315.192V26.8079L216.286 171.006ZM513 26.8079V315.192L296.714 171.006L513 26.8079Z" fill="black"/>
<path d="M513 26.8078L296.714 171.006L513 315.192V342.001H472.797L256.5 197.804L40.2034 342.001H0V315.192L216.286 171.006L0 26.8078V-0.00244141H40.2034L256.5 144.196L472.797 -0.00244141H513V26.8078Z" fill="#0052B4"/>
<path d="M513 26.8078L296.714 171.006L513 315.192V342.001H472.797L256.5 197.804L40.2034 342.001H0V315.192L216.286 171.006L0 26.8078V-0.00244141H40.2034L256.5 144.196L472.797 -0.00244141H513V26.8078Z" fill="#FFDA44"/>
</g>
<defs>
<clipPath id="clip0_4349_30009">
<rect width="513" height="342" fill="white" transform="translate(0 -0.000488281)"/>
</clipPath>
</defs>
</svg>
