<svg width="513" height="343" viewBox="0 0 513 343" fill="none" xmlns="http://www.w3.org/2000/svg">
<g clip-path="url(#clip0_4349_29989)">
<path d="M0 0.996094H513V343H0V0.996094Z" fill="white"/>
<path d="M0 0.996094H513V91.752H0V0.996094Z" fill="black"/>
<path d="M0 252.244H513V342.989H0V252.244Z" fill="#496E2D"/>
<path d="M0 114.492H513V229.516H0V114.492Z" fill="#A2001D"/>
<path d="M323.896 55.5745L298.263 43.7424L256.5 138.309L214.737 43.7424L189.104 55.5745L240.954 171.992L189.104 288.411L214.737 300.242L256.5 205.677L298.263 300.242L323.896 288.411L272.046 171.992L323.896 55.5745Z" fill="white"/>
<path d="M273.91 66.7242C263.987 55.8871 256.5 49.658 256.5 49.658C256.5 49.658 249.013 55.8861 239.09 66.7232V277.261C249.013 288.098 256.5 294.328 256.5 294.328C256.5 294.328 263.987 288.1 273.91 277.262V66.7242Z" fill="white"/>
<path d="M209.448 107.098V236.886C219.934 255.464 232.768 270.694 242.384 280.79V63.1943C232.767 73.29 219.933 88.5187 209.448 107.098ZM303.552 107.098C293.066 88.5187 280.232 73.29 270.615 63.1943V280.79C280.233 270.694 293.066 255.465 303.552 236.887V107.098Z" fill="#A2001D"/>
<path d="M303.552 107.098V236.886C314.166 218.075 322.372 195.833 322.372 171.992C322.372 148.152 314.166 125.91 303.552 107.098ZM209.448 107.098V236.886C198.834 218.075 190.628 195.833 190.628 171.992C190.628 148.152 198.834 125.91 209.448 107.098Z" fill="black"/>
</g>
<defs>
<clipPath id="clip0_4349_29989">
<rect width="513" height="342" fill="white" transform="translate(0 0.998047)"/>
</clipPath>
</defs>
</svg>
