<svg width="513" height="344" viewBox="0 0 513 344" fill="none" xmlns="http://www.w3.org/2000/svg">
<g clip-path="url(#clip0_4349_29981)">
<path d="M0 0.998047H514.002V343.666H0V0.998047Z" fill="#D80027"/>
<path d="M256.5 343.065C350.959 343.065 427.533 266.491 427.533 172.031C427.533 77.5723 350.959 0.998047 256.5 0.998047C162.041 0.998047 85.4666 77.5723 85.4666 172.031C85.4666 266.491 162.041 343.065 256.5 343.065Z" fill="#D80027"/>
<path d="M383.147 172.031L331.446 196.379L359 246.477L302.79 235.756L295.676 292.466L256.5 250.685L217.324 292.466L210.21 235.756L154 246.477L181.554 196.379L129.853 172.031L181.554 147.684L154 97.4861L210.21 108.307L217.324 51.4965L256.5 93.2779L295.676 51.4965L302.79 108.307L359 97.4861L331.446 147.684L383.147 172.031Z" fill="#FFDA44"/>
<path d="M257.903 243.771C297.524 243.771 329.643 211.652 329.643 172.031C329.643 132.411 297.524 100.292 257.903 100.292C218.282 100.292 186.163 132.411 186.163 172.031C186.163 211.652 218.282 243.771 257.903 243.771Z" fill="#D80027"/>
<path d="M214.618 172.031C212.514 172.031 210.51 172.132 208.406 172.332C208.506 184.355 212.815 195.277 220.029 203.894C223.836 193.573 229.547 184.255 236.762 176.139C229.848 173.434 222.434 172.031 214.618 172.031ZM241.27 218.622C246.48 220.526 252.091 221.528 257.903 221.528C263.714 221.528 269.325 220.526 274.535 218.622C271.73 207.501 265.818 197.581 257.903 189.766C249.987 197.581 244.076 207.501 241.27 218.622ZM300.786 147.283C292.27 132.454 276.238 122.535 257.903 122.535C239.567 122.535 223.636 132.454 215.019 147.283C230.65 147.383 245.278 151.592 257.903 158.906C270.527 151.592 285.156 147.283 300.786 147.283ZM279.044 176.139C286.258 184.155 291.969 193.573 295.777 203.894C302.991 195.377 307.299 184.355 307.399 172.332C305.395 172.132 303.291 172.031 301.187 172.031C293.472 172.031 285.957 173.434 279.044 176.139Z" fill="#FFDA44"/>
</g>
<defs>
<clipPath id="clip0_4349_29981">
<rect width="513" height="342.668" fill="white" transform="translate(0 0.998047)"/>
</clipPath>
</defs>
</svg>
