<svg width="513" height="343" viewBox="0 0 513 343" fill="none" xmlns="http://www.w3.org/2000/svg">
<g clip-path="url(#clip0_4349_29968)">
<path d="M0 0.998535H513V342.999H0V0.998535Z" fill="#CE1126"/>
<path d="M259.464 248.834C294.848 248.834 323.532 220.15 323.532 184.766C323.532 149.383 294.848 120.698 259.464 120.698C224.08 120.698 195.396 149.383 195.396 184.766C195.396 220.15 224.08 248.834 259.464 248.834Z" fill="#FCD116"/>
<path d="M289.674 84.6746L262.656 114.315L295.26 121.725L289.674 84.6746ZM230.964 84.9026L225.492 122.637L257.982 113.517L230.964 84.9026ZM338.466 115.341L298.908 125.031L321.822 152.049L338.466 115.341ZM180.804 113.289L198.474 150.567L221.502 124.689L180.804 113.289ZM362.064 164.931L322.848 153.645L329.232 187.275L362.064 164.931ZM154.584 161.967L190.95 184.539L196.878 152.961L154.584 161.967Z" fill="#FCD116"/>
<path d="M0 200.499H513V342.999H0V200.499Z" fill="#003F87"/>
<path d="M0 305.378C17.1 305.378 34.2 320.198 51.3 320.198C68.4 320.198 85.5 305.378 102.6 305.378C119.7 305.378 136.8 320.198 153.9 320.198C171 320.198 188.1 305.378 205.2 305.378C222.3 305.378 239.4 320.198 256.5 320.198C273.6 320.198 290.7 305.378 307.8 305.378C324.9 305.378 342 320.198 359.1 320.198C376.2 320.198 393.3 305.378 410.4 305.378C427.5 305.378 444.6 320.198 461.7 320.198C478.8 320.198 495.9 305.378 513 305.378V281.438C495.9 281.438 478.8 296.258 461.7 296.258C444.6 296.258 427.5 281.438 410.4 281.438C393.3 281.438 376.2 296.258 359.1 296.258C342 296.258 324.9 281.438 307.8 281.438C290.7 281.438 273.6 296.258 256.5 296.258C239.4 296.258 222.3 281.438 205.2 281.438C188.1 281.438 171 296.258 153.9 296.258C136.8 296.258 119.7 281.438 102.6 281.438C85.5 281.438 68.4 296.258 51.3 296.258C34.2 296.258 17.1 281.438 0 281.438V305.378ZM0 256.358C17.1 256.358 34.2 271.178 51.3 271.178C68.4 271.178 85.5 256.358 102.6 256.358C119.7 256.358 136.8 271.178 153.9 271.178C171 271.178 188.1 256.358 205.2 256.358C222.3 256.358 239.4 271.178 256.5 271.178C273.6 271.178 290.7 256.358 307.8 256.358C324.9 256.358 342 271.178 359.1 271.178C376.2 271.178 393.3 256.358 410.4 256.358C427.5 256.358 444.6 271.178 461.7 271.178C478.8 271.178 495.9 256.358 513 256.358V232.418C495.9 232.418 478.8 247.238 461.7 247.238C444.6 247.238 427.5 232.418 410.4 232.418C393.3 232.418 376.2 247.238 359.1 247.238C342 247.238 324.9 232.418 307.8 232.418C290.7 232.418 273.6 247.238 256.5 247.238C239.4 247.238 222.3 232.418 205.2 232.418C188.1 232.418 171 247.238 153.9 247.238C136.8 247.238 119.7 232.418 102.6 232.418C85.5 232.418 68.4 247.238 51.3 247.238C34.2 247.238 17.1 232.418 0 232.418V256.358ZM0 207.338C17.1 207.338 34.2 222.158 51.3 222.158C68.4 222.158 85.5 207.338 102.6 207.338C119.7 207.338 136.8 222.158 153.9 222.158C171 222.158 188.1 207.338 205.2 207.338C222.3 207.338 239.4 222.158 256.5 222.158C273.6 222.158 290.7 207.338 307.8 207.338C324.9 207.338 342 222.158 359.1 222.158C376.2 222.158 393.3 207.338 410.4 207.338C427.5 207.338 444.6 222.158 461.7 222.158C478.8 222.158 495.9 207.338 513 207.338V183.398C495.9 183.398 478.8 198.218 461.7 198.218C444.6 198.218 427.5 183.398 410.4 183.398C393.3 183.398 376.2 198.218 359.1 198.218C342 198.218 324.9 183.398 307.8 183.398C290.7 183.398 273.6 198.218 256.5 198.218C239.4 198.218 222.3 183.398 205.2 183.398C188.1 183.398 171 198.218 153.9 198.218C136.8 198.218 119.7 183.398 102.6 183.398C85.5 183.398 68.4 198.218 51.3 198.218C34.2 198.218 17.1 183.398 0 183.398V207.338Z" fill="white"/>
<path fill-rule="evenodd" clip-rule="evenodd" d="M208.848 56.0606L207.594 50.0186L233.13 45.8006C233.13 45.8006 198.816 37.7066 187.53 33.6026C171.228 27.7886 168.948 19.8086 168.948 19.8086C168.948 19.8086 219.906 32.3486 242.82 32.3486C247.722 32.3486 257.412 44.5466 257.412 44.5466C257.412 44.5466 274.284 27.5606 282.378 26.9906C318.972 24.3686 358.302 19.6946 358.302 19.6946C358.302 19.6946 346.902 27.3326 340.062 29.3846C321.594 34.9706 282.378 42.7226 282.378 42.7226L276.906 51.2726H315.78L299.364 56.1746L307.8 64.0406C307.8 64.0406 298.908 59.3666 287.166 61.6466C279.072 63.1286 269.61 68.4866 261.06 70.7666C239.742 76.2386 226.974 56.1746 226.974 56.1746L208.848 56.0606Z" fill="#FCD116"/>
</g>
<defs>
<clipPath id="clip0_4349_29968">
<rect width="513" height="342" fill="white" transform="translate(0 0.998535)"/>
</clipPath>
</defs>
</svg>
