<svg width="513" height="343" viewBox="0 0 513 343" fill="none" xmlns="http://www.w3.org/2000/svg">
<g clip-path="url(#clip0_4349_29952)">
<path d="M0 0.998535H513V342.999H0V0.998535Z" fill="#D80027"/>
<path d="M512 0.998535H0V342.999" fill="#6DA544"/>
<path d="M307.7 0.998535L0 195.499V342.999H206.9L513 149.499V0.998535H307.7Z" fill="#FFDA44"/>
<path d="M513 0.998535H385.2L0 250.399V341.999L126.2 342.999L513 92.5985V0.998535Z" fill="black"/>
<path d="M141.1 187.998L172.3 211.998L204.6 189.798L191.5 226.798L222.6 250.698L183.4 249.598L170.2 286.598L159.1 248.998L119.9 247.898L152.2 225.698L141.1 187.998ZM310.6 71.7983L341.8 95.6983L374.1 73.4983L361 110.498L392.1 134.398L352.9 133.298L339.7 170.298L328.6 132.698L289.4 131.598L321.8 109.398L310.6 71.7983Z" fill="white"/>
</g>
<defs>
<clipPath id="clip0_4349_29952">
<rect width="513" height="342" fill="white" transform="translate(0 0.998535)"/>
</clipPath>
</defs>
</svg>
