<svg width="513" height="342" viewBox="0 0 513 342" fill="none" xmlns="http://www.w3.org/2000/svg">
<g clip-path="url(#clip0_4349_29944)">
<path d="M0 -0.00292969H513V342.001H0V-0.00292969Z" fill="#91DC5A"/>
<path d="M0 -0.00292969H513V342.001H0V-0.00292969Z" fill="white"/>
<path d="M0 -0.00292969H513V57.2968H0V-0.00292969ZM0 284.701H513V341.99H0V284.701Z" fill="#0052B4"/>
<path d="M0 80.0371H513V261.974H0V80.0371Z" fill="#D80027"/>
<path d="M190.702 236.79C227.04 236.79 256.498 207.332 256.498 170.994C256.498 134.655 227.04 105.197 190.702 105.197C154.363 105.197 124.905 134.655 124.905 170.994C124.905 207.332 154.363 236.79 190.702 236.79Z" fill="white"/>
<path d="M190.704 105.203L205.467 150.638H253.317L214.591 178.72L229.469 224.29L190.704 196.075L151.997 224.237L166.816 178.72L128.125 150.638H175.94L190.704 105.203Z" fill="#D80027"/>
</g>
<defs>
<clipPath id="clip0_4349_29944">
<rect width="513" height="342" fill="white" transform="translate(0 -0.000976562)"/>
</clipPath>
</defs>
</svg>
