<svg width="513" height="343" viewBox="0 0 513 343" fill="none" xmlns="http://www.w3.org/2000/svg">
<g clip-path="url(#clip0_4349_29911)">
<path d="M0 0.998535H513V342.999H0V0.998535Z" fill="#36B6CC"/>
<path d="M256.5 240.299C294.276 240.299 324.9 209.675 324.9 171.899C324.9 134.122 294.276 103.499 256.5 103.499C218.724 103.499 188.1 134.122 188.1 171.899C188.1 209.675 218.724 240.299 256.5 240.299Z" fill="#FFD400"/>
<path d="M256.5 252.499L228.6 294.199L221.5 244.499L178.3 269.999L193.5 222.199L143.5 226.399L177.9 189.899L131 171.899L177.8 153.899L143.4 117.399L193.4 121.599L178.2 73.7986L221.4 99.1986L228.5 49.4986L256.4 91.1986L284.3 49.4986L291.4 99.1986L334.6 73.7986L319.4 121.599L369.4 117.399L335.1 153.999L381.9 171.899L335.1 189.899L369.5 226.399L319.5 222.199L334.7 269.999L291.5 244.599L284.4 294.299C284.4 294.199 256.5 252.499 256.5 252.499ZM256.5 251.699C300.6 251.699 336.4 215.899 336.4 171.799C336.4 127.699 300.6 91.9986 256.5 91.9986C212.4 91.9986 176.6 127.799 176.6 171.899C176.6 215.999 212.4 251.699 256.5 251.699ZM22.8 29.2986C22.8 26.0986 25.2 23.5986 28.5 23.5986H39.8C43 23.5986 45.5 25.9986 45.5 29.2986V40.5986C45.6 43.6986 43.1 46.2986 39.9 46.2986H28.5C25.4 46.2986 22.8 43.7986 22.8 40.6986V29.2986ZM22.8 74.9986C22.8 71.7986 25.2 69.2986 28.5 69.2986H39.8C43 69.2986 45.5 71.6986 45.5 74.9986V86.2986C45.6 89.3986 43.1 91.9986 39.9 91.9986H28.5C25.4 91.9986 22.8 89.4986 22.8 86.3986V74.9986ZM22.8 120.599C22.8 117.399 25.2 114.899 28.5 114.899H39.8C43 114.899 45.5 117.299 45.5 120.599V131.899C45.6 134.999 43.1 137.599 39.9 137.599H28.5C25.4 137.599 22.8 135.099 22.8 131.999V120.599ZM22.8 166.199C22.8 162.999 25.2 160.499 28.5 160.499H39.8C43 160.499 45.5 162.899 45.5 166.199V177.499C45.6 180.599 43.1 183.199 39.9 183.199H28.5C25.4 183.199 22.8 180.699 22.8 177.599V166.199ZM22.8 211.899C22.8 208.699 25.2 206.199 28.5 206.199H39.8C43 206.199 45.5 208.599 45.5 211.899V223.199C45.6 226.299 43.1 228.899 39.9 228.899H28.5C25.4 228.899 22.8 226.399 22.8 223.299V211.899ZM22.8 257.499C22.8 254.299 25.2 251.799 28.5 251.799H39.8C43 251.799 45.5 254.199 45.5 257.499V268.799C45.6 271.899 43.1 274.499 39.9 274.499H28.5C25.4 274.499 22.8 271.999 22.8 268.899V257.499ZM22.8 303.099C22.8 299.899 25.2 297.399 28.5 297.399H39.8C43 297.399 45.5 299.799 45.5 303.099V314.399C45.6 317.499 43.1 320.099 39.9 320.099H28.5C25.4 320.099 22.8 317.599 22.8 314.499V303.099ZM45.6 280.299C45.6 277.099 48 274.599 51.3 274.599H62.6C65.8 274.599 68.3 276.999 68.3 280.299V291.599C68.4 294.699 65.9 297.299 62.7 297.299H51.3C48.2 297.299 45.6 294.799 45.6 291.699V280.299ZM45.6 234.699C45.6 231.499 48 228.999 51.3 228.999H62.6C65.8 228.999 68.3 231.399 68.3 234.699V245.999C68.4 249.099 65.9 251.699 62.7 251.699H51.3C48.2 251.699 45.6 249.199 45.6 246.099V234.699ZM45.6 188.999C45.6 185.799 48 183.299 51.3 183.299H62.6C65.8 183.299 68.3 185.699 68.3 188.999V200.299C68.4 203.399 65.9 205.999 62.7 205.999H51.3C48.2 205.999 45.6 203.499 45.6 200.399V188.999ZM45.6 143.399C45.6 140.199 48 137.699 51.3 137.699H62.6C65.8 137.699 68.3 140.099 68.3 143.399V154.699C68.4 157.799 65.9 160.399 62.7 160.399H51.3C48.2 160.399 45.6 157.899 45.6 154.799V143.399ZM45.6 97.7986C45.6 94.5986 48 92.0986 51.3 92.0986H62.6C65.8 92.0986 68.3 94.4986 68.3 97.7986V109.099C68.4 112.199 65.9 114.799 62.7 114.799H51.3C48.2 114.799 45.6 112.299 45.6 109.199V97.7986ZM45.6 52.1986C45.6 48.9986 48 46.4986 51.3 46.4986H62.6C65.8 46.4986 68.3 48.8986 68.3 52.1986V63.4986C68.4 66.5986 65.9 69.1986 62.7 69.1986H51.3C48.2 69.1986 45.6 66.6986 45.6 63.5986V52.1986Z" fill="#FFD400"/>
</g>
<defs>
<clipPath id="clip0_4349_29911">
<rect width="513" height="342" fill="white" transform="translate(0 0.998535)"/>
</clipPath>
</defs>
</svg>
