<svg width="513" height="343" viewBox="0 0 513 343" fill="none" xmlns="http://www.w3.org/2000/svg">
<g clip-path="url(#clip0_4349_29900)">
<path d="M0 0.99707H513V342.997H0V0.99707Z" fill="white"/>
<path d="M0 1.19707H513V91.8971H0V1.19707ZM0.5 252.297H513V342.997H0.5V252.297Z" fill="#D80027"/>
<path d="M290.3 194.497L256 131.697L221.7 194.497H247.4V211.697H264.6V194.497H290.3Z" fill="#6DA544"/>
<path d="M241.3 214.097C245.7 209.697 245.7 202.497 241.2 198.097L245.9 202.797C240.7 198.097 233.7 196.197 226.8 197.497L203.3 203.397C197.2 204.897 196.5 202.997 201.5 199.197L228.6 178.897C233.7 175.097 232.8 171.997 226.3 171.997H215.3C208.9 171.997 208.3 169.697 213.8 166.897L239.1 154.197C244.7 151.397 244.2 149.097 237.6 149.097H226.6C220.2 149.097 219.2 145.997 224.3 142.197L251.4 121.897C257 118.097 264.3 118.097 269.9 121.897L297 142.197C302.1 145.997 301.2 149.097 294.7 149.097H283.7C277.3 149.097 276.7 151.397 282.2 154.197L307.5 166.897C313.1 169.697 312.6 171.997 306 171.997H295C288.6 171.997 287.6 175.097 292.7 178.897L319.8 199.197C324.9 202.997 324.2 204.897 318 203.397L294.5 197.497C287.7 196.197 280.6 198.097 275.4 202.797L280.1 198.097C275.7 202.497 275.6 209.597 280 214.097L286.8 220.897C291.2 225.297 289.9 228.897 283.5 228.897H237.7C231.5 228.897 230 225.297 234.4 220.897C234.5 220.997 241.3 214.097 241.3 214.097Z" fill="#14AF5A"/>
</g>
<defs>
<clipPath id="clip0_4349_29900">
<rect width="513" height="342" fill="white" transform="translate(0 0.99707)"/>
</clipPath>
</defs>
</svg>
