<svg width="513" height="343" viewBox="0 0 513 343" fill="none" xmlns="http://www.w3.org/2000/svg">
<g clip-path="url(#clip0_4349_29852)">
<path d="M0 1.00159H513V342.994H0V1.00159Z" fill="black"/>
<path d="M0 1.00159H513V114.999H0V1.00159Z" fill="#D80027"/>
<path d="M0 228.997H513V342.994H0V228.997Z" fill="#496E2D"/>
<path d="M281.974 151.985L290.953 164.359L305.495 159.644L296.502 172.007L305.48 184.38L290.943 179.647L281.95 192.011L281.96 176.723L267.421 171.989L281.964 167.274L281.974 151.985Z" fill="white"/>
<path d="M257.467 202.926C240.386 202.926 226.539 189.078 226.539 171.998C226.539 154.918 240.387 141.07 257.467 141.07C262.604 141.062 267.662 142.34 272.18 144.787C265.315 138.076 255.93 133.933 245.572 133.933C224.549 133.933 207.505 150.976 207.505 171.999C207.505 193.022 224.549 210.065 245.572 210.065C255.93 210.065 265.316 205.922 272.18 199.211C267.662 201.657 262.604 202.934 257.467 202.926Z" fill="white"/>
</g>
<defs>
<clipPath id="clip0_4349_29852">
<rect width="513" height="342" fill="white" transform="translate(0 0.997559)"/>
</clipPath>
</defs>
</svg>
