<svg width="513" height="343" viewBox="0 0 513 343" fill="none" xmlns="http://www.w3.org/2000/svg">
<g clip-path="url(#clip0_4349_29836)">
<path d="M0 0.997559H513V342.998H0V0.997559Z" fill="#E6BE53"/>
<path d="M20 20.9976H493V322.998H20V20.9976Z" fill="#E01D24"/>
<path d="M248.5 113.898C252.9 118.298 260.1 118.298 264.5 113.898L259.8 118.598L282.5 95.8976C287.4 91.3976 294.6 90.2976 300.7 93.0976L302.8 94.0976C308.5 96.9976 309.5 102.798 305.1 107.198L309.8 102.498L287 125.298C282.5 130.198 281.4 137.398 284.2 143.498L285.2 145.598C288.1 151.298 290.3 160.998 290.3 167.198V155.898C290.3 162.098 294.7 164.998 300.5 162.098L302.6 161.098C308.3 158.198 309.3 152.398 304.9 147.998L309.6 152.698C305.2 148.298 305.2 141.098 309.6 136.698L304.9 141.398C310.1 135.898 314.5 129.798 318 123.198L319 121.098C321.9 115.398 325.3 105.998 326.9 99.8976L332.7 76.5976C334.2 70.5976 338.6 69.7976 342.3 74.7976L362.5 101.698C366.3 106.798 369.4 115.698 369.4 122.298V144.698C369.4 150.998 367.2 160.498 364.3 166.398L363.3 168.498C359.8 175.098 355.4 181.198 350.2 186.698L343.4 193.498C338 198.698 331.9 203.098 325.2 206.598L323.1 207.598C317.4 210.498 307.6 212.698 301.5 212.698C295.3 212.698 294.6 214.898 300.4 217.798L302.5 218.798C308.2 221.698 316.3 227.498 320.7 231.898L316 227.198C320.4 231.598 327.6 231.598 332 227.198L327.3 231.898C331.7 227.498 338.9 227.498 343.3 231.898L339 226.998C343.6 231.898 344.7 239.098 341.9 245.198L340.9 247.298C338 252.998 330.5 257.498 324.5 257.498C317 257.198 309.7 255.498 302.9 252.398L300.8 251.398C294.3 247.798 289 242.498 285.4 235.998L284.4 233.898C281.5 228.198 275.7 227.198 271.3 231.598L276 226.898C271.6 231.598 270.8 238.698 274.2 244.198L284.5 259.598C287.9 264.698 286.5 271.698 281.4 275.098L266 285.398C260.3 288.798 253.2 288.798 247.4 285.398L232 275.098C226.9 271.698 225.5 264.798 228.9 259.598L239.2 244.198C242.6 238.698 241.8 231.598 237.4 226.898L242.1 231.598C237.7 227.198 231.9 227.998 229 233.898L228 235.998C225.1 241.698 218.5 248.398 212.6 251.398L210.5 252.398C204.8 255.298 195 257.498 188.9 257.498C182 257.198 175.8 253.298 172.5 247.298L171.5 245.198C168.7 239.098 169.9 231.898 174.4 226.998L169.7 231.698C174.1 227.298 181.3 227.298 185.7 231.698L181 226.998C185.4 231.398 192.6 231.398 197 226.998L192.3 231.698C197.8 226.498 203.9 222.098 210.5 218.598L212.6 217.598C218.3 214.698 217.6 212.498 211.5 212.498C204 212.198 196.7 210.498 189.9 207.398L187.8 206.398C181.2 202.898 175.1 198.498 169.6 193.298L162.8 186.498C157.6 181.098 153.2 174.998 149.7 168.298L148.7 166.198C145.6 159.398 143.8 151.998 143.6 144.498V121.998C143.6 115.698 146.7 106.398 150.5 101.398L170.7 74.4976C174.5 69.3976 178.8 70.1976 180.3 76.2976L186.1 99.5976C188.1 106.898 190.7 113.998 194 120.798L195 122.898C197.9 128.598 203.7 136.698 208.1 141.098L203.4 136.398C207.8 140.798 207.8 147.998 203.4 152.398L208.1 147.698C203.7 152.098 204.5 157.898 210.4 160.798L212.5 161.798C218.2 164.698 222.7 161.798 222.7 155.598V166.898C222.7 160.698 224.9 151.198 227.8 145.298L228.8 143.198C231.6 137.098 230.5 129.998 226 124.998L203.3 102.298L208 106.998C203.6 102.598 204.4 96.7976 210.3 93.8976L212.4 92.8976C218.5 90.0976 225.6 91.1976 230.6 95.6976L253.3 118.398L248.5 113.898ZM230.5 73.1976C226.1 68.7976 227.3 63.6976 233.3 61.6976L245.7 57.4976C251.7 55.4976 261.2 55.4976 267.2 57.4976L279.6 61.6976C285.6 63.6976 286.8 68.7976 282.4 73.1976L275.6 79.9976C270.3 84.6976 263.5 87.4976 256.4 87.8976C250.2 87.8976 241.6 84.3976 237.2 79.9976C237.3 79.9976 230.5 73.1976 230.5 73.1976Z" fill="#E6BE53"/>
<path d="M233.9 201.198C233.9 207.398 235.6 207.598 238.1 201.698C238.1 201.698 245.2 178.498 256.5 178.498C267.8 178.498 275.1 202.098 275.1 202.098C277.3 207.798 279.1 207.398 279.1 200.998V189.798C279.1 171.098 269 155.898 256.5 155.898C244 155.898 233.9 171.098 233.9 189.798V201.198Z" fill="#215F90"/>
</g>
<defs>
<clipPath id="clip0_4349_29836">
<rect width="513" height="342" fill="white" transform="translate(0 0.997559)"/>
</clipPath>
</defs>
</svg>
