<svg width="513" height="343" viewBox="0 0 513 343" fill="none" xmlns="http://www.w3.org/2000/svg">
<g clip-path="url(#clip0_4349_29821)">
<path d="M0 0.998047H513V342.998H0V0.998047Z" fill="#1E509C"/>
<path d="M513 177.098V82.298L0 342.998L513 177.098Z" fill="white"/>
<path d="M513 0.998047V82.298L0 342.998L513 0.998047Z" fill="#F18D36"/>
<path d="M126.7 100.298L118.9 46.198L111.2 100.298L90.4 76.598L101.1 108.198L69.6 97.498L93.2 118.298L39.1 125.998L93.2 133.698L69.6 154.498L101.1 143.798L90.4 175.398L111.2 151.698L118.9 205.798L126.7 151.698L147.4 175.398L136.8 143.798L168.3 154.498L144.7 133.698L198.7 125.998L144.7 118.298L168.3 97.498L136.8 108.198L147.4 76.598L126.7 100.298Z" fill="white"/>
</g>
<defs>
<clipPath id="clip0_4349_29821">
<rect width="513" height="342" fill="white" transform="translate(0 0.998047)"/>
</clipPath>
</defs>
</svg>
