<svg width="513" height="342" viewBox="0 0 513 342" fill="none" xmlns="http://www.w3.org/2000/svg">
<g clip-path="url(#clip0_4349_29815)">
<path d="M0 -0.000976562H513V342.003H0V-0.000976562Z" fill="#FFDA44"/>
<path d="M384.625 341.995L256.5 167.278L283.379 341.995H384.625ZM133.826 -0.00390625L256.5 167.278L230.764 -0.00390625H133.826ZM229.619 341.995L256.5 167.278L128.374 341.995H229.619ZM0 -0.00390625V127.815L256.5 167.278L28.3883 -0.00390625H0ZM0 341.995H18.2476L256.5 167.278L0 206.739V341.995ZM256.5 167.278L513 127.815V-0.00390625H484.614L256.5 167.278ZM282.236 -0.00390625L256.5 167.278L379.173 -0.00390625H282.236ZM513 341.995V206.74L256.5 167.278L494.751 341.995H513Z" fill="#D80027"/>
<path d="M256.5 226.757C289.347 226.757 315.975 200.129 315.975 167.282C315.975 134.435 289.347 107.807 256.5 107.807C223.653 107.807 197.025 134.435 197.025 167.282C197.025 200.129 223.653 226.757 256.5 226.757Z" fill="#D80027"/>
<path d="M256.5 211.891C281.137 211.891 301.109 191.919 301.109 167.282C301.109 142.645 281.137 122.673 256.5 122.673C231.863 122.673 211.891 142.645 211.891 167.282C211.891 191.919 231.863 211.891 256.5 211.891Z" fill="#FFDA44"/>
</g>
<defs>
<clipPath id="clip0_4349_29815">
<rect width="513" height="342" fill="white" transform="translate(0 -0.000976562)"/>
</clipPath>
</defs>
</svg>
