<svg width="513" height="342" viewBox="0 0 513 342" fill="none" xmlns="http://www.w3.org/2000/svg">
<g clip-path="url(#clip0_4349_29796)">
<path d="M0 -0.000976562H513V341.999H0V-0.000976562Z" fill="#095FAD"/>
<path d="M342 -0.000976562H513V341.999H342V-0.000976562ZM0 -0.000976562H171V341.999H0V-0.000976562Z" fill="#BE1229"/>
<path d="M108.3 166.299H123.1V240.499H108.3V166.299ZM48.9 166.299H63.7V240.499H48.9V166.299Z" fill="#FFDA44"/>
<path d="M86.0001 218.199C94.1739 218.199 100.8 211.572 100.8 203.399C100.8 195.225 94.1739 188.599 86.0001 188.599C77.8263 188.599 71.2001 195.225 71.2001 203.399C71.2001 211.572 77.8263 218.199 86.0001 218.199Z" fill="#FFDA44"/>
<path d="M71.2001 225.699H100.9V240.499H71.2001V225.699ZM71.2001 166.299H100.9V181.099H71.2001V166.299Z" fill="#FFDA44"/>
<path d="M86.0001 158.799C94.1739 158.799 100.8 152.173 100.8 143.999C100.8 135.825 94.1739 129.199 86.0001 129.199C77.8263 129.199 71.2001 135.825 71.2001 143.999C71.2001 152.173 77.8263 158.799 86.0001 158.799Z" fill="#FFDA44"/>
<path d="M76.3 123.899H95.8L86 108.299L76.3 123.899Z" fill="#FFDA44"/>
</g>
<defs>
<clipPath id="clip0_4349_29796">
<rect width="513" height="342" fill="white" transform="translate(0 -0.000976562)"/>
</clipPath>
</defs>
</svg>
