<svg width="513" height="342" viewBox="0 0 513 342" fill="none" xmlns="http://www.w3.org/2000/svg">
<g clip-path="url(#clip0_4349_29777)">
<path d="M0 0H513V342H0V0Z" fill="#0071BC"/>
<path d="M256.5 321.481C341.497 321.481 410.4 252.577 410.4 167.581C410.4 82.584 341.497 13.6807 256.5 13.6807C171.503 13.6807 102.6 82.584 102.6 167.581C102.6 252.577 171.503 321.481 256.5 321.481Z" fill="white"/>
<path fill-rule="evenodd" clip-rule="evenodd" d="M256.5 14.6305C172.028 14.6305 103.55 83.1085 103.55 167.58C103.55 252.052 172.028 320.53 256.5 320.53C340.972 320.53 409.45 252.052 409.45 167.58C409.45 83.1085 340.972 14.6305 256.5 14.6305ZM101.65 167.58C101.65 82.0592 170.979 12.7305 256.5 12.7305C342.021 12.7305 411.35 82.0592 411.35 167.58C411.35 253.102 342.021 322.431 256.5 322.431C170.979 322.431 101.65 253.102 101.65 167.58Z" fill="black"/>
<path d="M256.5 280.441C318.831 280.441 369.36 229.912 369.36 167.581C369.36 105.25 318.831 54.7207 256.5 54.7207C194.169 54.7207 143.64 105.25 143.64 167.581C143.64 229.912 194.169 280.441 256.5 280.441Z" fill="#0071BC"/>
<path fill-rule="evenodd" clip-rule="evenodd" d="M256.5 55.6705C194.694 55.6705 144.59 105.774 144.59 167.581C144.59 229.387 194.694 279.491 256.5 279.491C318.306 279.491 368.41 229.387 368.41 167.581C368.41 105.774 318.306 55.6705 256.5 55.6705ZM142.69 167.581C142.69 104.725 193.645 53.7705 256.5 53.7705C319.356 53.7705 370.31 104.725 370.31 167.581C370.31 230.436 319.356 281.391 256.5 281.391C193.645 281.391 142.69 230.436 142.69 167.581Z" fill="black"/>
<path d="M304.175 307.8C304.654 315.324 298.84 321.48 291.316 321.48H221.342C213.818 321.48 208.004 315.324 208.346 307.8L219.769 85.5003C220.18 77.9763 226.609 71.8203 234.133 71.8203H276.131C283.655 71.8203 290.153 77.9763 290.632 85.5003L304.175 307.8Z" fill="#8C8A8C"/>
<path fill-rule="evenodd" clip-rule="evenodd" d="M220.718 85.5501C220.718 85.5507 220.718 85.5513 220.718 85.5519L209.295 307.843C209.295 307.844 209.295 307.845 209.295 307.846C208.979 314.835 214.368 320.53 221.342 320.53H291.316C298.294 320.53 303.671 314.834 303.227 307.86L303.227 307.858L289.684 85.5604C289.684 85.56 289.683 85.5595 289.683 85.559C289.235 78.5301 283.147 72.7701 276.131 72.7701H234.133C227.121 72.7701 221.102 78.5243 220.718 85.5501ZM218.821 85.4484C219.258 77.427 226.098 70.8701 234.133 70.8701H276.131C284.162 70.8701 291.069 77.4213 291.58 85.4398L291.58 85.4423L305.123 307.74C305.123 307.74 305.123 307.741 305.123 307.741C305.636 315.815 299.385 322.43 291.316 322.43H221.342C213.27 322.43 207.031 315.815 207.397 307.757L207.398 307.751H207.398L218.82 85.4514L218.821 85.4484Z" fill="black"/>
<path d="M255.132 77.9761L275.652 141.588H342L288.648 179.892L308.484 242.82L255.132 204.516L201.78 243.504L222.3 179.892L168.264 140.904H234.612L255.132 77.9761Z" fill="white"/>
<path fill-rule="evenodd" clip-rule="evenodd" d="M255.134 76.9761C255.567 76.9768 255.951 77.2566 256.084 77.6691L276.38 140.588H342C342.434 140.588 342.819 140.868 342.952 141.282C343.085 141.695 342.936 142.147 342.583 142.4L289.819 180.282L309.438 242.519C309.567 242.93 309.419 243.377 309.07 243.63C308.722 243.883 308.251 243.884 307.901 243.632L255.137 205.751L202.37 244.311C202.02 244.567 201.545 244.568 201.194 244.315C200.843 244.061 200.695 243.609 200.828 243.197L221.125 180.277L167.679 141.715C167.327 141.461 167.179 141.009 167.312 140.597C167.446 140.184 167.83 139.904 168.264 139.904H233.886L254.181 77.6661C254.316 77.254 254.7 76.9754 255.134 76.9761ZM255.127 81.2174L235.563 141.214C235.429 141.626 235.045 141.904 234.612 141.904H171.359L222.885 179.081C223.237 179.335 223.385 179.786 223.252 180.199L203.678 240.879L254.542 203.709C254.891 203.454 255.364 203.452 255.715 203.704L306.627 240.256L287.694 180.193C287.564 179.781 287.714 179.332 288.065 179.08L338.892 142.588H275.652C275.218 142.588 274.834 142.308 274.7 141.895L255.127 81.2174Z" fill="black"/>
</g>
<defs>
<clipPath id="clip0_4349_29777">
<rect width="513" height="342" fill="white"/>
</clipPath>
</defs>
</svg>
