<svg width="513" height="342" viewBox="0 0 513 342" fill="none" xmlns="http://www.w3.org/2000/svg">
<g clip-path="url(#clip0_4349_29772)">
<path d="M0 -0.000976562H513V341.999H0V-0.000976562Z" fill="#0052B4"/>
<path d="M512 148.399V192.899H278.3V341.299H233.7V192.899H0V148.399H233.7V-0.000976562H278.3V148.399H512Z" fill="white"/>
<path d="M101 36.0992C105.2 35.8992 109.3 35.9992 113.5 36.2992C119 36.6992 122.9 37.8992 122.6 36.7992C122.1 34.9992 122.5 34.5992 121.8 34.9992C120.5 35.9992 122.5 34.7992 114.4 39.3992C102.6 46.0992 97.5 51.1992 100.1 60.3992C102.4 68.4992 108.3 70.6992 122.4 72.8992L124.3 73.1992C129.9 74.0992 132.4 74.5992 134.1 75.3992C134.5 75.5992 133.8 74.3992 134 73.6992C133.8 74.2992 130.1 75.7992 120.7 77.5992L116 78.4992C97.9 82.1992 88.9 86.9992 87.5 99.4992C86 113.199 100.2 122.799 118.1 125.099C136.3 127.499 152.2 121.499 153.8 106.699C154.8 97.2992 148.3 91.6992 137.9 89.5992C130.9 88.1992 121.6 88.1992 110.5 89.2992C98.1 90.5992 85.8 92.6992 73.6 95.5992C70 96.2992 67.7 99.7992 68.4 103.399C69.1 106.999 72.6 109.299 76.2 108.599C76.4 108.599 76.5 108.499 76.7 108.499C88.3 105.799 100 103.799 111.8 102.599C121.7 101.599 129.8 101.599 135.2 102.699C139.6 103.599 140.5 104.399 140.4 105.299C139.9 110.399 131.5 113.499 119.7 111.999C108.1 110.499 100.2 105.199 100.6 100.999C101.1 96.6992 105.9 94.1992 118.5 91.5992L123.1 90.6992C138.6 87.6992 144.2 85.3992 146.6 77.4992C148.5 70.9992 145.3 65.8992 139.4 63.2992C136.2 61.8992 133.1 61.1992 126.2 60.1992L124.4 59.8992C116.4 58.5992 113 57.2992 112.9 56.8992C112.8 56.4992 114.7 54.5992 121 50.9992L125.4 48.4992C126.9 47.6992 128.3 46.6992 129.7 45.7992C134.3 42.3992 136.9 38.6992 135.5 33.4992C133.6 26.1992 126.5 23.9992 114.6 23.0992C109.9 22.7992 105.3 22.6992 100.6 22.7992L98.6 22.8992C94.9 23.0992 92.1 26.2992 92.3 29.8992C92.5 33.5992 95.7 36.3992 99.3 36.1992L101 36.0992ZM385 36.0992C389.2 35.8992 393.3 35.9992 397.5 36.2992C403 36.6992 406.9 37.8992 406.6 36.7992C406.1 34.9992 406.5 34.5992 405.8 34.9992C404.5 35.9992 406.5 34.7992 398.4 39.3992C386.6 46.0992 381.5 51.1992 384.1 60.3992C386.4 68.4992 392.3 70.6992 406.4 72.8992L408.3 73.1992C413.9 74.0992 416.4 74.5992 418.1 75.3992C418.5 75.5992 417.8 74.3992 418 73.6992C417.8 74.2992 414.1 75.7992 404.7 77.5992L400 78.4992C381.9 82.1992 372.9 86.9992 371.5 99.4992C370 113.199 384.2 122.799 402.1 125.099C420.3 127.499 436.2 121.499 437.8 106.699C438.8 97.2992 432.3 91.6992 421.9 89.5992C414.9 88.1992 405.6 88.1992 394.5 89.2992C382.1 90.5992 369.8 92.6992 357.6 95.5992C354 96.2992 351.7 99.7992 352.4 103.399C353.1 106.999 356.6 109.299 360.2 108.599C360.4 108.599 360.5 108.499 360.7 108.499C372.3 105.799 384 103.799 395.8 102.599C405.7 101.599 413.8 101.599 419.2 102.699C423.6 103.599 424.5 104.399 424.4 105.299C423.9 110.399 415.5 113.499 403.7 111.999C392.1 110.499 384.2 105.199 384.6 100.999C385.1 96.6992 389.9 94.1992 402.5 91.5992L407.1 90.6992C422.6 87.6992 428.2 85.3992 430.6 77.4992C432.5 70.9992 429.3 65.8992 423.4 63.2992C420.2 61.8992 417.1 61.1992 410.2 60.1992L408.4 59.8992C400.4 58.5992 397 57.2992 396.9 56.8992C396.8 56.4992 398.7 54.5992 405 50.9992L409.4 48.4992C410.9 47.6992 412.3 46.6992 413.7 45.7992C418.3 42.3992 420.9 38.6992 419.5 33.4992C417.6 26.1992 410.5 23.9992 398.6 23.0992C393.9 22.7992 389.3 22.6992 384.6 22.7992L382.6 22.8992C378.9 23.0992 376.1 26.2992 376.3 29.8992C376.5 33.5992 379.7 36.3992 383.3 36.1992L385 36.0992ZM379.6 235.099C383.8 234.899 387.9 234.999 392.1 235.299C397.6 235.699 401.5 236.899 401.2 235.799C400.7 233.999 401.1 233.599 400.4 233.999C399.1 234.999 401.1 233.799 393 238.399C381.2 245.099 376.1 250.199 378.7 259.399C381 267.499 386.9 269.699 401 271.899L402.9 272.199C408.5 273.099 411 273.599 412.7 274.399C413.1 274.599 412.4 273.399 412.6 272.699C412.4 273.299 408.7 274.799 399.3 276.599L394.6 277.499C376.5 281.199 367.5 285.999 366.1 298.499C364.6 312.199 378.8 321.799 396.7 324.099C414.9 326.499 430.8 320.499 432.4 305.699C433.4 296.299 426.9 290.699 416.5 288.599C409.5 287.199 400.2 287.199 389.1 288.299C376.7 289.599 364.4 291.699 352.2 294.599C348.6 295.299 346.3 298.799 347 302.399C347.7 305.999 351.2 308.299 354.8 307.599C355 307.599 355.1 307.499 355.3 307.499C366.9 304.799 378.6 302.799 390.4 301.599C400.3 300.599 408.4 300.599 413.8 301.699C418.2 302.599 419.1 303.399 419 304.299C418.5 309.399 410.1 312.499 398.3 310.999C386.7 309.499 378.8 304.199 379.2 299.999C379.7 295.699 384.5 293.199 397.1 290.599L401.7 289.699C417.2 286.699 422.8 284.399 425.2 276.499C427.1 269.999 423.9 264.899 418 262.299C414.8 260.899 411.7 260.199 404.8 259.199L403 258.899C395 257.599 391.6 256.299 391.5 255.899C391.4 255.499 393.3 253.599 399.6 249.999L404 247.499C405.5 246.699 406.9 245.699 408.3 244.799C412.9 241.399 415.5 237.699 414.1 232.499C412.2 225.199 405.1 222.999 393.2 222.099C388.5 221.799 383.9 221.699 379.2 221.799L377.2 221.899C373.5 222.099 370.7 225.299 370.9 228.899C371.1 232.499 374.3 235.399 377.9 235.199L379.6 235.099ZM101 235.099C105.2 234.899 109.3 234.999 113.5 235.299C119 235.699 122.9 236.899 122.6 235.799C122.1 233.999 122.5 233.599 121.8 233.999C120.5 234.999 122.5 233.799 114.4 238.399C102.6 245.099 97.5 250.199 100.1 259.399C102.4 267.499 108.3 269.699 122.4 271.899L124.3 272.199C129.9 273.099 132.4 273.599 134.1 274.399C134.5 274.599 133.8 273.399 134 272.699C133.8 273.299 130.1 274.799 120.7 276.599L116 277.499C97.9 281.199 88.9 285.999 87.5 298.499C86 312.199 100.2 321.799 118.1 324.099C136.3 326.499 152.2 320.499 153.8 305.699C154.8 296.299 148.3 290.699 137.9 288.599C130.9 287.199 121.6 287.199 110.5 288.299C98.1 289.599 85.8 291.699 73.6 294.599C70 295.299 67.7 298.799 68.4 302.399C69.1 305.999 72.6 308.299 76.2 307.599C76.4 307.599 76.5 307.499 76.7 307.499C88.3 304.799 100 302.799 111.8 301.599C121.7 300.599 129.8 300.599 135.2 301.699C139.6 302.599 140.5 303.399 140.4 304.299C139.9 309.399 131.5 312.499 119.7 310.999C108.1 309.499 100.2 304.199 100.6 299.999C101.1 295.699 105.9 293.199 118.5 290.599L123.1 289.699C138.6 286.699 144.2 284.399 146.6 276.499C148.5 269.999 145.3 264.899 139.4 262.299C136.2 260.899 133.1 260.199 126.2 259.199L124.4 258.899C116.4 257.599 113 256.299 112.9 255.899C112.8 255.499 114.7 253.599 121 249.999L125.4 247.499C126.9 246.699 128.3 245.699 129.7 244.799C134.3 241.399 136.9 237.699 135.5 232.499C133.6 225.199 126.5 222.999 114.6 222.099C109.9 221.799 105.3 221.699 100.6 221.799L98.6 221.899C94.9 222.099 92.1 225.299 92.3 228.899C92.5 232.599 95.7 235.399 99.3 235.199L101 235.099Z" fill="white"/>
</g>
<defs>
<clipPath id="clip0_4349_29772">
<rect width="513" height="342" fill="white" transform="translate(0 -0.000976562)"/>
</clipPath>
</defs>
</svg>
