<svg width="513" height="342" viewBox="0 0 513 342" fill="none" xmlns="http://www.w3.org/2000/svg">
<g clip-path="url(#clip0_4349_29767)">
<path d="M0 -0.00244141H513V342.001H0V-0.00244141Z" fill="#496E2D"/>
<path d="M256.5 213.934C210.454 213.934 171.987 181.573 162.55 138.358C161.066 145.128 160.316 152.039 160.312 158.97C160.312 212.094 203.375 255.158 256.5 255.158C309.625 255.158 352.688 212.094 352.688 158.97C352.688 151.89 351.901 145.001 350.45 138.358C341.013 181.573 302.546 213.934 256.5 213.934Z" fill="#FFDA44"/>
<path d="M256.499 86.8296L265.451 114.385H294.426L270.986 131.414L279.94 158.971L256.499 141.94L233.059 158.971L242.014 131.414L218.574 114.385H247.546L256.499 86.8296Z" fill="#FFDA44"/>
</g>
<defs>
<clipPath id="clip0_4349_29767">
<rect width="513" height="342" fill="white" transform="translate(0 -0.000488281)"/>
</clipPath>
</defs>
</svg>
