<svg width="513" height="342" viewBox="0 0 513 342" fill="none" xmlns="http://www.w3.org/2000/svg">
<g clip-path="url(#clip0_4349_29753)">
<path d="M0 -0.000976562H513V341.999H0V-0.000976562Z" fill="#1B4991"/>
<path d="M318.2 106.699V213.199C318.2 265.099 386 280.999 386 280.999C386 280.999 453.8 265.099 453.8 213.199V106.699H318.2Z" fill="#00A2B8"/>
<path fill-rule="evenodd" clip-rule="evenodd" d="M316.7 105.199H455.3V213.199C455.3 239.909 437.829 257.258 420.688 267.838C412.101 273.138 403.526 276.789 397.104 279.114C393.891 280.277 391.211 281.111 389.33 281.655C388.389 281.927 387.648 282.127 387.139 282.259C386.884 282.326 386.688 282.375 386.554 282.408C386.487 282.425 386.435 282.437 386.4 282.446L386.359 282.455L386.344 282.459C386.343 282.459 386.342 282.459 386 280.999C385.657 282.459 385.657 282.459 385.656 282.459L385.641 282.455L385.6 282.446C385.565 282.437 385.513 282.425 385.446 282.408C385.312 282.375 385.115 282.326 384.861 282.259C384.352 282.127 383.611 281.927 382.67 281.655C380.789 281.111 378.109 280.277 374.895 279.114C368.474 276.789 359.899 273.138 351.312 267.838C334.171 257.258 316.7 239.909 316.7 213.199V105.199ZM386 280.999L385.657 282.459L386 282.54L386.342 282.459L386 280.999ZM386 279.454C386.105 279.428 386.233 279.395 386.384 279.356C386.868 279.23 387.583 279.038 388.497 278.773C390.323 278.245 392.94 277.431 396.083 276.293C402.374 274.015 410.749 270.447 419.112 265.285C435.871 254.94 452.3 238.389 452.3 213.199V108.199H319.7V213.199C319.7 238.389 336.129 254.94 352.888 265.285C361.251 270.447 369.626 274.015 375.917 276.293C379.06 277.431 381.677 278.245 383.503 278.773C384.417 279.038 385.132 279.23 385.616 279.356C385.767 279.395 385.895 279.428 386 279.454Z" fill="white"/>
<path d="M319.7 212.699C319.7 263.499 386 278.999 386 278.999C386 278.999 452.3 263.399 452.3 212.699H319.7Z" fill="#A35023"/>
<path d="M415.1 155.099H395.7V135.699H376.3V155.099H357V174.499H376.3V232.599H395.7V174.499H415.1V155.099Z" fill="black"/>
<path d="M256 -0.000976562V30.599L210.8 55.699H256V114.999H196.9L256 147.799V170.699H229.3L155.8 129.799V170.699H100.2V122.099L12.7 170.699H0V140.099L45.2 114.999H0V55.699H59.1L0 22.799V-0.000976562H26.7L100.2 40.799V-0.000976562H155.8V48.599L243.3 -0.000976562H256Z" fill="white"/>
<path d="M144 -0.000976562H112V69.299H0V101.299H112V170.699H144V101.299H256V69.299H144V-0.000976562Z" fill="#D80027"/>
<path d="M155.8 114.999L256 170.699V154.899L184.2 114.999H155.8Z" fill="#0052B4"/>
<path d="M155.8 114.999L256 170.699V154.899L184.2 114.999H155.8Z" fill="white"/>
<path d="M155.8 114.999L256 170.699V154.899L184.2 114.999H155.8ZM71.8 114.999L0 154.899V170.699L100.2 114.999H71.8Z" fill="#D80027"/>
<path d="M100.2 55.599L0 -0.000976562V15.699L71.8 55.599H100.2Z" fill="#0052B4"/>
<path d="M100.2 55.599L0 -0.000976562V15.699L71.8 55.599H100.2Z" fill="white"/>
<path d="M100.2 55.599L0 -0.000976562V15.699L71.8 55.599H100.2ZM184.2 55.599L256 15.699V-0.000976562L155.8 55.599H184.2Z" fill="#D80027"/>
</g>
<defs>
<clipPath id="clip0_4349_29753">
<rect width="513" height="342" fill="white" transform="translate(0 -0.000976562)"/>
</clipPath>
</defs>
</svg>
