<svg width="513" height="342" viewBox="0 0 513 342" fill="none" xmlns="http://www.w3.org/2000/svg">
<g clip-path="url(#clip0_4349_29739)">
<path d="M0 -0.00292969H513V341.997H0V-0.00292969Z" fill="#D01920"/>
<path d="M144.979 89.2148H368.022V252.784H144.979V89.2148Z" fill="#017C3B"/>
<path d="M284.038 219.32C257.349 219.32 235.712 197.684 235.712 170.994C235.712 144.304 257.348 122.667 284.038 122.667C292.36 122.667 300.189 124.771 307.026 128.476C296.302 117.988 281.635 111.516 265.45 111.516C232.602 111.516 205.973 138.145 205.973 170.994C205.973 203.843 232.602 230.471 265.45 230.471C281.636 230.471 296.302 223.998 307.026 213.511C300.19 217.217 292.361 219.32 284.038 219.32Z" fill="white"/>
</g>
<defs>
<clipPath id="clip0_4349_29739">
<rect width="513" height="342" fill="white" transform="translate(0 -0.000976562)"/>
</clipPath>
</defs>
</svg>
