<svg width="513" height="343" viewBox="0 0 513 343" fill="none" xmlns="http://www.w3.org/2000/svg">
<g clip-path="url(#clip0_4349_29728)">
<path d="M342 0.0263672H0V341.326H513V0.0263672H342Z" fill="#DC2339"/>
<path d="M0 0.0263672H171V342.026H0V0.0263672Z" fill="#11865D"/>
<path d="M171 0.0263672H342V342.026H171V0.0263672Z" fill="white"/>
<path d="M195.8 171.226C195.8 192.826 207.3 212.926 226.1 223.726C231.9 227.126 239.3 225.126 242.7 219.326C246.1 213.526 244.1 206.126 238.3 202.726C227 196.226 220.1 184.226 220.1 171.226C220.1 164.526 214.7 159.126 208 159.126C201.3 159.126 195.8 164.526 195.8 171.226ZM289.2 222.326C306.7 211.226 317.2 191.926 317.2 171.226C317.2 164.526 311.8 159.126 305.1 159.126C298.4 159.126 293 164.526 293 171.226C293 183.626 286.7 195.226 276.2 201.926C270.5 205.426 268.7 212.826 272.1 218.626C275.5 224.426 283 226.126 288.8 222.726C288.8 222.526 289 222.426 289.2 222.326Z" fill="#8C9157"/>
<path d="M256.5 195.526C269.92 195.526 280.8 179.23 280.8 159.126C280.8 139.023 269.92 122.726 256.5 122.726C243.079 122.726 232.2 139.023 232.2 159.126C232.2 179.23 243.079 195.526 256.5 195.526Z" fill="#C59262"/>
</g>
<defs>
<clipPath id="clip0_4349_29728">
<rect width="513" height="342" fill="white" transform="translate(0 0.0263672)"/>
</clipPath>
</defs>
</svg>
