<svg width="512" height="343" viewBox="0 0 512 343" fill="none" xmlns="http://www.w3.org/2000/svg">
<g clip-path="url(#clip0_4349_29709)">
<path d="M0 0.697876H512V342.024H0V0.697876Z" fill="#496E2D"/>
<path d="M0 342.024V0.697876H512" fill="#0052B4"/>
<path d="M512 67.5829V0.697876H411.67L0 275.139V342.024H100.33L512 67.5829Z" fill="white"/>
<path d="M512 0.697876V40.8229L60.193 342.024H0V301.899L451.807 0.697876H512Z" fill="#A2001D"/>
<path d="M187.737 104.573L164.996 115.269L177.106 137.293L152.413 132.569L149.284 157.514L132.085 139.167L114.885 157.514L111.756 132.569L87.063 137.292L99.172 115.269L76.433 104.573L99.173 93.8758L87.063 71.8538L111.756 76.5758L114.886 51.6318L132.085 69.9788L149.285 51.6318L152.413 76.5758L177.106 71.8538L164.998 93.8778L187.737 104.573Z" fill="#FFDA44"/>
</g>
<defs>
<clipPath id="clip0_4349_29709">
<rect width="512" height="341.333" fill="white" transform="translate(0 0.693848)"/>
</clipPath>
</defs>
</svg>
