<svg width="513" height="343" viewBox="0 0 513 343" fill="none" xmlns="http://www.w3.org/2000/svg">
<g clip-path="url(#clip0_4349_29697)">
<path d="M0 235.525H513V342.694H0V235.525Z" fill="#009543"/>
<path d="M0 106.473H513V235.765H0V106.473Z" fill="#ED4135"/>
<path d="M0 0.666992H513V107.515H0V0.666992Z" fill="#0035AD"/>
<path d="M192.375 297.726C262.01 297.726 318.461 241.275 318.461 171.64C318.461 102.005 262.01 45.5544 192.375 45.5544C122.74 45.5544 66.2892 102.005 66.2892 171.64C66.2892 241.275 122.74 297.726 192.375 297.726Z" fill="#FAE600"/>
<path fill-rule="evenodd" clip-rule="evenodd" d="M192.375 48.2045C124.203 48.2045 68.9392 103.469 68.9392 171.64C68.9392 239.812 124.203 295.076 192.375 295.076C260.547 295.076 315.811 239.812 315.811 171.64C315.811 103.469 260.547 48.2045 192.375 48.2045ZM63.6392 171.64C63.6392 100.542 121.276 42.9045 192.375 42.9045C263.474 42.9045 321.111 100.542 321.111 171.64C321.111 242.739 263.474 300.376 192.375 300.376C121.276 300.376 63.6392 242.739 63.6392 171.64Z" fill="black"/>
<path d="M246.801 284.821L221.311 294.44L192.375 297.806L162.076 295.882L133.3 283.458C133.3 283.458 156.224 259.972 165.923 256.606C172.817 254.201 183.878 253.64 183.878 253.64V98.4576L183.638 45.5544H197.184L196.784 99.6599V253.319C196.784 253.319 209.047 254.281 214.498 256.606C223.556 260.533 246.801 284.821 246.801 284.821Z" fill="black"/>
<path d="M170.514 82.7269L204.945 65.5591L209.415 74.5262L174.984 91.6932L170.514 82.7269Z" fill="black"/>
<path d="M190.612 246.747C198.049 246.747 204.078 237.237 204.078 225.505C204.078 213.774 198.049 204.264 190.612 204.264C183.174 204.264 177.145 213.774 177.145 225.505C177.145 237.237 183.174 246.747 190.612 246.747Z" fill="black"/>
<path d="M190.291 132.364C199.543 132.364 207.044 124.863 207.044 115.611C207.044 106.359 199.543 98.8584 190.291 98.8584C181.039 98.8584 173.538 106.359 173.538 115.611C173.538 124.863 181.039 132.364 190.291 132.364Z" fill="black"/>
<path d="M191.092 179.576C199.902 179.576 207.044 175.233 207.044 169.877C207.044 164.52 199.902 160.178 191.092 160.178C182.283 160.178 175.141 164.52 175.141 169.877C175.141 175.233 182.283 179.576 191.092 179.576Z" fill="black"/>
<path d="M171.374 142.544H209.047V150.559H171.374V142.544ZM171.374 188.233H209.047V196.248H171.374V188.233Z" fill="black"/>
</g>
<defs>
<clipPath id="clip0_4349_29697">
<rect width="513" height="342.027" fill="white" transform="translate(0 0.666992)"/>
</clipPath>
</defs>
</svg>
