<svg width="513" height="343" viewBox="0 0 513 343" fill="none" xmlns="http://www.w3.org/2000/svg">
<g clip-path="url(#clip0_4349_29676)">
<path d="M0 0.030365H513V342.023H0V0.030365Z" fill="white"/>
<path d="M0 0.030365H513V114.028H0V0.030365ZM0 228.026H513V342.023H0V228.026Z" fill="#338AF3"/>
<path d="M256.5 129.393C233.506 129.393 214.866 148.032 214.866 171.027C214.866 194.022 233.505 212.661 256.5 212.661C279.494 212.661 298.134 194.022 298.134 171.027C298.134 148.032 279.494 129.393 256.5 129.393ZM256.5 194.818C243.36 194.818 232.709 184.166 232.709 171.027C232.709 157.887 243.36 147.235 256.5 147.235C269.64 147.235 280.291 157.887 280.291 171.027C280.291 184.166 269.64 194.818 256.5 194.818Z" fill="#FFDA44"/>
<path d="M277.103 176.974L256.5 171.027L235.897 176.974L229.028 188.87H283.972L277.103 176.974Z" fill="#0052B4"/>
<path d="M256.5 141.289L242.764 165.079L256.5 171.027L270.236 165.079L256.5 141.289Z" fill="#338AF3"/>
<path d="M235.897 176.974H277.103L270.236 165.079H242.764L235.897 176.974Z" fill="#6DA544"/>
</g>
<defs>
<clipPath id="clip0_4349_29676">
<rect width="513" height="342" fill="white" transform="translate(0 0.0263672)"/>
</clipPath>
</defs>
</svg>
