<svg width="513" height="342" viewBox="0 0 513 342" fill="none" xmlns="http://www.w3.org/2000/svg">
<g clip-path="url(#clip0_4349_29657)">
<path d="M0 0.00341797H513V341.996H0V0.00341797Z" fill="#0052B4"/>
<path d="M0 154.963H513V187.025H0V154.963Z" fill="#FFDA44"/>
<path d="M175.144 256.495L155.982 265.509L166.186 284.066L145.378 280.085L142.742 301.104L128.25 285.645L113.757 301.104L111.122 280.085L90.3142 284.066L100.517 265.509L81.3567 256.495L100.518 247.483L90.3142 228.927L111.121 232.905L113.758 211.886L128.25 227.346L142.743 211.886L145.378 232.905L166.186 228.927L155.983 247.484L175.144 256.495Z" fill="white"/>
</g>
<defs>
<clipPath id="clip0_4349_29657">
<rect width="513" height="342" fill="white" transform="translate(0 -0.000488281)"/>
</clipPath>
</defs>
</svg>
