<svg width="513" height="342" viewBox="0 0 513 342" fill="none" xmlns="http://www.w3.org/2000/svg">
<g clip-path="url(#clip0_4349_29631)">
<path d="M0 0H513V342.004H0V0Z" fill="#FFDA44"/>
<path d="M0 0H256.5V170.996H0V0Z" fill="white"/>
<path d="M144.281 -0.00390625H112.219V69.4645H0V101.527H112.219V170.996H144.281V101.527H256.5V69.4645H144.281V-0.00390625Z" fill="#D80027"/>
<path d="M0 -0.00488281V15.1076L57.4891 53.4333H80.1562L0 -0.00488281Z" fill="#D80027"/>
<path d="M0 22.6612V53.4332H46.159L0 22.6612ZM96.1875 -0.00292969V49.0056L22.6722 -0.00292969H96.1875Z" fill="#2E52B2"/>
<path d="M256.5 -0.00488281V15.1076L199.011 53.4333H176.344L256.5 -0.00488281Z" fill="#D80027"/>
<path d="M256.5 22.6612V53.4332H210.341L256.5 22.6612ZM160.312 -0.00292969V49.0056L233.828 -0.00292969H160.312Z" fill="#2E52B2"/>
<path d="M0 -0.00488281V15.1076L57.4891 53.4333H80.1562L0 -0.00488281Z" fill="#D80027"/>
<path d="M0 22.6612V53.4332H46.159L0 22.6612ZM96.1875 -0.00292969V49.0056L22.6722 -0.00292969H96.1875Z" fill="#2E52B2"/>
<path d="M256.5 -0.00488281V15.1076L199.011 53.4333H176.344L256.5 -0.00488281Z" fill="#D80027"/>
<path d="M256.5 22.6612V53.4332H210.341L256.5 22.6612ZM160.312 -0.00292969V49.0056L233.828 -0.00292969H160.312Z" fill="#2E52B2"/>
<path d="M0 170.996V155.885L57.4891 117.558H80.1562L0 170.996Z" fill="#D80027"/>
<path d="M0 148.331V117.558H46.159L0 148.331ZM96.1875 170.993V121.986L22.6722 170.993H96.1875Z" fill="#2E52B2"/>
<path d="M256.5 170.996V155.885L199.011 117.558H176.344L256.5 170.996Z" fill="#D80027"/>
<path d="M256.5 148.331V117.558H210.341L256.5 148.331ZM160.312 170.993V121.986L233.828 170.993H160.312Z" fill="#2E52B2"/>
<path d="M128.25 108.164C140.771 108.164 150.921 98.0137 150.921 85.4927C150.921 72.9718 140.771 62.8215 128.25 62.8215C115.729 62.8215 105.579 72.9718 105.579 85.4927C105.579 98.0137 115.729 108.164 128.25 108.164Z" fill="#2E52B2"/>
<path d="M128.25 69.4644L132.228 81.7103H145.107L134.688 89.281L138.667 101.527L128.25 93.9581L117.832 101.527L121.811 89.281L111.393 81.7103H124.271L128.25 69.4644ZM128.25 134.732L130.619 142.024H138.286L132.084 146.531L134.453 153.823L128.25 149.316L122.047 153.823L124.415 146.531L118.213 142.024H125.88L128.25 134.732ZM128.25 17.1685L130.619 24.4607H138.286L132.084 28.9675L134.453 36.2597L128.25 31.7529L122.047 36.2597L124.415 28.9675L118.213 24.4607H125.88L128.25 17.1685ZM198.317 75.95L200.687 83.2412H208.355L202.151 87.749L204.521 95.0423L198.317 90.5355L192.114 95.0423L194.484 87.749L188.281 83.2412H195.948L198.317 75.95ZM58.1823 75.95L60.551 83.2412H68.2189L62.0158 87.749L64.3844 95.0423L58.1823 90.5355L51.9792 95.0423L54.3489 87.749L48.1448 83.2412H55.8127L58.1823 75.95Z" fill="#FFDA44"/>
</g>
<defs>
<clipPath id="clip0_4349_29631">
<rect width="513" height="342" fill="white" transform="translate(0 -0.000976562)"/>
</clipPath>
</defs>
</svg>
