<svg width="513" height="343" viewBox="0 0 513 343" fill="none" xmlns="http://www.w3.org/2000/svg">
<g clip-path="url(#clip0_4349_29610)">
<path d="M0 0.99707H513V342.997H0V0.99707Z" fill="#D80027"/>
<path d="M138 0.99707H515V114.997H138V0.99707Z" fill="white"/>
<path d="M138 230.997H515V344.997H138V230.997Z" fill="#4A7C3A"/>
<path fill-rule="evenodd" clip-rule="evenodd" d="M36.3445 39.2558C36.344 39.2552 36.3437 39.2548 40.2998 36.1971C44.2559 33.1394 44.2558 33.1393 44.2559 33.1395L44.3571 33.2701C44.4258 33.3586 44.5289 33.4912 44.6644 33.6652C44.9354 34.0132 45.3363 34.5264 45.8523 35.1832C46.8844 36.4968 48.3765 38.3837 50.2105 40.6695C53.8809 45.2439 58.9103 51.4024 64.3578 57.7547C69.815 64.1183 75.6442 70.6206 80.9212 75.9068C86.3856 81.3807 90.7094 84.9776 93.2431 86.1797C99.9032 89.3396 103.837 90.6165 105.95 91.1216C106.998 91.3721 107.54 91.4186 107.703 91.4267C107.738 91.4284 107.752 91.4283 107.748 91.4283C107.744 91.4283 107.708 91.4285 107.645 91.4334C107.588 91.4377 107.509 91.4457 107.41 91.4607C107.361 91.4682 107.306 91.4774 107.247 91.4888C107.217 91.4945 107.186 91.5008 107.154 91.5076L107.105 91.5183L107.08 91.524L107.067 91.527C107.061 91.5285 107.055 91.53 108.2 96.3971C109.345 101.264 109.339 101.266 109.332 101.267L109.319 101.27L109.293 101.276L109.24 101.288C109.205 101.295 109.169 101.302 109.132 101.309C109.059 101.324 108.984 101.336 108.906 101.348C108.751 101.372 108.585 101.391 108.409 101.404C108.058 101.431 107.66 101.437 107.206 101.414C106.303 101.369 105.139 101.21 103.625 100.848C100.613 100.128 95.9964 98.5545 88.9565 95.2144C84.6402 93.1665 79.189 88.326 73.844 82.9717C68.3116 77.4298 62.2971 70.7133 56.7668 64.2644C51.2268 57.8042 46.1249 51.5565 42.4109 46.9277C40.5528 44.612 39.0394 42.6981 37.9891 41.3613C37.4639 40.6929 37.0543 40.1686 36.7752 39.8102C36.6356 39.631 36.5287 39.4933 36.4561 39.3999L36.3445 39.2558Z" fill="white"/>
<path fill-rule="evenodd" clip-rule="evenodd" d="M34.5999 96.3971L35.0378 101.378L31.2136 92.7183L54.4852 71.2971H51.6999V61.2971H65.349L65.6999 60.9741V36.1971H75.6999V51.7692L96.6136 32.5183L103.872 39.3609L99.9999 36.1971C103.872 39.3609 103.872 39.3605 103.872 39.3609L103.447 39.8791C103.171 40.2156 102.766 40.7092 102.247 41.3393C101.21 42.5996 99.7181 44.4064 97.8984 46.596C94.6031 50.5612 90.2279 55.7867 85.5247 61.2971H89.5999V71.2971H76.8808C73.9315 74.659 71.0219 77.9159 68.3241 80.8443C63.569 86.0056 59.1161 90.5441 56.2457 92.6371C50.9131 96.5255 45.7152 98.6961 41.8276 99.8987C39.8807 100.501 38.2497 100.865 37.0756 101.08C36.488 101.188 36.013 101.26 35.6681 101.305C35.4956 101.328 35.3554 101.345 35.2496 101.357C35.1968 101.362 35.1525 101.367 35.1171 101.37L35.0707 101.375L35.0525 101.377L35.0411 101.378C35.0394 101.378 35.0378 101.378 34.5999 96.3971Z" fill="white"/>
</g>
<defs>
<clipPath id="clip0_4349_29610">
<rect width="513" height="342" fill="white" transform="translate(0 0.99707)"/>
</clipPath>
</defs>
</svg>
