<svg width="513" height="343" viewBox="0 0 513 343" fill="none" xmlns="http://www.w3.org/2000/svg">
<g clip-path="url(#clip0_4349_29604)">
<path d="M0 1.00208H513V342.995H0V1.00208Z" fill="white"/>
<path d="M256.5 171.998V342.995H0V171.998H256.5Z" fill="#0052B4"/>
<path d="M513 1.00208V171.998H256.5V1.00208H513Z" fill="#D80027"/>
<path d="M128.25 38.7727L140.097 75.2328H178.435L147.419 97.7677L159.265 134.228L128.25 111.694L97.2345 134.228L109.081 97.7677L78.0652 75.2328H116.403L128.25 38.7727Z" fill="#0052B4"/>
<path d="M384.75 209.769L396.597 246.229H434.935L403.919 268.764L415.765 305.224L384.75 282.69L353.735 305.224L365.581 268.764L334.565 246.229H372.903L384.75 209.769Z" fill="#D80027"/>
</g>
<defs>
<clipPath id="clip0_4349_29604">
<rect width="513" height="342" fill="white" transform="translate(0 0.998047)"/>
</clipPath>
</defs>
</svg>
