<svg width="513" height="343" viewBox="0 0 513 343" fill="none" xmlns="http://www.w3.org/2000/svg">
<g clip-path="url(#clip0_4349_29592)">
<path d="M0 1.0011H513V342.994H0V1.0011Z" fill="white"/>
<path d="M0 1.0011H513V114.998H0V1.0011ZM0 228.997H513V342.994H0V228.997Z" fill="#D80027"/>
<path d="M294.565 171.997C294.565 193.02 277.522 205.305 256.499 205.305C235.476 205.305 218.434 193.02 218.434 171.997C218.434 150.974 235.477 133.931 256.5 133.931C277.523 133.931 294.565 150.974 294.565 171.997Z" fill="#FFDA44"/>
<path d="M294.565 171.997C294.565 193.02 277.522 210.064 256.499 210.064C235.476 210.064 218.433 193.02 218.433 171.997" fill="#0052B4"/>
<path d="M232.713 162.485H242.229V181.522H232.713V162.485ZM270.775 162.485H280.291V181.522H270.775V162.485ZM251.738 148.21H261.254V181.518H251.738V148.21Z" fill="#D80027"/>
</g>
<defs>
<clipPath id="clip0_4349_29592">
<rect width="513" height="342" fill="white" transform="translate(0 0.99707)"/>
</clipPath>
</defs>
</svg>
