<svg width="513" height="343" viewBox="0 0 513 343" fill="none" xmlns="http://www.w3.org/2000/svg">
<g clip-path="url(#clip0_4349_29586)">
<path d="M0 0.99707H513V343.001H0V0.99707Z" fill="black"/>
<path d="M0 0.994072H513V342.993" fill="#A2001D"/>
<path d="M205.031 242.623L207.798 251.144H216.756L209.509 256.409L212.278 264.928L205.031 259.663L197.783 264.928L200.551 256.409L193.304 251.144H202.261L205.031 242.623ZM182.152 160.842L186.766 175.041H201.696L189.617 183.815L194.231 198.015L182.152 189.239L170.073 198.015L174.688 183.815L162.609 175.041H177.539L182.152 160.842ZM182.152 264.928L186.765 279.128H201.696L189.616 287.902L194.231 302.103L182.152 293.327L170.073 302.103L174.686 287.902L162.609 279.128H177.537L182.152 264.928ZM225.803 198.015L230.418 212.215H245.348L233.269 220.99L237.883 235.19L225.803 226.413L213.726 235.19L218.34 220.99L206.261 212.215H221.191L225.803 198.015ZM138.5 198.015L143.115 212.215H158.043L145.965 220.99L150.577 235.19L138.5 226.413L126.421 235.19L131.035 220.99L118.957 212.215H133.886L138.5 198.015Z" fill="white"/>
<path d="M377.261 120.059C369.619 112.416 359.689 107.902 349.017 107.126L380.96 82.2825C368.237 69.5597 351.188 63.8155 334.55 65.0309C332.497 57.6373 328.563 50.9019 323.132 45.4818L310.514 70.717C309.668 69.1723 308.606 67.7563 307.36 66.5118C300.101 59.2526 288.332 59.2536 281.075 66.5118C273.818 73.7699 273.816 85.5389 281.075 92.797C282.32 94.0425 283.736 95.1045 285.28 95.9512L260.045 108.569C265.467 114.003 272.205 117.938 279.602 119.99C278.383 136.628 284.122 153.675 296.845 166.397L324.753 130.517C326.834 128.455 329.646 127.301 332.575 127.308C335.554 127.308 338.355 128.469 340.461 130.575C341.5 131.608 342.323 132.837 342.884 134.19C343.445 135.544 343.731 136.995 343.727 138.46C343.727 141.44 342.567 144.239 340.461 146.345L350.975 156.86C355.89 151.945 358.597 145.41 358.597 138.46C358.597 132.774 356.783 127.367 353.434 122.896C358.471 124.236 363.065 126.884 366.748 130.573C378.344 142.167 378.344 161.035 366.748 172.63L377.262 183.144C385.688 174.719 390.327 163.516 390.327 151.602C390.326 139.686 385.686 128.485 377.261 120.059Z" fill="#FFDA44"/>
</g>
<defs>
<clipPath id="clip0_4349_29586">
<rect width="513" height="342" fill="white" transform="translate(0 0.99707)"/>
</clipPath>
</defs>
</svg>
