<svg width="513" height="342" viewBox="0 0 513 342" fill="none" xmlns="http://www.w3.org/2000/svg">
<g clip-path="url(#clip0_4349_29573)">
<path d="M394.277 85.3486L411.823 104.26L435.232 93.4184L422.666 115.949L440.213 134.862L414.901 129.874L402.337 152.406L399.258 126.792L373.946 121.805L397.355 110.964L394.277 85.3486Z" fill="white"/>
<path d="M0 0.00927734H513V342.002H0V0.00927734Z" fill="white"/>
<path d="M128.25 -0.00244141H513V342.001H128.25V-0.00244141Z" fill="#01411C"/>
<path d="M362.616 213.876C331.518 236.346 288.092 229.353 265.623 198.254C243.152 167.155 250.147 123.73 281.246 101.261C290.942 94.2552 301.836 90.1141 312.921 88.6733C291.596 85.4841 269.058 90.2895 250.201 103.914C211.926 131.57 203.317 185.016 230.972 223.292C258.627 261.565 312.074 270.175 350.35 242.518C369.207 228.894 380.845 209.005 384.512 187.756C379.664 197.826 372.313 206.87 362.616 213.876ZM361.284 87.7265L378.802 106.605L402.17 95.7822L389.626 118.273L407.144 137.154L381.875 132.176L369.332 154.67L366.259 129.099L340.99 124.12L364.358 113.297L361.284 87.7265Z" fill="white"/>
</g>
<defs>
<clipPath id="clip0_4349_29573">
<rect width="513" height="342" fill="white" transform="translate(0 -0.000488281)"/>
</clipPath>
</defs>
</svg>
