<svg width="513" height="343" viewBox="0 0 513 343" fill="none" xmlns="http://www.w3.org/2000/svg">
<g clip-path="url(#clip0_4349_29547)">
<path d="M0 0.998535H513V343.002H0V0.998535Z" fill="#0052B4"/>
<path d="M401.479 135.75L384.75 141.326L368.021 135.75L362.446 121.81L368.021 107.87H401.479L395.902 121.81L401.479 135.75Z" fill="#ACABB1"/>
<path d="M345.717 135.75V197.087C345.717 226.966 384.75 236.12 384.75 236.12C384.75 236.12 423.783 226.965 423.783 197.087V135.75H345.717Z" fill="#338AF3"/>
<path d="M349.236 211.617C358.831 230.039 384.75 236.12 384.75 236.12C384.75 236.12 410.67 230.039 420.264 211.617L384.75 152.479L349.236 211.617Z" fill="#6DA544"/>
<path d="M423.783 196.467L384.75 135.75L345.717 196.467V197.087C345.717 202.615 347.056 207.435 349.236 211.618L384.75 156.373L420.264 211.618C422.443 207.435 423.783 202.617 423.783 197.087V196.467Z" fill="#FFDA44"/>
<path d="M256.5 0.998535V31.6112L211.245 56.7592H256.5V116.234H197.282L256.5 149.133V171.995H229.768L156.13 131.089V171.995H100.37V123.327L12.7689 171.995H0V141.381L45.2552 116.234H0V56.7592H59.2184L0 23.8491V0.998535H26.7321L100.37 41.9033V0.998535H156.13V49.6654L243.731 0.998535H256.5Z" fill="white"/>
<path d="M144.281 0.995605H112.219V70.463H0V102.526H112.219V171.995H144.281V102.526H256.5V70.463H144.281V0.995605Z" fill="#D80027"/>
<path d="M156.13 116.234L256.5 171.995V156.227L184.513 116.234H156.13Z" fill="#0052B4"/>
<path d="M156.13 116.234L256.5 171.995V156.227L184.513 116.234H156.13Z" fill="white"/>
<path d="M156.13 116.234L256.5 171.995V156.227L184.513 116.234H156.13ZM71.9863 116.234L0 156.227V171.995L100.37 116.234H71.9863Z" fill="#D80027"/>
<path d="M100.37 56.7563L0 0.995605V16.7633L71.9873 56.7563H100.37Z" fill="#0052B4"/>
<path d="M100.37 56.7563L0 0.995605V16.7633L71.9873 56.7563H100.37Z" fill="white"/>
<path d="M100.37 56.7563L0 0.995605V16.7633L71.9873 56.7563H100.37ZM184.514 56.7563L256.5 16.7633V0.995605L156.13 56.7563H184.514Z" fill="#D80027"/>
</g>
<defs>
<clipPath id="clip0_4349_29547">
<rect width="513" height="342" fill="white" transform="translate(0 0.998535)"/>
</clipPath>
</defs>
</svg>
