<svg width="513" height="343" viewBox="0 0 513 343" fill="none" xmlns="http://www.w3.org/2000/svg">
<g clip-path="url(#clip0_4349_29530)">
<path d="M0 1.00146H513V342.994H0V1.00146Z" fill="#D80027"/>
<path d="M197.025 1.00146V342.994H0V1.00146H197.025Z" fill="#6DA544"/>
<path d="M197.025 236.123C232.44 236.123 261.15 207.413 261.15 171.998C261.15 136.583 232.44 107.873 197.025 107.873C161.61 107.873 132.9 136.583 132.9 171.998C132.9 207.413 161.61 236.123 197.025 236.123Z" fill="#FFDA44"/>
<path d="M160.952 139.935V180.014C160.952 199.935 177.101 216.085 197.022 216.085C216.943 216.085 233.092 199.935 233.092 180.014V139.935H160.952Z" fill="#D80027"/>
<path d="M197.022 192.037C190.392 192.037 184.999 186.643 184.999 180.013V163.982H209.046V180.013C209.045 186.642 203.651 192.037 197.022 192.037Z" fill="white"/>
</g>
<defs>
<clipPath id="clip0_4349_29530">
<rect width="513" height="342" fill="white" transform="translate(0 0.997559)"/>
</clipPath>
</defs>
</svg>
