<svg width="513" height="343" viewBox="0 0 513 343" fill="none" xmlns="http://www.w3.org/2000/svg">
<g clip-path="url(#clip0_4349_29521)">
<path d="M0 1.00049H513V342.993H0V1.00049Z" fill="white"/>
<path d="M0 1.00049H513V114.998H0V1.00049Z" fill="#D80027"/>
<path d="M0 228.996H513V342.993H0V228.996Z" fill="#0052B4"/>
<path d="M290.145 132.658L277.528 145.275C282.908 150.657 286.238 158.092 286.238 166.304C286.238 182.728 272.923 196.042 256.5 196.042C240.076 196.042 226.762 182.727 226.762 166.304C226.762 158.093 230.09 150.657 235.472 145.275L222.855 132.658C214.245 141.269 208.918 153.164 208.918 166.303C208.918 192.582 230.221 213.885 256.5 213.885C282.779 213.885 304.082 192.582 304.082 166.303C304.082 153.165 298.755 141.269 290.145 132.658Z" fill="#6DA544"/>
<path d="M256.5 148.461L260.93 162.093H275.262L263.666 170.517L268.096 184.148L256.5 175.723L244.905 184.148L249.334 170.517L237.739 162.093H252.07L256.5 148.461Z" fill="#FFDA44"/>
</g>
<defs>
<clipPath id="clip0_4349_29521">
<rect width="513" height="342" fill="white" transform="translate(0 0.996582)"/>
</clipPath>
</defs>
</svg>
