<svg width="513" height="343" viewBox="0 0 513 343" fill="none" xmlns="http://www.w3.org/2000/svg">
<g clip-path="url(#clip0_4349_29501)">
<path d="M0 0.993103H513V342.997H0V0.993103Z" fill="#0052B4"/>
<path d="M0 0.993103H513V114.99H0V0.993103Z" fill="#D80027"/>
<path d="M0 228.989H513V342.986H0V228.989Z" fill="white"/>
<path d="M129.721 97.6435V182.946C129.721 231.469 193.112 246.336 193.112 246.336C193.112 246.336 256.5 231.467 256.5 182.946V97.6435H129.721Z" fill="#D80027"/>
<path d="M155.938 112.514H230.284V82.7745L215.414 90.209L193.11 67.9055L170.807 90.209L155.938 82.7745V112.514ZM241.631 194.822L193.306 146.497L144.981 194.822L160.752 210.593L193.306 178.039L225.859 210.593L241.631 194.822Z" fill="#FFDA44"/>
<path d="M241.631 149.686H219.083C220.397 147.429 221.089 144.865 221.088 142.253C221.088 134.041 214.43 127.384 206.219 127.384C200.545 127.384 195.617 130.563 193.111 135.236C190.604 130.564 185.675 127.384 180.002 127.384C171.791 127.384 165.133 134.041 165.133 142.253C165.133 144.965 165.87 147.499 167.138 149.686H144.981C144.981 157.898 152.134 164.555 160.345 164.555H159.85C159.85 172.767 166.507 179.424 174.719 179.424C174.719 186.695 179.94 192.736 186.836 194.028L175.119 220.481C180.894 222.83 187.07 224.036 193.304 224.032C199.538 224.036 205.714 222.83 211.488 220.481L199.772 194.028C206.668 192.736 211.889 186.695 211.889 179.424C220.101 179.424 226.758 172.767 226.758 164.555H226.263C234.478 164.555 241.631 157.898 241.631 149.686Z" fill="white"/>
</g>
<defs>
<clipPath id="clip0_4349_29501">
<rect width="513" height="342" fill="white" transform="translate(0 0.995117)"/>
</clipPath>
</defs>
</svg>
