<svg width="513" height="343" viewBox="0 0 513 343" fill="none" xmlns="http://www.w3.org/2000/svg">
<g clip-path="url(#clip0_4349_29491)">
<path d="M0 0.993103H513V342.997H0V0.993103Z" fill="#338AF3"/>
<path d="M0 171.989H513V253.768H0V171.989Z" fill="#FFDA44"/>
<path d="M0 253.769H513V342.986H0V253.769Z" fill="#496E2D"/>
<path d="M278.804 101.066L299.689 110.889L288.569 131.115L311.245 126.776L314.118 149.686L329.914 132.837L345.711 149.686L348.583 126.776L371.261 131.115L360.14 110.889L381.024 101.066L360.139 91.242L371.261 71.0176L348.583 75.3551L345.71 52.4464L329.914 69.2952L314.117 52.4464L311.245 75.3551L288.566 71.0176L299.688 91.244L278.804 101.066Z" fill="#FFDA44"/>
</g>
<defs>
<clipPath id="clip0_4349_29491">
<rect width="513" height="342" fill="white" transform="translate(0 0.995117)"/>
</clipPath>
</defs>
</svg>
