<svg width="513" height="343" viewBox="0 0 513 343" fill="none" xmlns="http://www.w3.org/2000/svg">
<g clip-path="url(#clip0_4349_29459)">
<path d="M0 0.96875H513V342.961H0V0.96875Z" fill="white"/>
<path d="M0 0.96875H513V171.965H0V0.96875Z" fill="#D80027"/>
<path d="M83.6411 86.4646C83.6411 61.551 101.151 40.7385 124.533 35.6315C120.87 34.8284 117.131 34.4226 113.381 34.4211C84.6371 34.4211 61.3376 57.7206 61.3376 86.4636C61.3376 115.207 84.6381 138.507 113.381 138.507C117.211 138.507 120.939 138.081 124.533 137.297C101.151 132.192 83.6411 111.379 83.6411 86.4646ZM150.555 38.1394L154.246 49.4985H166.19L156.526 56.5192L160.217 67.8784L150.555 60.8587L140.891 67.8784L144.583 56.5192L134.919 49.4985H146.863L150.555 38.1394Z" fill="white"/>
<path d="M121.581 60.4438L125.271 71.803H137.216L127.552 78.8237L131.243 90.1828L121.581 83.1631L111.917 90.1828L115.609 78.8237L105.946 71.803H117.89L121.581 60.4438ZM179.528 60.4438L183.219 71.803H195.163L185.5 78.8237L189.191 90.1828L179.528 83.1631L169.865 90.1828L173.557 78.8237L163.894 71.803H175.838L179.528 60.4438ZM168.375 93.9001L172.066 105.259H184.011L174.348 112.28L178.039 123.639L168.375 116.619L158.713 123.639L162.405 112.28L152.742 105.259H164.685L168.375 93.9001ZM132.733 93.9001L136.423 105.259H148.367L138.704 112.28L142.396 123.639L132.733 116.619L123.07 123.639L126.761 112.28L117.098 105.259H129.042L132.733 93.9001Z" fill="white"/>
</g>
<defs>
<clipPath id="clip0_4349_29459">
<rect width="513" height="342" fill="white" transform="translate(0 0.964844)"/>
</clipPath>
</defs>
</svg>
