<svg width="513" height="343" viewBox="0 0 513 343" fill="none" xmlns="http://www.w3.org/2000/svg">
<g clip-path="url(#clip0_4349_29443)">
<path d="M0 0.998535H513V342.965H0V0.998535Z" fill="#0052B4"/>
<path d="M256.5 0.998535V118.628H210.31L256.5 149.388V172.032H233.856L160.312 123.036V172.032H96.1875V123.036L22.6441 172.032H0V149.388L46.19 118.628H0V54.5028H46.19L0 23.7429V0.998535H22.6441L96.1875 49.994V0.998535H160.312V49.994L233.856 0.998535H256.5Z" fill="white"/>
<path d="M144.281 0.998535H112.219V70.5341H0V102.597H112.219V172.032H144.281V102.597H256.5V70.5341H144.281V0.998535Z" fill="#D80027"/>
<path d="M0 0.998535V16.128L57.5121 54.5028H80.1562L0 0.998535ZM256.5 0.998535V16.128L198.988 54.5028H176.344L256.5 0.998535Z" fill="#D80027"/>
<path d="M256.5 23.7427V54.5026H210.31L256.5 23.7427Z" fill="#2E52B2"/>
<path d="M0 0.998535V16.128L57.5121 54.5028H80.1562L0 0.998535ZM256.5 0.998535V16.128L198.988 54.5028H176.344L256.5 0.998535Z" fill="#D80027"/>
<path d="M256.5 23.7427V54.5026H210.31L256.5 23.7427Z" fill="#2E52B2"/>
<path d="M0 172.032V156.903L57.5121 118.628H80.1562L0 172.032ZM256.5 172.032V156.903L198.988 118.628H176.344L256.5 172.032Z" fill="#D80027"/>
<path d="M449.877 140.971C449.777 185.458 442.663 233.251 384.75 256.096C326.837 233.251 319.723 185.458 319.623 140.971H449.877Z" fill="#29DBFF"/>
<path d="M449.877 140.971C449.877 124.239 448.975 108.007 449.376 93.7794C427.734 84.1606 399.178 82.1567 384.65 82.1567C370.122 82.1567 341.666 84.1606 319.924 93.7794C320.325 108.007 319.423 124.239 319.423 140.971H449.877Z" fill="#FFDA44"/>
<path d="M370.221 205.898L370.522 216.218L357.697 216.419L362.607 229.644H345.273C327.238 209.405 321.827 187.162 320.324 161.411L329.442 151.692L337.758 166.02L348.579 153.195L355.593 161.011L356.395 176.741L370.221 205.898Z" fill="#BF521B"/>
<path d="M437.453 193.875L428.836 212.21H381.744L352.487 192.672L378.238 203.193H403.387L407.094 196.68L414.308 196.881L416.312 193.875H437.453Z" fill="#474747"/>
</g>
<defs>
<clipPath id="clip0_4349_29443">
<rect width="513" height="341.967" fill="white" transform="translate(0 0.998535)"/>
</clipPath>
</defs>
</svg>
