<svg width="513" height="343" viewBox="0 0 513 343" fill="none" xmlns="http://www.w3.org/2000/svg">
<g clip-path="url(#clip0_4349_29436)">
<path d="M0 0.968262H513V342.961H0V0.968262Z" fill="white"/>
<path d="M0 114.966H513V228.963H0V114.966Z" fill="#0052B4"/>
<path d="M0 228.964H513V342.961H0V228.964Z" fill="#D80027"/>
<path d="M234.062 112.488V127.354C234.062 161.501 189.453 171.963 189.453 171.963C189.453 171.963 144.844 161.502 144.844 127.354V112.488L144.699 68.2135L233.916 67.947L234.062 112.488Z" fill="white"/>
<path d="M234.062 112.488V127.354C234.062 161.501 189.453 171.963 189.453 171.963C189.453 171.963 144.844 161.502 144.844 127.354V112.488L144.699 68.2135L233.916 67.947L234.062 112.488Z" fill="#0052B4"/>
<path d="M234.062 112.488V127.354C234.062 161.501 189.453 171.963 189.453 171.963C189.453 171.963 144.844 161.502 144.844 127.354V112.488L159.721 127.354L189.453 105.049L219.196 127.354L234.062 112.488Z" fill="white"/>
</g>
<defs>
<clipPath id="clip0_4349_29436">
<rect width="513" height="342" fill="white" transform="translate(0 0.964355)"/>
</clipPath>
</defs>
</svg>
