<svg width="513" height="343" viewBox="0 0 513 343" fill="none" xmlns="http://www.w3.org/2000/svg">
<g clip-path="url(#clip0_4349_29424)">
<path d="M0 0.967407H513V342.96H0V0.967407Z" fill="white"/>
<path d="M0 112.489H513V231.438H0V112.489Z" fill="#0052B4"/>
<path d="M0 231.439H513V342.96H0V231.439Z" fill="#D80027"/>
<path d="M129.721 97.6178V182.92C129.721 231.444 193.112 246.311 193.112 246.311C193.112 246.311 256.5 231.442 256.5 182.92V97.6178H129.721Z" fill="white"/>
<path d="M146.411 100.118V182.219C146.411 187.701 147.629 192.88 150.041 197.734H236.179C238.592 192.881 239.809 187.702 239.809 182.219V100.118H146.411Z" fill="#D80027"/>
<path d="M221.733 157.362H200.266V143.051H214.578V128.74H200.266V114.429H185.955V128.74H171.646V143.051H185.955V157.362H164.488V171.674H185.955V185.985H200.266V171.674H221.733V157.362Z" fill="white"/>
<path d="M169.562 217.711C178.784 223.505 188.259 226.872 193.11 228.368C197.962 226.871 207.436 223.506 216.658 217.711C225.958 211.866 232.479 205.18 236.18 197.733C231.958 194.74 226.91 193.135 221.734 193.141C219.774 193.141 217.871 193.373 216.041 193.799C212.163 184.986 203.358 178.83 193.112 178.83C182.865 178.83 174.062 184.986 170.184 193.799C168.317 193.363 166.407 193.142 164.491 193.141C159.315 193.135 154.266 194.74 150.044 197.733C153.743 205.18 160.262 211.866 169.562 217.711Z" fill="#0052B4"/>
</g>
<defs>
<clipPath id="clip0_4349_29424">
<rect width="513" height="342" fill="white" transform="translate(0 0.963379)"/>
</clipPath>
</defs>
</svg>
