<svg width="513" height="343" viewBox="0 0 513 343" fill="none" xmlns="http://www.w3.org/2000/svg">
<g clip-path="url(#clip0_4349_29412)">
<path d="M0 0.969421H513V342.962H0V0.969421Z" fill="#338AF3"/>
<path d="M513 0.963379V167.979L0 172.138V0.963379H513Z" fill="white"/>
<path d="M324.376 118.958L256.5 186.835L188.624 118.958C179.542 132.42 174.699 148.292 174.718 164.53V186.835C174.718 222.649 197.86 253.157 229.973 264.199C225.688 272.6 226.41 283.083 232.691 290.922L256.996 271.445L281.301 290.922C287.656 282.991 288.326 272.351 283.87 263.901C315.546 252.618 338.284 222.335 338.284 186.835V164.53C338.302 148.292 333.458 132.42 324.376 118.958Z" fill="#6DA544"/>
<path d="M256.5 246.314C223.704 246.314 197.022 219.632 197.022 186.836V164.531C197.022 131.734 223.704 105.052 256.5 105.052C289.296 105.052 315.978 131.734 315.978 164.53V186.835C315.978 219.632 289.296 246.314 256.5 246.314Z" fill="#FFDA44"/>
<path d="M293.674 186.835V164.53C293.674 144.032 276.998 127.357 256.5 127.357C236.002 127.357 219.327 144.032 219.327 164.53V186.835L256.5 194.27L293.674 186.835Z" fill="#338AF3"/>
<path d="M219.327 186.835C219.327 207.333 236.002 224.008 256.5 224.008C276.998 224.008 293.674 207.333 293.674 186.835H219.327Z" fill="#6DA544"/>
<path d="M301.109 105.052C301.109 92.7333 291.124 82.7478 278.804 82.7478C273.316 82.7406 268.02 84.765 263.936 88.4309V75.3123H271.371V60.4433H263.936V53.0078H249.067V60.4433H241.631V75.3123H249.067V88.4309C244.982 84.7651 239.685 82.7407 234.197 82.7478C221.878 82.7478 211.892 92.7333 211.892 105.052C211.892 111.656 214.765 117.589 219.328 121.674V134.792H293.675V121.674C298.236 117.589 301.109 111.657 301.109 105.052Z" fill="#FFDA44"/>
</g>
<defs>
<clipPath id="clip0_4349_29412">
<rect width="513" height="342" fill="white" transform="translate(0 0.962402)"/>
</clipPath>
</defs>
</svg>
