<svg width="513" height="343" viewBox="0 0 513 343" fill="none" xmlns="http://www.w3.org/2000/svg">
<g clip-path="url(#clip0_4349_29385)">
<path d="M0 0.970703H513V342.963H0V0.970703Z" fill="#FFDA44"/>
<path d="M0 0.970703H513V114.968H0V0.970703ZM0 228.966H513V342.963H0V228.966Z" fill="#6DA544"/>
<path d="M256.5 171.973L0 342.969V0.964844L256.5 171.973Z" fill="#D80027"/>
<path d="M302.639 142.227L310.021 164.945H333.91L314.584 178.989L321.965 201.707L302.639 187.665L283.314 201.707L290.695 178.989L271.369 164.945H295.258L302.639 142.227ZM376.987 142.227L384.368 164.945H408.257L388.931 178.989L396.313 201.707L376.987 187.665L357.661 201.707L365.043 178.989L345.717 164.945H369.606L376.987 142.227Z" fill="black"/>
</g>
<defs>
<clipPath id="clip0_4349_29385">
<rect width="513" height="342" fill="white" transform="translate(0 0.966797)"/>
</clipPath>
</defs>
</svg>
