<svg width="513" height="343" viewBox="0 0 513 343" fill="none" xmlns="http://www.w3.org/2000/svg">
<g clip-path="url(#clip0_4349_29378)">
<path d="M0 0.970215H513V342.963H0V0.970215Z" fill="white"/>
<path d="M0 0.970215H513V114.967H0V0.970215ZM0 228.966H513V342.963H0V228.966Z" fill="#0052B4"/>
<path d="M229.028 177.914L256.5 130.333L283.971 177.914H229.028Z" fill="#FFDA44"/>
<path d="M292.186 193.625L256.5 211.469L220.814 193.625V169.834H292.186V193.625Z" fill="#6DA544"/>
<path d="M290.145 132.375L277.528 144.991C282.909 150.374 286.238 157.807 286.238 166.02C286.238 182.444 272.923 195.758 256.5 195.758C240.076 195.758 226.762 182.443 226.762 166.02C226.762 157.809 230.091 150.374 235.472 144.991L222.856 132.375C214.245 140.985 208.918 152.88 208.918 166.019C208.918 192.298 230.221 213.601 256.5 213.601C282.779 213.601 304.082 192.298 304.082 166.019C304.082 152.879 298.756 140.983 290.145 132.375Z" fill="#FFDA44"/>
</g>
<defs>
<clipPath id="clip0_4349_29378">
<rect width="513" height="342" fill="white" transform="translate(0 0.966309)"/>
</clipPath>
</defs>
</svg>
