<svg width="513" height="343" viewBox="0 0 513 343" fill="none" xmlns="http://www.w3.org/2000/svg">
<g clip-path="url(#clip0_4349_29368)">
<path d="M0 0.969727H513V342.962H0V0.969727Z" fill="#0052B4"/>
<path d="M513 0.963867V167.979L0 172.14V0.963867H513Z" fill="#D80027"/>
<path d="M256.5 171.972L0 342.968V0.963867L256.5 171.972Z" fill="white"/>
<path d="M59.7373 171.966C59.6142 173.49 59.5497 175.017 59.5439 176.545C59.5439 209.43 86.2029 236.09 119.089 236.09C151.975 236.09 178.634 209.431 178.634 176.545C178.634 175.003 178.556 173.478 178.441 171.966H59.7373Z" fill="#FFDA44"/>
<path d="M119.094 144.486C129.213 144.486 137.416 136.283 137.416 126.164C137.416 116.045 129.213 107.842 119.094 107.842C108.975 107.842 100.772 116.045 100.772 126.164C100.772 136.283 108.975 144.486 119.094 144.486Z" fill="#FFDA44"/>
<path d="M77.8667 121.582V181.127C77.8667 212.683 119.091 222.35 119.091 222.35C119.091 222.35 160.315 212.683 160.315 181.127V121.582H77.8667Z" fill="#D80027"/>
<path d="M119.109 203.175C111.462 200.424 96.1885 193.389 96.1885 181.126V139.902H141.993V181.126C141.992 193.43 126.719 200.447 119.109 203.175Z" fill="#338AF3"/>
<path d="M128.251 162.804V153.644L119.089 149.064L109.929 153.644V162.804L105.349 167.386V185.707H132.831V167.386L128.251 162.804Z" fill="#F3F3F3"/>
</g>
<defs>
<clipPath id="clip0_4349_29368">
<rect width="513" height="342" fill="white" transform="translate(0 0.96582)"/>
</clipPath>
</defs>
</svg>
