<svg width="513" height="343" viewBox="0 0 513 343" fill="none" xmlns="http://www.w3.org/2000/svg">
<g clip-path="url(#clip0_4349_29362)">
<path d="M0 0.963867H513V342.968H0V0.963867Z" fill="white"/>
<path d="M0 0.963867H513V114.961H0V0.963867Z" fill="#D80027"/>
<path d="M0 228.959H513V342.957H0V228.959Z" fill="black"/>
<path d="M187.676 131.07L196.902 159.467H226.762L202.605 177.019L211.832 205.416L187.676 187.866L163.519 205.416L172.746 177.019L148.59 159.467H178.449L187.676 131.07ZM325.324 131.07L334.551 159.467H364.411L340.254 177.019L349.481 205.416L325.324 187.866L301.168 205.416L310.395 177.019L286.238 159.467H316.098L325.324 131.07Z" fill="#6DA544"/>
</g>
<defs>
<clipPath id="clip0_4349_29362">
<rect width="513" height="342" fill="white" transform="translate(0 0.96582)"/>
</clipPath>
</defs>
</svg>
