<svg width="512" height="343" viewBox="0 0 512 343" fill="none" xmlns="http://www.w3.org/2000/svg">
<g clip-path="url(#clip0_4349_29317)">
<path d="M0 0.964355H512V342.301H0V0.964355Z" fill="#0052B4"/>
<path d="M332.058 107.627V185.848C332.058 223.951 384 235.627 384 235.627C384 235.627 435.942 223.952 435.942 185.848V107.627H332.058Z" fill="#FFDA44"/>
<path d="M376.579 136.071C376.579 143.926 369.935 164.516 361.739 164.516C353.543 164.516 346.899 143.927 346.899 136.071C346.899 128.215 361.739 121.849 361.739 121.849C361.739 121.849 376.579 128.216 376.579 136.071Z" fill="#FF9811"/>
<path d="M415.961 151.561C418.355 145.961 420.218 137.776 420.218 133.701C420.218 127.155 411.314 121.849 411.314 121.849C411.314 121.849 402.41 127.155 402.41 133.701C402.41 137.776 404.272 145.961 406.667 151.561L401.526 162.684C404.646 163.899 407.966 164.52 411.314 164.515C414.777 164.515 418.08 163.861 421.102 162.684L415.961 151.561Z" fill="#A2001D"/>
<path d="M372.87 185.848C372.87 185.848 365.449 200.07 365.449 214.293H402.55C402.55 200.071 395.129 185.848 395.129 185.848L383.999 178.737L372.87 185.848Z" fill="#6DA544"/>
<path d="M395.13 185.848V182.293C395.13 176.402 390.147 171.627 384 171.627C377.853 171.627 372.87 176.403 372.87 182.293V185.848H395.13Z" fill="#D80027"/>
<path d="M256 0.964355V31.5174L210.833 56.6164H256V115.975H196.897L256 148.81V171.627H229.32L155.826 130.801V171.627H100.174V123.054L12.744 171.627H0V141.073L45.167 115.975H0V56.6164H59.103L0 23.7704V0.964355H26.68L100.174 41.7894V0.964355H155.826V49.5364L243.256 0.964355H256Z" fill="white"/>
<path d="M144 0.961426H112V70.2934H0V102.293H112V171.627H144V102.293H256V70.2934H144V0.961426Z" fill="#D80027"/>
<path d="M155.826 115.975L256 171.627V155.89L184.153 115.975H155.826Z" fill="#0052B4"/>
<path d="M155.826 115.975L256 171.627V155.89L184.153 115.975H155.826Z" fill="white"/>
<path d="M155.826 115.975L256 171.627V155.89L184.153 115.975H155.826ZM71.846 115.975L0 155.89V171.627L100.174 115.975H71.846Z" fill="#D80027"/>
<path d="M100.174 56.6134L0 0.961426V16.6984L71.847 56.6134H100.174Z" fill="#0052B4"/>
<path d="M100.174 56.6134L0 0.961426V16.6984L71.847 56.6134H100.174Z" fill="white"/>
<path d="M100.174 56.6134L0 0.961426V16.6984L71.847 56.6134H100.174ZM184.154 56.6134L256 16.6984V0.961426L155.826 56.6134H184.154Z" fill="#D80027"/>
</g>
<defs>
<clipPath id="clip0_4349_29317">
<rect width="512" height="341.333" fill="white" transform="translate(0 0.964355)"/>
</clipPath>
</defs>
</svg>
