<svg width="513" height="342" viewBox="0 0 513 342" fill="none" xmlns="http://www.w3.org/2000/svg">
<g clip-path="url(#clip0_4349_29306)">
<path d="M0 -0.000976562H478.8V341.999H0V-0.000976562Z" fill="white"/>
<path d="M0 -0.000976562H513V341.999H0V-0.000976562Z" fill="#073AB6"/>
<path d="M0 -0.000976562H257.64V170.999H0V-0.000976562Z" fill="white"/>
<path d="M161.879 -0.000976562H243.959V159.599H161.879V-0.000976562Z" fill="#F44653"/>
<path d="M0 -0.000976562H82.08V159.599H0V-0.000976562Z" fill="#1035BB"/>
<path d="M82.0796 -0.000976562H164.16V159.599H82.0796V-0.000976562ZM330.6 136.799H444.6L433.2 159.599H399V170.999H421.8L410.4 193.799H399V227.999H376.2V159.599H342L330.6 136.799ZM421.8 193.799L444.6 227.999H399L421.8 193.799ZM353.4 193.799L376.2 227.999H330.6L353.4 193.799ZM387.6 262.199L364.8 227.999H410.4L387.6 262.199ZM456 182.399C449.16 182.399 444.6 177.839 444.6 170.999C444.6 164.159 449.16 159.599 456 159.599C462.84 159.599 467.4 164.159 467.4 170.999C467.4 177.839 462.84 182.399 456 182.399ZM319.2 182.399C312.36 182.399 307.8 177.839 307.8 170.999C307.8 164.159 312.36 159.599 319.2 159.599C326.04 159.599 330.6 164.159 330.6 170.999C330.6 177.839 326.04 182.399 319.2 182.399ZM342 273.599C335.16 273.599 330.6 269.039 330.6 262.199C330.6 255.359 335.16 250.799 342 250.799C348.84 250.799 353.4 255.359 353.4 262.199C353.4 269.039 348.84 273.599 342 273.599ZM433.2 273.599C426.36 273.599 421.8 269.039 421.8 262.199C421.8 255.359 426.36 250.799 433.2 250.799C440.04 250.799 444.6 255.359 444.6 262.199C444.6 269.039 440.04 273.599 433.2 273.599ZM387.6 296.399C380.76 296.399 376.2 291.839 376.2 284.999C376.2 278.159 380.76 273.599 387.6 273.599C394.44 273.599 399 278.159 399 284.999C399 291.839 394.44 296.399 387.6 296.399Z" fill="white"/>
</g>
<defs>
<clipPath id="clip0_4349_29306">
<rect width="513" height="342" fill="white" transform="translate(0 -0.000976562)"/>
</clipPath>
</defs>
</svg>
