<svg width="513" height="343" viewBox="0 0 513 343" fill="none" xmlns="http://www.w3.org/2000/svg">
<g clip-path="url(#clip0_4349_29289)">
<path d="M0 0.299927H513V342.293H0V0.299927Z" fill="white"/>
<path d="M0 0.299927H513V114.297H0V0.299927Z" fill="#D80027"/>
<path d="M0 228.295H513V342.293H0V228.295Z" fill="#6DA544"/>
<path d="M226.76 215.905H286.24V190.626L274.344 196.575L256.5 178.732L238.656 196.575L226.76 190.626V215.905ZM192.731 186.165L195.499 194.686H204.457L197.209 199.951L199.978 208.47L192.731 203.204L185.483 208.47L188.251 199.951L181.004 194.686H189.961L192.731 186.165ZM201.313 156.427L204.082 164.946H213.039L205.792 170.211L208.561 178.732L201.313 173.465L194.065 178.732L196.834 170.211L189.587 164.946H198.544L201.313 156.427ZM225.849 134.123L228.618 142.641H237.575L230.328 147.907L233.096 156.427L225.849 151.161L218.601 156.427L221.37 147.907L214.122 142.641H223.08L225.849 134.123ZM320.269 186.165L317.501 194.686H308.544L315.791 199.951L313.022 208.47L320.269 203.204L327.518 208.47L324.749 199.951L331.996 194.686H323.039L320.269 186.165ZM311.687 156.427L308.918 164.946H299.961L307.208 170.211L304.44 178.732L311.687 173.465L318.935 178.732L316.166 170.211L323.413 164.946H314.456L311.687 156.427ZM287.151 134.123L284.382 142.641H275.425L282.672 147.907L279.904 156.427L287.151 151.161L294.399 156.427L291.631 147.907L298.878 142.641H289.92L287.151 134.123ZM256.5 122.969L259.268 131.489H268.227L260.979 136.755L263.747 145.274L256.5 140.009L249.253 145.274L252.021 136.755L244.773 131.489H253.732L256.5 122.969Z" fill="#FFDA44"/>
</g>
<defs>
<clipPath id="clip0_4349_29289">
<rect width="513" height="342" fill="white" transform="translate(0 0.295898)"/>
</clipPath>
</defs>
</svg>
