<svg width="513" height="343" viewBox="0 0 513 343" fill="none" xmlns="http://www.w3.org/2000/svg">
<g clip-path="url(#clip0_4349_29283)">
<path d="M0 0.299896H513V342.293H0V0.299896Z" fill="#0052B4"/>
<path d="M211.127 89.5138L214.818 100.874H226.76L217.098 107.894L220.79 119.253L211.127 112.232L201.464 119.253L205.155 107.894L195.491 100.874H207.435L211.127 89.5138ZM117.044 197.318L121.658 211.518H136.587L124.509 220.292L129.124 234.492L117.044 225.715L104.966 234.492L109.579 220.292L97.5012 211.518H112.429L117.044 197.318ZM144.979 34.709L149.592 48.9087H164.522L152.442 57.6838L157.057 71.8824L144.979 63.1063L132.899 71.8824L137.514 57.6838L125.436 48.9087H140.365L144.979 34.709ZM69.6749 90.4697L74.2879 104.669H89.217L77.1385 113.444L81.7535 127.643L69.6749 118.868L57.5954 127.643L62.2104 113.444L50.1318 104.669H65.0609L69.6749 90.4697Z" fill="white"/>
<path d="M484.33 269.992H118.031C118.031 269.992 227.478 181.257 429.231 48.6221C429.232 48.6221 340.615 177.809 484.33 269.992ZM118.031 281.6C106.832 281.6 106.814 299.004 118.031 299.004H484.33C495.529 299.004 495.547 281.6 484.33 281.6H118.031Z" fill="#FFDA44"/>
</g>
<defs>
<clipPath id="clip0_4349_29283">
<rect width="513" height="342" fill="white" transform="translate(0 0.295898)"/>
</clipPath>
</defs>
</svg>
