<svg width="513" height="342" viewBox="0 0 513 342" fill="none" xmlns="http://www.w3.org/2000/svg">
<g clip-path="url(#clip0_4349_29247)">
<path d="M0 -0.000976562H513V341.999H0V-0.000976562Z" fill="#E30A17"/>
<path d="M259.7 118.599C246.6 109.099 230.7 103.999 214.4 104.099C173.6 104.099 140.6 134.899 140.6 172.999C140.6 211.099 173.7 241.899 214.4 241.899C231.5 241.899 247.3 236.499 259.7 227.399C229.7 265.999 174 272.999 135.4 242.899C96.8001 212.799 89.8001 157.199 119.9 118.599C150 79.9988 205.6 72.9988 244.2 103.099C250 107.599 255.2 112.899 259.7 118.599ZM299.6 184.399L281.5 206.299L282.7 177.899L256.3 167.499L283.6 159.899L285.4 131.599L301 155.299L328.5 148.199L311 170.199L326.3 194.099L299.6 184.399Z" fill="white"/>
</g>
<defs>
<clipPath id="clip0_4349_29247">
<rect width="513" height="342" fill="white" transform="translate(0 -0.000976562)"/>
</clipPath>
</defs>
</svg>
