<svg width="513" height="342" viewBox="0 0 513 342" fill="none" xmlns="http://www.w3.org/2000/svg">
<g clip-path="url(#clip0_4349_29234)">
<path d="M0 -0.000976562H513V341.999H0V-0.000976562Z" fill="#0052B4"/>
<path d="M0 170.999H256.5V-0.000976562H513V341.999H0V170.999Z" fill="#00B2EE"/>
<path d="M196.821 274.112L213.579 325.754L169.632 293.834H224.01L180.063 325.754L196.821 274.112ZM402.648 193.799L419.406 245.441L375.459 213.521H429.78L385.833 245.441L402.648 193.799ZM463.296 149.054L480.054 200.696L436.107 168.776H490.428L446.481 200.696L463.296 149.054ZM463.296 21.3169L480.054 72.9589L436.107 41.0389H490.428L446.481 72.9589L463.296 21.3169Z" fill="#FFDA44"/>
<path d="M256.443 -0.000976562V117.59H210.273L256.443 148.37V170.999H233.814L160.284 122.036V170.999H96.159V122.036L22.629 170.999H0V148.37L46.17 117.59H0V53.465H46.17L0 22.742V-0.000976562H22.629L96.159 48.962V-0.000976562H160.284V48.962L233.814 -0.000976562H256.443Z" fill="white"/>
<path d="M144.267 -0.000976562H112.176V69.539H0V101.573H112.176V170.999H144.267V101.573H256.443V69.539H144.267V-0.000976562Z" fill="#D80027"/>
<path d="M256.443 22.7422V53.4652H210.273L256.443 22.7422Z" fill="#2E52B2"/>
<path d="M0 170.999V159.998L62.643 117.59H85.272L7.296 170.999H0ZM7.296 0.0561523L85.272 53.4651H62.643L0 11.0572V0.0561523H7.296ZM256.443 0.113152V11.1142L193.8 53.4651H171.171L249.147 0.113152H256.443ZM249.147 170.999L171.171 117.59H193.8L256.443 159.998V170.999H249.147Z" fill="#D80027"/>
<path d="M410.343 75.0107L427.101 126.653L383.154 94.7327H437.475L393.528 126.653L410.343 75.0107ZM332.88 106.988L349.638 158.63L305.691 126.71H360.012L316.065 158.63L332.88 106.988ZM349.98 245.441L366.738 297.083L322.791 265.163H377.112L333.165 297.083L349.98 245.441ZM278.16 189.239L294.918 240.881L250.971 208.961H305.292L261.345 240.881L278.16 189.239ZM278.16 264.479L294.918 316.121L250.971 284.201H305.292L261.345 316.121L278.16 264.479Z" fill="#FFDA44"/>
</g>
<defs>
<clipPath id="clip0_4349_29234">
<rect width="513" height="342" fill="white" transform="translate(0 -0.000976562)"/>
</clipPath>
</defs>
</svg>
