<svg width="513" height="343" viewBox="0 0 513 343" fill="none" xmlns="http://www.w3.org/2000/svg">
<g clip-path="url(#clip0_4349_29228)">
<path d="M0 0.969727H513V342.962H0V0.969727Z" fill="#D80027"/>
<path d="M0 0.969727H256.5V171.966H0V0.969727Z" fill="#0052B4"/>
<path d="M186.799 86.4685L162.875 97.7215L175.614 120.892L149.637 115.921L146.344 142.164L128.25 122.863L110.155 142.164L106.863 115.921L80.8855 120.891L93.6243 97.7205L69.7007 86.4685L93.6243 75.2156L80.8855 52.0454L106.863 57.0151L110.156 30.772L128.25 50.0726L146.345 30.772L149.637 57.0151L175.615 52.0454L162.875 75.2156L186.799 86.4685Z" fill="white"/>
<path d="M128.25 115.536C144.301 115.536 157.313 102.524 157.313 86.4735C157.313 70.4227 144.301 57.4109 128.25 57.4109C112.199 57.4109 99.1875 70.4227 99.1875 86.4735C99.1875 102.524 112.199 115.536 128.25 115.536Z" fill="#0052B4"/>
<path d="M128.25 105.897C117.537 105.897 108.821 97.1803 108.821 86.4684C108.821 75.7555 117.538 67.0396 128.25 67.0396C138.963 67.0396 147.679 75.7565 147.679 86.4684C147.679 97.1803 138.963 105.897 128.25 105.897Z" fill="white"/>
</g>
<defs>
<clipPath id="clip0_4349_29228">
<rect width="513" height="342" fill="white" transform="translate(0 0.96582)"/>
</clipPath>
</defs>
</svg>
