<svg width="513" height="342" viewBox="0 0 513 342" fill="none" xmlns="http://www.w3.org/2000/svg">
<g clip-path="url(#clip0_4349_29212)">
<path d="M0 -0.000976562H513V341.966H0V-0.000976562Z" fill="#232323"/>
<path d="M0 57.0103H513V114.021H0V57.0103Z" fill="#FFDA44"/>
<path d="M0 114.021H513V171.033H0V114.021Z" fill="#D32300"/>
<path d="M0 228.043H513V285.055H0V228.043Z" fill="#FFDA44"/>
<path d="M0 284.955H513V341.966H0V284.955Z" fill="#D32300"/>
<path d="M256.5 251.89C301.157 251.89 337.358 215.689 337.358 171.032C337.358 126.376 301.157 90.1748 256.5 90.1748C211.844 90.1748 175.643 126.376 175.643 171.032C175.643 215.689 211.844 251.89 256.5 251.89Z" fill="white"/>
<path d="M234.958 127.748C235.86 126.345 215.32 125.744 215.32 125.744C217.023 123.239 233.756 115.224 233.756 115.224C233.756 115.224 232.854 109.212 236.461 105.404L231.952 95.5854C231.952 95.5854 238.966 92.1787 250.388 92.1787C261.81 92.1787 270.327 99.1924 271.429 105.304L265.016 108.711C264.916 113.42 266.72 120.334 260.708 126.045C254.797 131.756 252.392 132.958 252.191 144.881C252.191 148.789 254.496 153.097 261.009 156.604C278.443 165.922 299.684 184.859 305.696 190.571C311.808 196.282 310.806 209.808 308.301 215.82C305.796 221.831 296.177 230.148 293.973 229.446C291.769 228.845 295.175 220.228 290.466 217.824C290.466 217.824 281.549 210.209 273.633 218.425C265.718 226.641 273.433 243.674 277.541 246.479C281.649 249.285 279.244 251.489 275.637 251.489H247.482C243.675 251.489 242.072 249.185 245.579 246.479C253.193 242.672 258.003 231.15 252.993 226.14C248.083 221.23 234.657 227.643 231.451 232.452C228.646 235.258 222.634 236.059 218.526 231.049C214.418 226.04 214.418 220.629 217.424 218.525C224.437 213.716 217.424 218.525 217.524 218.425C217.524 218.425 229.447 209.808 247.482 209.407C251.39 209.407 252.292 207.203 249.687 204.598C249.687 204.598 218.726 177.144 221.532 160.312C224.538 141.976 241.571 133.96 234.958 127.748C234.958 127.748 233.655 125.945 234.958 127.748Z" fill="black"/>
</g>
<defs>
<clipPath id="clip0_4349_29212">
<rect width="513" height="341.967" fill="white" transform="translate(0 -0.000976562)"/>
</clipPath>
</defs>
</svg>
