<svg width="513" height="343" viewBox="0 0 513 343" fill="none" xmlns="http://www.w3.org/2000/svg">
<g clip-path="url(#clip0_4349_29205)">
<path d="M0 0.963379H513V342.963H0V0.963379Z" fill="white"/>
<path d="M0 0.963379H513V27.2634H0V0.963379ZM0 53.5634H513V79.8634H0V53.5634ZM0 106.163H513V132.463H0V106.163ZM0 158.763H513V185.063H0V158.763ZM0 211.463H513V237.763H0V211.463ZM0 264.063H513V290.363H0V264.063ZM0 316.663H513V342.963H0V316.663Z" fill="#D80027"/>
<path d="M0 0.963379H256.5V185.063H0V0.963379Z" fill="#2E52B2"/>
<path d="M47.8002 139.863L43.8002 127.063L39.4002 139.863H26.2002L36.9002 147.563L32.9002 160.363L43.8002 152.463L54.4002 160.363L50.3002 147.563L61.2002 139.863H47.8002ZM104.1 139.863L100 127.063L95.8002 139.863H82.6002L93.3002 147.563L89.3002 160.363L100 152.463L110.8 160.363L106.8 147.563L117.5 139.863H104.1ZM160.6 139.863L156.3 127.063L152.3 139.863H138.8L149.8 147.563L145.6 160.363L156.3 152.463L167.3 160.363L163.1 147.563L173.8 139.863H160.6ZM216.8 139.863L212.8 127.063L208.6 139.863H195.3L206.1 147.563L202.1 160.363L212.8 152.463L223.6 160.363L219.3 147.563L230.3 139.863H216.8ZM100 76.2634L95.8002 89.0634H82.6002L93.3002 96.9634L89.3002 109.563L100 101.763L110.8 109.563L106.8 96.9634L117.5 89.0634H104.1L100 76.2634ZM43.8002 76.2634L39.4002 89.0634H26.2002L36.9002 96.9634L32.9002 109.563L43.8002 101.763L54.4002 109.563L50.3002 96.9634L61.2002 89.0634H47.8002L43.8002 76.2634ZM156.3 76.2634L152.3 89.0634H138.8L149.8 96.9634L145.6 109.563L156.3 101.763L167.3 109.563L163.1 96.9634L173.8 89.0634H160.6L156.3 76.2634ZM212.8 76.2634L208.6 89.0634H195.3L206.1 96.9634L202.1 109.563L212.8 101.763L223.6 109.563L219.3 96.9634L230.3 89.0634H216.8L212.8 76.2634ZM43.8002 25.6634L39.4002 38.2634H26.2002L36.9002 46.1634L32.9002 58.8634L43.8002 50.9634L54.4002 58.8634L50.3002 46.1634L61.2002 38.2634H47.8002L43.8002 25.6634ZM100 25.6634L95.8002 38.2634H82.6002L93.3002 46.1634L89.3002 58.8634L100 50.9634L110.8 58.8634L106.8 46.1634L117.5 38.2634H104.1L100 25.6634ZM156.3 25.6634L152.3 38.2634H138.8L149.8 46.1634L145.6 58.8634L156.3 50.9634L167.3 58.8634L163.1 46.1634L173.8 38.2634H160.6L156.3 25.6634ZM212.8 25.6634L208.6 38.2634H195.3L206.1 46.1634L202.1 58.8634L212.8 50.9634L223.6 58.8634L219.3 46.1634L230.3 38.2634H216.8L212.8 25.6634Z" fill="white"/>
</g>
<defs>
<clipPath id="clip0_4349_29205">
<rect width="513" height="342" fill="white" transform="translate(0 0.963379)"/>
</clipPath>
</defs>
</svg>
