<svg width="513" height="343" viewBox="0 0 513 343" fill="none" xmlns="http://www.w3.org/2000/svg">
<g clip-path="url(#clip0_4349_29192)">
<path d="M0 0.962891H513V342.963H0V0.962891Z" fill="white"/>
<path d="M0 38.9629H513V76.9629H0V38.9629ZM0 114.963H513V152.963H0V114.963ZM0 190.963H513V228.963H0V190.963ZM0 266.963H513V304.963H0V266.963Z" fill="#0038A8"/>
<path d="M0 0.962891H256.5V190.963H0V0.962891Z" fill="white"/>
<path d="M128.3 139.663L113.2 162.263L109.4 135.363L85.9998 149.163L94.1998 123.263L66.9998 125.463L85.5998 105.663L60.2998 95.9629L85.6998 86.2629L66.9998 66.4629L94.0998 68.7629L85.8998 42.8629L109.3 56.6629L113.2 29.7629L128.3 52.3629L143.4 29.7629L147.2 56.6629L170.6 42.8629L162.4 68.7629L189.5 66.5629L170.9 86.3629L196.3 96.0629L170.9 105.763L189.5 125.563L162.4 123.363L170.6 149.263L147.2 135.463L143.3 162.363L128.3 139.663ZM128.3 139.163C152.2 140.063 172.3 121.563 173.2 97.6629C174.1 73.7629 155.6 53.6629 131.7 52.7629H128.3C104.4 53.5629 85.6998 73.5629 86.4998 97.3629C87.0998 120.163 105.5 138.463 128.3 139.163ZM128.3 128.563C109.5 128.563 94.2998 113.363 94.2998 94.5629C94.2998 75.7629 109.5 60.5629 128.3 60.5629C147.1 60.5629 162.3 75.7629 162.3 94.5629C162.3 113.363 147 128.563 128.3 128.563Z" fill="#FED443"/>
</g>
<defs>
<clipPath id="clip0_4349_29192">
<rect width="513" height="342" fill="white" transform="translate(0 0.962891)"/>
</clipPath>
</defs>
</svg>
