<svg width="513" height="343" viewBox="0 0 513 343" fill="none" xmlns="http://www.w3.org/2000/svg">
<g clip-path="url(#clip0_4349_29179)">
<path d="M0 0.960938H513V342.954H0V0.960938Z" fill="#FFDA44"/>
<path d="M256.5 0.960938H513V342.965H256.5V0.960938Z" fill="white"/>
<path d="M321.981 149.757L354.116 192.27C349.053 199.936 349.08 210.266 354.935 218.012C362.363 227.838 376.351 229.783 386.178 222.355C396.004 214.927 397.949 200.939 390.52 191.112C384.666 183.366 374.733 180.524 365.977 183.302L315.892 117.044L304.031 126.01L286.237 139.461L304.171 163.184L321.981 149.757ZM368.246 198.632C369.025 198.043 369.912 197.614 370.857 197.368C371.802 197.122 372.786 197.064 373.753 197.199C374.72 197.333 375.652 197.657 376.494 198.151C377.336 198.646 378.072 199.301 378.661 200.08C379.25 200.859 379.679 201.746 379.925 202.691C380.171 203.636 380.229 204.62 380.094 205.587C379.96 206.554 379.636 207.486 379.142 208.328C378.647 209.17 377.992 209.906 377.213 210.495C375.64 211.684 373.659 212.2 371.706 211.928C369.752 211.657 367.987 210.62 366.798 209.047C365.609 207.474 365.093 205.493 365.365 203.54C365.636 201.587 366.673 199.821 368.246 198.632Z" fill="#ACABB1"/>
<path d="M377.102 163.186L395.036 139.463L377.242 126.013L365.381 117.046L315.296 183.305C306.538 180.524 296.608 183.368 290.753 191.115C283.324 200.942 285.269 214.929 295.095 222.358C304.922 229.786 318.91 227.841 326.338 218.014C332.194 210.268 332.221 199.938 327.157 192.272L359.292 149.759L377.102 163.186ZM314.476 209.047C313.287 210.62 311.521 211.656 309.568 211.928C307.615 212.199 305.634 211.684 304.061 210.495C302.487 209.305 301.451 207.54 301.18 205.587C300.908 203.633 301.424 201.652 302.613 200.079C303.202 199.3 303.938 198.645 304.78 198.151C305.622 197.656 306.553 197.333 307.521 197.198C308.488 197.064 309.472 197.121 310.417 197.367C311.362 197.613 312.249 198.043 313.028 198.631C313.807 199.22 314.462 199.957 314.957 200.799C315.451 201.641 315.775 202.572 315.909 203.539C316.044 204.506 315.986 205.491 315.74 206.436C315.494 207.38 315.065 208.268 314.476 209.047Z" fill="#FFDA44"/>
</g>
<defs>
<clipPath id="clip0_4349_29179">
<rect width="513" height="342" fill="white" transform="translate(0 0.962891)"/>
</clipPath>
</defs>
</svg>
