<svg width="513" height="343" viewBox="0 0 513 343" fill="none" xmlns="http://www.w3.org/2000/svg">
<g clip-path="url(#clip0_4349_29151)">
<path d="M0 0.963379H513V342.967H0V0.963379Z" fill="#0052B4"/>
<path d="M256.5 0.963379V118.519H210.341L256.5 149.299V171.96H233.828L160.312 122.945V171.96H96.1875V122.945L22.6722 171.96H0V149.299L46.159 118.519H0V54.3935H46.159L0 23.6245V0.963379H22.6722L96.1875 49.9659V0.963379H160.312V49.9659L233.828 0.963379H256.5Z" fill="white"/>
<path d="M144.281 0.959473H112.219V70.4279H0V102.49H112.219V171.96H144.281V102.49H256.5V70.4279H144.281V0.959473Z" fill="#D80027"/>
<path d="M0 0.958496V16.071L57.4891 54.3967H80.1562L0 0.958496ZM256.5 0.958496V16.071L199.011 54.3967H176.344L256.5 0.958496Z" fill="#D80027"/>
<path d="M256.5 23.6245V54.3965H210.341L256.5 23.6245Z" fill="#2E52B2"/>
<path d="M0 0.958496V16.071L57.4891 54.3967H80.1562L0 0.958496ZM256.5 0.958496V16.071L199.011 54.3967H176.344L256.5 0.958496Z" fill="#D80027"/>
<path d="M256.5 23.6245V54.3965H210.341L256.5 23.6245Z" fill="#2E52B2"/>
<path d="M0 171.96V156.848L57.4891 118.521H80.1562L0 171.96ZM256.5 171.96V156.848L199.011 118.521H176.344L256.5 171.96Z" fill="#D80027"/>
<path d="M384.75 175.676L338.531 221.895C347.193 238.602 364.633 250.024 384.75 250.024C404.867 250.024 422.307 238.601 430.969 221.895L384.75 175.676Z" fill="#FFDA44"/>
<path d="M332.707 93.8945V175.678C332.708 215.515 384.75 227.72 384.75 227.72C384.75 227.72 436.792 215.515 436.793 175.677V93.8945H332.707Z" fill="#6DA544"/>
<path d="M373.598 131.064H395.903V190.539H373.598V131.064Z" fill="white"/>
<path d="M384.75 142.216C390.909 142.216 395.902 137.223 395.902 131.064C395.902 124.905 390.909 119.912 384.75 119.912C378.591 119.912 373.598 124.905 373.598 131.064C373.598 137.223 378.591 142.216 384.75 142.216Z" fill="#A2001D"/>
<path d="M347.58 108.76H362.449V123.629H347.58V108.76ZM347.58 142.217H362.449V157.086H347.58V142.217ZM347.58 175.673H362.449V190.542H347.58V175.673ZM407.054 108.76H421.923V123.629H407.054V108.76ZM407.054 142.217H421.923V157.086H407.054V142.217ZM407.054 175.673H421.923V190.542H407.054V175.673Z" fill="#FFDA44"/>
</g>
<defs>
<clipPath id="clip0_4349_29151">
<rect width="513" height="342" fill="white" transform="translate(0 0.962402)"/>
</clipPath>
</defs>
</svg>
