<svg width="513" height="343" viewBox="0 0 513 343" fill="none" xmlns="http://www.w3.org/2000/svg">
<g clip-path="url(#clip0_4349_29123)">
<path d="M0 0.96582H513V342.958H0V0.96582Z" fill="black"/>
<path d="M513 171.962V342.959H0L215.605 171.962H513Z" fill="#6DA544"/>
<path d="M513 0.96582V171.962H215.605L0 0.96582H513Z" fill="#D80027"/>
<path d="M221.433 155.234L26.9205 0.96582H8.97349L217.548 166.386H513V155.234H221.433ZM8.97349 342.958H26.9205L221.433 188.691H513V177.538H217.548L8.97349 342.958ZM0 8.0827V22.3164L188.685 171.962L0 321.608V335.841L206.632 171.962L0 8.0827Z" fill="black"/>
<path d="M8.97349 0.96582H0V8.0827L206.632 171.962L0 335.841V342.958H8.97349L217.548 177.538H513V166.386H217.548L8.97349 0.96582Z" fill="#FFDA44"/>
<path d="M63.8424 208.415V194.092C78.1353 194.092 89.7629 182.464 89.7629 168.173C89.7629 158.061 81.5359 149.834 71.4232 149.834C64.5347 149.834 58.9298 155.438 58.9298 162.328C58.9298 166.733 62.5138 170.317 66.9194 170.317C68.1168 170.316 69.2648 169.839 70.1115 168.992C70.9582 168.146 71.4346 166.998 71.4362 165.8H85.7591C85.7591 176.189 77.3077 184.641 66.9204 184.641C54.6174 184.639 44.6079 174.628 44.6079 162.327C44.6079 147.54 56.6374 135.51 71.4242 135.51C89.4343 135.51 104.087 150.162 104.087 168.173C104.087 190.361 86.0337 208.415 63.8424 208.415Z" fill="#FFDA44"/>
</g>
<defs>
<clipPath id="clip0_4349_29123">
<rect width="513" height="342" fill="white" transform="translate(0 0.961914)"/>
</clipPath>
</defs>
</svg>
