<svg width="513" height="343" viewBox="0 0 513 343" fill="none" xmlns="http://www.w3.org/2000/svg">
<g clip-path="url(#clip0_4349_29112)">
<path d="M0 0.959473H513V342.963H0V0.959473Z" fill="#D80027"/>
<path d="M0 0.959473H256.5V171.956H0V0.959473Z" fill="#0052B4"/>
<path d="M165.806 97.6068L168.575 106.127H177.532L170.286 111.392L173.054 119.911L165.806 114.646L158.559 119.911L161.327 111.392L154.08 106.127H163.038L165.806 97.6068ZM120.814 30.6934L125.429 44.894H140.358L128.28 53.6681L132.894 67.8668L120.814 59.0917L108.737 67.8668L113.351 53.6681L101.271 44.894H116.201L120.814 30.6934ZM165.423 45.5633L170.038 59.763H184.967L172.889 68.5371L177.502 82.7378L165.423 73.9607L153.346 82.7378L157.959 68.5371L145.88 59.763H160.809L165.423 45.5633ZM130.163 105.042L134.778 119.242H149.707L137.628 128.017L142.241 142.216L130.163 133.44L118.085 142.216L122.698 128.017L110.619 119.242H125.549L130.163 105.042ZM91.0763 67.8668L95.6903 82.0675H110.619L98.5409 90.8416L103.154 105.042L91.0763 96.2652L78.9978 105.042L83.6108 90.8416L71.5322 82.0675H86.4613L91.0763 67.8668Z" fill="white"/>
</g>
<defs>
<clipPath id="clip0_4349_29112">
<rect width="513" height="342" fill="white" transform="translate(0 0.961426)"/>
</clipPath>
</defs>
</svg>
