<svg width="513" height="343" viewBox="0 0 513 343" fill="none" xmlns="http://www.w3.org/2000/svg">
<g clip-path="url(#clip0_4349_29107)">
<path d="M0 0.966797H513V342.973H0V0.966797Z" fill="#0052B4"/>
<path d="M221.151 43.6802L229.116 59.8217L246.921 62.4067L234.036 74.9712L237.082 92.7058L221.151 84.3295L205.22 92.7058L208.256 74.9712L195.371 62.4067L213.185 59.8217L221.151 43.6802ZM291.849 43.6201L299.814 59.7516L317.629 62.3466L304.744 74.9011L307.78 92.6457L291.849 84.2694L275.918 92.6457L278.964 74.9011L266.079 62.3466L283.883 59.7516L291.849 43.6201ZM354.05 55.0023L362.016 71.1438L379.82 73.7288L366.935 86.2933L369.981 104.028L354.05 95.6616L338.119 104.028L341.165 86.2933L328.27 73.7288L346.084 71.1438L354.05 55.0023ZM417.183 73.3381L425.149 89.4795L442.953 92.0746L430.068 104.629L433.114 122.374L417.183 113.997L401.252 122.374L404.288 104.629L391.403 92.0746L409.218 89.4795L417.183 73.3381ZM158.95 55.0023L166.915 71.1438L184.73 73.7288L171.835 86.2933L174.881 104.028L158.95 95.6616L143.019 104.028L146.065 86.2933L133.179 73.7288L150.984 71.1438L158.95 55.0023ZM95.8166 73.3381L103.782 89.4795L121.597 92.0746L108.712 104.629L111.748 122.374L95.8166 113.997L79.8856 122.374L82.9315 104.629L70.0464 92.0746L87.8511 89.4795L95.8166 73.3381Z" fill="white"/>
<path d="M217.955 260.803L190.682 247.166L163.409 192.63H190.682L217.955 165.357L231.592 138.084L258.865 124.447L272.501 138.084L299.775 151.72V165.357L313.411 178.994L354.321 206.267L340.664 247.176L299.754 288.086L286.118 260.813L245.208 288.086V315.359L231.572 301.723L217.955 260.803Z" fill="#FFDA44"/>
</g>
<defs>
<clipPath id="clip0_4349_29107">
<rect width="513" height="341.997" fill="white" transform="translate(0 0.966797)"/>
</clipPath>
</defs>
</svg>
