<svg width="513" height="343" viewBox="0 0 513 343" fill="none" xmlns="http://www.w3.org/2000/svg">
<g clip-path="url(#clip0_4349_29094)">
<path d="M0 0.959961H513V342.96H0V0.959961Z" fill="white"/>
<path d="M430.92 226.679C424.65 230.669 430.92 236.939 427.5 237.509C424.08 238.079 418.95 229.529 426.36 223.259C435.48 214.709 459.42 223.259 459.99 247.769C459.99 260.309 454.86 286.529 418.95 286.529C375.63 286.529 353.97 254.039 353.97 221.549C353.97 194.189 375.06 144.599 391.02 138.329C408.69 131.489 429.21 118.379 429.78 109.829C429.78 106.979 421.8 109.259 410.97 114.959C393.3 124.649 373.35 129.209 373.35 122.939C373.35 116.669 389.88 105.269 396.15 96.719C402.99 87.599 401.28 65.369 413.25 65.369C456.57 65.369 469.68 109.259 453.15 132.059C442.32 146.879 477.66 137.759 477.66 137.759C477.66 137.759 477.66 167.969 459.42 179.369C442.32 189.629 432.06 201.599 432.06 201.599C432.06 201.599 433.2 175.379 429.21 179.369C425.79 183.359 365.94 205.019 370.5 247.769C372.21 264.869 396.15 278.549 418.95 277.409C441.75 276.269 451.44 263.729 452.01 249.479C452.58 227.249 434.91 224.399 430.92 226.679ZM60.9898 249.479C61.5598 263.729 71.2498 276.269 94.0498 277.409C116.85 278.549 140.79 264.869 142.5 247.769C147.06 205.019 87.2098 183.359 83.7898 179.369C79.7998 175.379 80.9398 201.599 80.9398 201.599C80.9398 201.599 70.6798 189.629 53.5798 179.369C35.3398 167.969 35.3398 137.759 35.3398 137.759C35.3398 137.759 70.6798 146.879 59.8498 132.059C43.3198 109.259 56.4298 65.369 99.7498 65.369C111.72 65.369 110.01 87.599 116.85 96.719C123.12 105.269 139.65 116.669 139.65 122.939C139.65 129.209 119.7 124.649 102.03 114.959C91.1998 109.259 83.2198 106.979 83.2198 109.829C83.7898 118.379 104.31 131.489 121.98 138.329C137.94 144.599 159.03 194.189 159.03 221.549C159.03 254.039 137.37 286.529 94.0498 286.529C58.1398 286.529 53.0098 260.309 53.0098 247.769C53.5798 223.259 77.5198 214.709 86.6398 223.259C93.4798 229.529 88.9198 238.649 85.4998 237.509C82.0798 236.939 88.9198 230.669 82.0798 226.679C78.6598 224.399 60.9898 227.249 60.9898 249.479Z" fill="#ABABAB"/>
<path fill-rule="evenodd" clip-rule="evenodd" d="M57.4688 90.2181C50.8596 104.005 51.7166 120.628 59.951 131.986C61.3098 133.845 61.9586 135.347 62.0309 136.551C62.1039 137.768 61.5875 138.668 60.6598 139.305C59.7403 139.936 58.4186 140.309 56.8692 140.499C55.3172 140.69 53.5234 140.698 51.649 140.591C47.8999 140.377 43.8144 139.699 40.6682 139.075C39.0946 138.763 37.7551 138.464 36.8088 138.244C36.3357 138.133 35.9608 138.042 35.7042 137.979C35.6079 137.955 35.5282 137.936 35.4663 137.92C35.4669 137.969 35.4679 138.028 35.4693 138.099C35.4737 138.322 35.4826 138.651 35.5004 139.074C35.5359 139.921 35.607 141.143 35.7493 142.646C36.0339 145.651 36.603 149.777 37.741 154.258C40.0183 163.225 44.567 173.588 53.645 179.262C62.2033 184.397 69.0496 189.96 73.7564 194.239C76.11 196.379 77.929 198.198 79.1598 199.482C79.7752 200.124 80.2436 200.633 80.5583 200.981C80.6532 201.086 80.7341 201.176 80.8008 201.251C80.7937 201.063 80.7843 200.804 80.7737 200.484C80.7503 199.775 80.7214 198.765 80.6991 197.567C80.6545 195.17 80.6367 192.015 80.7437 188.983C80.8506 185.955 81.0823 183.04 81.5397 181.13C81.6542 180.652 81.7836 180.233 81.9302 179.89C82.0762 179.548 82.2427 179.272 82.4355 179.088C82.6314 178.901 82.8597 178.804 83.1163 178.837C83.366 178.869 83.6195 179.022 83.8782 179.281L83.885 179.287C84.0847 179.52 84.5028 179.83 85.1288 180.219C85.7506 180.605 86.5639 181.062 87.541 181.59C88.4052 182.058 89.3957 182.581 90.4929 183.16C90.6358 183.235 90.7805 183.312 90.927 183.389C92.1979 184.06 93.6011 184.803 95.1069 185.618C101.13 188.879 108.796 193.3 116.213 198.934C131.042 210.199 144.911 226.339 142.624 247.782M35.3398 137.759L35.3711 137.638L35.2148 137.598L35.2148 137.759H35.3398ZM101.971 115.069C110.814 119.919 120.23 123.486 127.439 125.056C131.042 125.841 134.106 126.13 136.274 125.824C137.358 125.671 138.231 125.368 138.835 124.892C139.445 124.412 139.775 123.761 139.775 122.939C139.775 122.129 139.508 121.245 139.039 120.307C138.57 119.368 137.894 118.368 137.067 117.322C135.414 115.23 133.146 112.945 130.688 110.594C129.652 109.603 128.583 108.601 127.511 107.597C123.485 103.823 119.42 100.012 116.951 96.6451L116.95 96.644C115.254 94.3829 114.083 91.3018 113.096 87.9379C112.602 86.2571 112.155 84.5092 111.711 82.7611L111.65 82.5222C111.226 80.8546 110.803 79.1897 110.344 77.5895C109.381 74.2389 108.254 71.1567 106.611 68.9111C104.962 66.6592 102.79 65.244 99.7498 65.244C78.0413 65.244 63.8902 76.2446 57.2434 90.11C50.6001 103.968 51.4531 120.69 59.7486 132.132C61.0972 133.978 61.7133 135.433 61.7813 136.566C61.8486 137.687 61.3808 138.507 60.5183 139.099C59.6477 139.697 58.3732 140.063 56.8388 140.251C55.307 140.439 53.5294 140.448 51.6632 140.342C47.931 140.128 43.8584 139.453 40.7168 138.83C39.1465 138.518 37.8097 138.22 36.8656 138C36.3936 137.89 36.0197 137.8 35.764 137.736C35.6362 137.705 35.5378 137.68 35.4715 137.664L35.3963 137.644L35.3774 137.64L35.3726 137.638L35.3711 137.638C35.3708 137.638 35.3711 137.638 35.3398 137.759M116.749 96.7934C115.025 94.4946 113.845 91.3772 112.856 88.0083C112.361 86.3225 111.913 84.5703 111.468 82.8227L111.408 82.5847C110.984 80.9162 110.562 79.2548 110.103 77.6585C109.142 74.3117 108.025 71.2663 106.409 69.0588C104.798 66.8576 102.695 65.494 99.7498 65.494C78.1384 65.494 64.0745 76.4385 57.4688 90.2181M396.251 96.7929C397.974 94.4942 399.155 91.377 400.144 88.0083L396.251 96.7929ZM411.029 115.069C402.186 119.918 392.77 123.486 385.56 125.056C381.957 125.841 378.894 126.13 376.726 125.824C375.642 125.671 374.769 125.368 374.164 124.892C373.554 124.412 373.225 123.761 373.225 122.939C373.225 122.129 373.492 121.245 373.961 120.307C374.43 119.368 375.106 118.368 375.933 117.322C377.586 115.23 379.854 112.945 382.312 110.594C383.347 109.603 384.416 108.601 385.488 107.597C389.514 103.823 393.58 100.012 396.049 96.6451L396.05 96.644C397.746 94.3829 398.916 91.3018 399.904 87.9379C400.398 86.2571 400.845 84.5092 401.289 82.7611L401.35 82.5227C401.773 80.855 402.196 79.1899 402.656 77.5895C403.618 74.2389 404.745 71.1567 406.389 68.9111C408.038 66.6592 410.21 65.244 413.25 65.244C434.958 65.244 449.11 76.2446 455.756 90.11C462.4 103.968 461.547 120.69 453.251 132.132C451.903 133.978 451.286 135.433 451.218 136.566C451.151 137.687 451.619 138.507 452.481 139.099C453.352 139.697 454.627 140.063 456.161 140.251C457.693 140.439 459.47 140.448 461.337 140.342C465.069 140.128 469.141 139.453 472.283 138.83C473.853 138.518 475.19 138.22 476.134 138C476.606 137.89 476.98 137.8 477.236 137.736C477.364 137.705 477.462 137.68 477.528 137.664L477.603 137.644L477.628 137.638C477.629 137.638 477.629 137.638 477.66 137.759C477.785 137.759 477.785 137.759 477.785 137.759V137.761L477.785 137.765L477.785 137.782L477.784 137.847C477.784 137.905 477.783 137.991 477.78 138.104C477.776 138.328 477.767 138.659 477.749 139.085C477.713 139.935 477.642 141.162 477.499 142.669C477.214 145.684 476.643 149.823 475.501 154.32C473.218 163.308 468.647 173.749 459.486 179.475L459.484 179.476C450.943 184.601 444.109 190.153 439.411 194.424C437.063 196.559 435.248 198.374 434.02 199.655C433.407 200.295 432.94 200.802 432.627 201.148C432.47 201.322 432.352 201.455 432.273 201.545C432.234 201.59 432.204 201.624 432.184 201.646L432.162 201.672L432.157 201.678L432.155 201.68C432.155 201.68 432.155 201.68 432.06 201.599C431.935 201.594 431.935 201.593 431.935 201.593L431.936 201.575L431.938 201.519C431.94 201.469 431.943 201.396 431.947 201.301C431.954 201.11 431.964 200.83 431.976 200.476C432 199.767 432.028 198.759 432.051 197.562C432.095 195.167 432.113 192.017 432.006 188.992C431.899 185.964 431.668 183.072 431.217 181.188C431.104 180.718 430.979 180.314 430.84 179.988C430.7 179.66 430.549 179.42 430.392 179.269C430.237 179.121 430.081 179.064 429.915 179.085C429.744 179.107 429.54 179.216 429.302 179.454C429.073 179.719 428.624 180.045 428.003 180.431C427.374 180.822 426.556 181.281 425.578 181.81C424.712 182.279 423.719 182.802 422.622 183.382L422.189 183.61C420.919 184.281 419.516 185.023 418.012 185.838C411.993 189.096 404.341 193.51 396.938 199.134C382.128 210.384 368.351 226.449 370.624 247.756C371.474 256.251 377.849 263.917 386.88 269.322C395.908 274.724 407.569 277.853 418.944 277.284C430.322 276.715 438.413 273.303 443.73 268.269C449.046 263.237 451.601 256.572 451.885 249.475C452.169 238.398 447.911 232.172 443.106 228.992C440.7 227.4 438.153 226.569 435.962 226.277C433.766 225.985 431.948 226.237 430.984 226.786M432.06 201.599L431.935 201.593L431.919 201.955L432.155 201.68L432.06 201.599ZM432.199 201.251C432.203 201.246 432.208 201.241 432.213 201.236C432.277 201.164 432.353 201.079 432.441 200.981C432.756 200.633 433.225 200.124 433.84 199.482C435.071 198.198 436.89 196.379 439.243 194.239C443.95 189.96 450.797 184.397 459.355 179.262C468.433 173.588 472.981 163.225 475.259 154.258C476.397 149.777 476.966 145.651 477.25 142.646C477.393 141.143 477.464 139.921 477.499 139.074C477.517 138.651 477.526 138.322 477.53 138.099C477.532 138.028 477.533 137.969 477.533 137.92L477.501 137.928C477.445 137.942 477.376 137.959 477.296 137.979C477.039 138.042 476.664 138.133 476.191 138.244C475.245 138.464 473.905 138.763 472.332 139.075C469.185 139.699 465.1 140.377 461.351 140.591C459.476 140.698 457.683 140.69 456.13 140.499C454.581 140.309 453.259 139.936 452.34 139.305C451.412 138.668 450.896 137.768 450.969 136.551C451.041 135.347 451.69 133.845 453.049 131.985C461.283 120.627 462.14 104.005 455.531 90.2181C448.925 76.4385 434.861 65.494 413.25 65.494C410.305 65.494 408.202 66.8576 406.591 69.0588C404.975 71.2663 403.858 74.3117 402.896 77.6585C402.438 79.2544 402.016 80.9154 401.592 82.5835L401.531 82.8227C401.087 84.5703 400.639 86.3225 400.144 88.0083M432.199 201.251C432.202 201.159 432.207 201.049 432.211 200.923C432.216 200.793 432.221 200.647 432.226 200.484C432.249 199.775 432.278 198.765 432.301 197.567C432.345 195.17 432.363 192.015 432.256 188.983C432.149 185.955 431.917 183.04 431.46 181.13C431.346 180.652 431.216 180.233 431.07 179.89C430.924 179.548 430.757 179.272 430.564 179.088C430.368 178.901 430.14 178.804 429.883 178.837C429.634 178.869 429.38 179.022 429.122 179.281L429.115 179.288C428.915 179.521 428.497 179.83 427.871 180.219C427.249 180.605 426.436 181.062 425.459 181.59C424.594 182.058 423.603 182.581 422.505 183.161L422.073 183.389C420.802 184.06 419.399 184.803 417.893 185.618C411.87 188.879 404.204 193.3 396.787 198.934C381.957 210.199 368.088 226.339 370.376 247.782C371.236 256.387 377.686 264.111 386.752 269.536C395.821 274.964 407.531 278.105 418.956 277.534C430.378 276.963 438.531 273.535 443.902 268.451C449.273 263.366 451.849 256.636 452.135 249.484L452.135 249.482C452.421 238.329 448.129 232.016 443.244 228.784C440.805 227.169 438.221 226.326 435.995 226.03C433.775 225.734 431.89 225.981 430.858 226.57M477.66 137.759L477.785 137.759V137.598L477.628 137.638L477.66 137.759Z" fill="#7F7F7F"/>
<path d="M176.7 165.121V244.921C176.7 255.751 188.67 254.041 188.67 254.041H241.68C248.52 254.041 256.5 267.151 256.5 267.151C256.5 267.151 264.48 254.041 270.75 254.041H325.47C325.47 254.041 336.87 255.181 336.87 243.781V164.551H176.7V165.121Z" fill="#DE393A"/>
<path d="M176.7 75.6304H336.3V165.12H176.7V75.6304Z" fill="#3951A3"/>
<path d="M285.57 95.0099C283.29 108.69 271.32 118.95 256.5 118.95C242.25 118.95 230.28 108.69 227.43 95.0099C224.58 100.14 222.87 105.84 222.87 112.11C222.87 130.92 237.69 145.74 256.5 145.74C275.31 145.74 290.13 130.92 290.13 112.11C290.13 105.84 288.42 100.14 285.57 95.0099Z" fill="white"/>
<path d="M222.87 226.11C232.314 226.11 239.97 218.454 239.97 209.01C239.97 199.566 232.314 191.91 222.87 191.91C213.426 191.91 205.77 199.566 205.77 209.01C205.77 218.454 213.426 226.11 222.87 226.11Z" fill="#FEE05F"/>
<path d="M290.13 226.11C299.574 226.11 307.23 218.454 307.23 209.01C307.23 199.566 299.574 191.91 290.13 191.91C280.686 191.91 273.03 199.566 273.03 209.01C273.03 218.454 280.686 226.11 290.13 226.11Z" fill="#FEE05F"/>
</g>
<defs>
<clipPath id="clip0_4349_29094">
<rect width="513" height="342" fill="white" transform="translate(0 0.959961)"/>
</clipPath>
</defs>
</svg>
