<svg width="513" height="343" viewBox="0 0 513 343" fill="none" xmlns="http://www.w3.org/2000/svg">
<g clip-path="url(#clip0_4349_29087)">
<path d="M0 0.964478H513V342.957H0V0.964478Z" fill="white"/>
<path d="M114.247 171.962L0 57.6639V286.28L114.247 171.962Z" fill="black"/>
<path d="M161.507 171.961L0 10.3457V57.6639L114.247 171.962L0 286.28V333.51L161.507 171.961Z" fill="#FFB915"/>
<path d="M510.829 205.417C510.887 204.976 511.634 204.537 513 204.096V138.505H223.037L85.4967 0.964478H0V10.3458L161.507 171.961L0 333.51V342.957H85.4967L223.037 205.417H510.829Z" fill="#007847"/>
<path d="M504.164 238.874H236.895L132.811 342.957H513V238.874H504.164Z" fill="#000C8A"/>
<path d="M504.164 105.047H513V0.964478H132.811L236.895 105.047H504.164Z" fill="#E1392D"/>
</g>
<defs>
<clipPath id="clip0_4349_29087">
<rect width="513" height="342" fill="white" transform="translate(0 0.960449)"/>
</clipPath>
</defs>
</svg>
