<svg width="513" height="343" viewBox="0 0 513 343" fill="none" xmlns="http://www.w3.org/2000/svg">
<g clip-path="url(#clip0_4349_29081)">
<path d="M0 0.957947H513V342.962H0V0.957947Z" fill="#496E2D"/>
<path d="M491.626 111.318H443.533C443.533 102.465 436.355 95.2868 427.501 95.2868C418.648 95.2868 411.47 102.465 411.47 111.318H363.376C363.376 120.171 371.088 127.349 379.942 127.349H379.408C379.408 136.203 386.584 143.381 395.439 143.381C395.439 152.234 402.615 159.412 411.47 159.412H443.533C452.386 159.412 459.564 152.234 459.564 143.381C468.417 143.381 475.595 136.203 475.595 127.349H475.061C483.915 127.349 491.626 120.171 491.626 111.318Z" fill="#FF9811"/>
<path d="M342.004 171.954H399.003V342.951H342.004V171.954Z" fill="#D80027"/>
<path d="M456.001 171.954H513V342.951H456.001V171.954Z" fill="#FF9811"/>
<path d="M399.003 171.954H456.002V342.951H399.003V171.954Z" fill="black"/>
</g>
<defs>
<clipPath id="clip0_4349_29081">
<rect width="513" height="342" fill="white" transform="translate(0 0.959961)"/>
</clipPath>
</defs>
</svg>
