<svg width="513" height="343" viewBox="0 0 513 343" fill="none" xmlns="http://www.w3.org/2000/svg">
<g clip-path="url(#clip0_4349_29069)">
<path d="M0 0.959961H513V342.964H0V0.959961Z" fill="black"/>
<path d="M0 49.9184H513V98.8818H0V49.9184ZM0 245.772H513V294.736H0V245.772Z" fill="#FFDA44"/>
<path d="M0 0.959961H513V49.9234H0V0.959961Z" fill="#057F44"/>
<path d="M0 98.8868H513V147.85H0V98.8868ZM0 196.815H513V245.778H0V196.815Z" fill="#D80027"/>
<path d="M0 294.742H513V342.964H0V294.742Z" fill="#057F44"/>
<path d="M277.533 171.956L106.537 342.953H0V0.959961H106.537L277.533 171.956Z" fill="white"/>
<path d="M256.5 171.956L85.5005 342.956H106.528L277.529 171.956L106.528 0.956955H85.5005L256.5 171.956Z" fill="black"/>
<path d="M102.665 118.426L115.95 159.318H158.951L124.165 184.593L137.451 225.487L102.665 200.213L67.8773 225.487L81.1652 184.593L46.3794 159.318H89.3782L102.665 118.426Z" fill="#D80027"/>
<path d="M139.211 175.302L104.585 163.035C104.585 163.035 102.027 139.033 101.871 138.221C100.696 132.028 95.2555 127.348 88.7227 127.348C81.3323 127.348 75.3396 133.34 75.3396 140.731C75.3396 141.957 75.518 143.138 75.8266 144.266L66.1187 154.04H83.3813C83.3813 171.957 70.0112 171.957 70.0112 189.801L77.4277 207.645H122.037L129.473 189.801H129.469C130.195 188.135 130.662 186.367 130.853 184.56C137.262 181.966 139.211 175.302 139.211 175.302Z" fill="#FFDA44"/>
</g>
<defs>
<clipPath id="clip0_4349_29069">
<rect width="513" height="342" fill="white" transform="translate(0 0.959961)"/>
</clipPath>
</defs>
</svg>
